<?xml version="1.0" standalone="no"?>
<!DOCTYPE svg PUBLIC "-//W3C//DTD SVG 1.1//EN" "http://www.w3.org/Graphics/SVG/1.1/DTD/svg11.dtd" >
<svg>
<metadata>
Created by FontForge 20090622 at Wed Jul  5 02:46:16 2017
 By deploy user
Copyright (c) 2010 by Leftloft, published by TypeTogether. All rights reserved.
</metadata>
<defs>
<font id="LFTEtica-Light" horiz-adv-x="600" >
  <font-face 
    font-family="LFT Etica Lt"
    font-weight="300"
    font-stretch="normal"
    units-per-em="1000"
    panose-1="2 0 5 3 4 0 0 2 0 4"
    ascent="730"
    descent="-270"
    x-height="524"
    cap-height="720"
    bbox="-185 -282 2267.43 919"
    underline-thickness="50"
    underline-position="-50"
    unicode-range="U+0020-U+FB04"
  />
<missing-glyph horiz-adv-x="178" 
 />
    <glyph glyph-name="ft" unicode="ft" horiz-adv-x="537" 
d="M500 475h-100v-387q0 -29 10.5 -40.5t36.5 -11.5q28 0 62 15l13 -42q-44 -21 -83 -21q-95 0 -95 88v399h-197v-475h-57v475h-59v37l59 10v81q0 58 26 93.5t83 35.5q30 0 57 -7v-46q-18 6 -46 6q-63 0 -63 -79v-82h197l10 139h46v-139h100v-49z" />
    <glyph glyph-name="ff" unicode="ff" horiz-adv-x="505" 
d="M344 0v475h-197v-475h-57v475h-59v37l59 10v69q0 57 27.5 93t84.5 36q27 0 59 -8l-4 -45q-23 7 -47 7q-63 0 -63 -80v-70h197v80q0 57 26.5 93t83.5 36q34 0 61 -8l-4 -45q-21 7 -47 7q-63 0 -63 -80v-83h99v-49h-99v-475h-57z" />
    <glyph glyph-name="fi" unicode="fi" horiz-adv-x="481" 
d="M401 524v-524h-57v475h-197v-475h-57v475h-59v37l59 10v81q0 58 26 93.5t83 35.5q30 0 57 -7v-46q-18 6 -46 6q-63 0 -63 -79v-82h254zM331 669q0 18 12 29.5t30 11.5t29.5 -11.5t11.5 -29.5t-11.5 -29.5t-29.5 -11.5t-30 11.5t-12 29.5z" />
    <glyph glyph-name="fl" unicode="fl" horiz-adv-x="475" 
d="M401 0h-57v475h-197v-475h-57v475h-59v37l59 10v81q0 58 26 93.5t83 35.5q30 0 57 -7v-46q-18 6 -46 6q-63 0 -63 -79v-82h197v196h57v-720z" />
    <glyph glyph-name="ffi" unicode="ffi" horiz-adv-x="735" 
d="M344 0v475h-197v-475h-57v475h-59v37l59 10v70q0 57 26.5 93t83.5 36q31 0 61 -9l-4 -45q-23 7 -47 7q-63 0 -63 -79v-71h197v79q0 58 26 93.5t83 35.5q30 0 57 -7v-46q-18 6 -46 6q-63 0 -63 -79v-82h254v-524h-57v475h-197v-475h-57zM585 669q0 18 12 29.5t30 11.5
t29.5 -11.5t11.5 -29.5t-11.5 -29.5t-29.5 -11.5t-30 11.5t-12 29.5z" />
    <glyph glyph-name="ffl" unicode="ffl" horiz-adv-x="728" 
d="M343 0v475h-196v-475h-57v475h-59v37l59 10v69q0 57 26.5 93t83.5 36q29 0 61 -8l-4 -45q-23 7 -47 7q-63 0 -63 -80v-70h196v79q0 58 26 93.5t83 35.5q30 0 57 -7v-46q-18 6 -46 6q-63 0 -63 -79v-82h197v196h57v-720h-57v475h-197v-475h-57z" />
    <glyph glyph-name="tt" unicode="tt" horiz-adv-x="536" 
d="M499 475h-100v-387q0 -29 10.5 -40.5t36.5 -11.5q28 0 62 15l13 -42q-44 -21 -83 -21q-95 0 -95 88v399h-197v-387q0 -29 10.5 -40.5t36.5 -11.5q28 0 62 15l13 -42q-44 -21 -83 -21q-95 0 -95 88v399h-64v37l64 12l10 139h46v-139h197l10 139h46v-139h100v-49z" />
    <glyph glyph-name="fft" unicode="fft" horiz-adv-x="791" 
d="M754 475h-100v-387q0 -29 10.5 -40.5t36.5 -11.5q28 0 62 15l13 -42q-44 -21 -83 -21q-95 0 -95 88v399h-197v-475h-57v475h-197v-475h-57v475h-59v37l59 10v70q0 57 26.5 93t83.5 36q31 0 61 -9l-4 -45q-23 7 -47 7q-63 0 -63 -79v-71h197v79q0 58 26 93.5t83 35.5
q30 0 57 -7v-46q-18 6 -46 6q-63 0 -63 -79v-82h197l10 139h46v-139h100v-49z" />
    <glyph glyph-name=".notdef" horiz-adv-x="178" 
 />
    <glyph glyph-name=".notdef" horiz-adv-x="178" 
 />
    <glyph glyph-name=".null" horiz-adv-x="0" 
 />
    <glyph glyph-name="nonmarkingreturn" horiz-adv-x="333" 
 />
    <glyph glyph-name="space" unicode=" " horiz-adv-x="200" 
 />
    <glyph glyph-name="exclam" unicode="!" horiz-adv-x="311" 
d="M133 194l-8 284v242h63v-242l-8 -284h-47zM110 32q0 21 13 33t33 12q19 0 32 -12t13 -32t-13 -32.5t-32 -12.5q-20 0 -33 12t-13 32z" />
    <glyph glyph-name="quotedbl" unicode="&#x22;" horiz-adv-x="333" 
d="M259 720v-274h-52v274h52zM126 720v-274h-51v274h51z" />
    <glyph glyph-name="numbersign" unicode="#" horiz-adv-x="694" 
d="M286 391l-48 -147h164l53 147h-169zM642 391h-143l-50 -147h140v-44h-155l-68 -185l-40 10l63 175h-168l-67 -185l-40 10l62 175h-120v44h135l51 147h-132v44h148l70 202l41 -10l-66 -192h167l71 201l42 -9l-68 -192h127v-44z" />
    <glyph glyph-name="dollar" unicode="$" horiz-adv-x="514" 
d="M225 -87v86q-119 7 -202 97l35 36q91 -86 182 -86q70 0 115.5 34.5t45.5 95.5q0 54 -35 88t-127 62q-107 33 -149.5 74t-42.5 114t49 117.5t130 50.5v85h45v-85q118 -8 183 -93l-37 -32q-71 78 -164 78q-65 0 -107 -31t-42 -86q0 -57 38 -86t130 -58q101 -32 144 -77
t43 -117q0 -75 -53 -124.5t-135 -56.5v-86h-46z" />
    <glyph glyph-name="percent" unicode="%" horiz-adv-x="824" 
d="M521 150q0 -47 29.5 -78t74.5 -31t74.5 31.5t29.5 77.5q0 45 -30 77t-74 32q-45 0 -74.5 -31.5t-29.5 -77.5zM471 149q0 65 44.5 109t109.5 44q66 0 110 -43.5t44 -108.5q0 -64 -44.5 -108t-109.5 -44q-66 0 -110 42.5t-44 108.5zM92 565q0 -48 29.5 -78t75.5 -30
q45 0 75 31t30 77q0 47 -30 78t-75 31t-75 -31.5t-30 -77.5zM43 564q0 65 44 109t110 44t110 -42.5t44 -109.5q0 -63 -45 -107.5t-109 -44.5q-67 0 -110.5 41.5t-43.5 109.5zM166 0l438 720h55l-438 -720h-55z" />
    <glyph glyph-name="ampersand" unicode="&#x26;" horiz-adv-x="708" 
d="M230 579q0 -59 76 -141q121 55 121 142q0 39 -28.5 66t-72.5 27q-43 0 -69.5 -26.5t-26.5 -67.5zM308 33q97 0 181 103l-201 244q-147 -66 -147 -185q0 -67 46.5 -114.5t120.5 -47.5zM606 -9l-85 101q-91 -110 -216 -110q-98 0 -160.5 59t-62.5 153q0 143 174 223
q-82 87 -82 160q0 64 43 104.5t111 40.5q66 0 109.5 -38.5t43.5 -100.5q0 -111 -142 -180l93 -114l129 102l32 -38l-130 -104l185 -224z" />
    <glyph glyph-name="quotesingle" unicode="'" horiz-adv-x="201" 
d="M126 720v-274h-51v274h51z" />
    <glyph glyph-name="parenleft" unicode="(" horiz-adv-x="343" 
d="M236 731l38 -23q-145 -189 -145 -413q0 -117 34 -208.5t111 -187.5l-33 -26q-169 164 -169 422q0 241 164 436z" />
    <glyph glyph-name="parenright" unicode=")" horiz-adv-x="343" 
d="M69 708l38 23q164 -195 164 -436q0 -258 -169 -422l-33 26q77 96 111 187.5t34 208.5q0 224 -145 413z" />
    <glyph glyph-name="asterisk" unicode="*" horiz-adv-x="414" 
d="M290 436l-84 100l-85 -100l-25 19l72 107l-108 39l10 30l114 -28l8 117h30l7 -116l115 28l10 -31l-110 -39l70 -108z" />
    <glyph glyph-name="plus" unicode="+" 
d="M325 561v-239h236v-47h-236v-237h-50v237h-237v47h237v239h50z" />
    <glyph glyph-name="comma" unicode="," horiz-adv-x="250" 
d="M72 35q0 21 15 34.5t39 13.5q29 0 44 -20t15 -46q0 -99 -98 -145l-14 24q40 23 57 46.5t18 59.5q-14 -12 -32 -12q-21 0 -32.5 13.5t-11.5 31.5z" />
    <glyph glyph-name="hyphen" unicode="-" horiz-adv-x="338" 
d="M36 252v51h266v-51h-266z" />
    <glyph glyph-name="period" unicode="." horiz-adv-x="247" 
d="M75 35q0 23 13.5 35.5t34.5 12.5q22 0 35.5 -12.5t13.5 -34.5t-14 -35t-35 -13t-34.5 13t-13.5 34z" />
    <glyph glyph-name="slash" unicode="/" horiz-adv-x="353" 
d="M25 -92l245 831h55l-248 -831h-52z" />
    <glyph glyph-name="zero" unicode="0" horiz-adv-x="598" 
d="M127 354q0 -315 172 -315t172 316q0 314 -172 314t-172 -315zM69 354q0 366 230 366t230 -364q0 -368 -231 -368q-229 0 -229 366z" />
    <glyph glyph-name="one" unicode="1" horiz-adv-x="443" 
d="M225 46v576q-84 -58 -174 -76l-9 46q52 12 107.5 44.5t92.5 72.5h40v-663h141v-46h-359v46h161z" />
    <glyph glyph-name="two" unicode="2" horiz-adv-x="500" 
d="M38 0v42l271 347q63 80 63 152q0 55 -36.5 89.5t-95.5 34.5q-93 0 -179 -83l-34 39q91 99 218 99q78 0 132 -46.5t54 -125.5q0 -53 -16.5 -92.5t-57.5 -91.5l-245 -312h325v-52h-399z" />
    <glyph glyph-name="three" unicode="3" horiz-adv-x="512" 
d="M18 83l35 41q44 -43 86 -62.5t100 -19.5q68 0 113.5 40.5t45.5 104.5q0 151 -172 152q-7 0 -28 -1l-21 -1l-2 53q78 2 130.5 45.5t52.5 110.5q0 57 -37.5 89t-91.5 32q-89 0 -157 -52l-26 40q86 65 187 65q81 0 132.5 -45t51.5 -124q0 -59 -36.5 -109t-95.5 -67
q172 -16 172 -184q0 -94 -62.5 -148.5t-153.5 -54.5q-131 0 -223 95z" />
    <glyph glyph-name="four" unicode="4" horiz-adv-x="529" 
d="M96 226h266v425zM362 0v175h-328v44l307 490h75v-483h88v-51h-88v-175h-54z" />
    <glyph glyph-name="five" unicode="5" horiz-adv-x="530" 
d="M71 276l29 433h331l-3 -55h-280l-19 -272q54 56 145 56q94 0 144 -57t50 -157q0 -114 -62.5 -175t-162.5 -61q-108 0 -197 61l26 46q94 -55 165 -55q79 0 126 45t47 134q0 75 -36.5 121.5t-105.5 46.5q-87 0 -143 -62l-4 -49h-50z" />
    <glyph glyph-name="six" unicode="6" horiz-adv-x="535" 
d="M58 298q0 210 66.5 316t185.5 106q84 0 149 -57l-28 -40q-57 46 -121 46q-176 0 -196 -315q81 83 179 83q92 0 140 -62.5t48 -157.5q0 -110 -54.5 -169.5t-151.5 -59.5q-108 0 -162.5 79.5t-54.5 230.5zM277 41q64 0 105.5 42.5t41.5 130.5q0 85 -40 128t-102 43
q-84 0 -168 -87q0 -257 163 -257z" />
    <glyph glyph-name="seven" unicode="7" horiz-adv-x="437" 
d="M421 668l-270 -668h-58v8l264 646h-340v55h404v-41z" />
    <glyph glyph-name="eight" unicode="8" horiz-adv-x="523" 
d="M103 174q0 -61 42 -98t114 -37q71 0 114.5 41t43.5 109q0 115 -164 169q-150 -62 -150 -184zM132 550q0 -93 134 -142q48 21 86.5 61t38.5 90q0 54 -34.5 83t-93.5 29t-95 -32t-36 -89zM45 174q0 72 42.5 125.5t116.5 83.5q-130 49 -130 169q0 76 53 122t136 46
t134.5 -42.5t51.5 -115.5q0 -55 -36 -101.5t-94 -75.5q80 -34 118.5 -81t38.5 -115q0 -92 -60.5 -146.5t-160.5 -54.5q-99 0 -154.5 49.5t-55.5 136.5z" />
    <glyph glyph-name="nine" unicode="9" horiz-adv-x="527" 
d="M463 417q0 -215 -63.5 -322t-174.5 -107q-96 0 -159 53l28 43q64 -45 128 -45q166 0 187 313q-83 -81 -181 -81q-92 0 -140 63t-48 158q0 103 56 165.5t151 62.5q106 0 161 -81t55 -222zM245 666q-63 0 -105 -43.5t-42 -128.5t39.5 -127.5t100.5 -42.5q89 0 168 89
q1 128 -42.5 190.5t-118.5 62.5z" />
    <glyph glyph-name="colon" unicode=":" horiz-adv-x="247" 
d="M75 444q0 23 13.5 35.5t34.5 12.5q22 0 35.5 -12.5t13.5 -34.5t-14 -35t-35 -13t-34.5 13t-13.5 34zM75 35q0 23 13.5 35.5t34.5 12.5q22 0 35.5 -12.5t13.5 -34.5t-14 -35t-35 -13t-34.5 13t-13.5 34z" />
    <glyph glyph-name="semicolon" unicode=";" horiz-adv-x="250" 
d="M72 35q0 21 15 34.5t39 13.5q29 0 44 -20t15 -46q0 -99 -98 -145l-14 24q40 23 57 46.5t18 59.5q-14 -12 -32 -12q-21 0 -32.5 13.5t-11.5 31.5zM80 444q0 23 13.5 35.5t34.5 12.5q22 0 35.5 -12.5t13.5 -34.5t-14 -35t-35 -13t-34.5 13t-13.5 34z" />
    <glyph glyph-name="less" unicode="&#x3c;" 
d="M565 56l-546 223v29l546 223l18 -45l-481 -193l481 -191z" />
    <glyph glyph-name="equal" unicode="=" 
d="M560 383v-45h-520v45h520zM560 229v-44h-520v44h520z" />
    <glyph glyph-name="greater" unicode="&#x3e;" 
d="M580 284l-546 -222l-17 45l479 192l-479 193l18 44l545 -222v-30z" />
    <glyph glyph-name="question" unicode="?" horiz-adv-x="516" 
d="M225 194v24q0 47 18 86.5t43.5 67.5l51.5 54t44 57.5t18 67.5q0 61 -35.5 95t-103.5 34q-70 0 -109.5 -42t-39.5 -116h-56q0 99 54 154.5t156 55.5q85 0 140 -46.5t55 -125.5q0 -43 -19 -80.5t-45.5 -66l-53.5 -56.5t-46 -63.5t-19 -75.5v-24h-53zM205 32q0 21 13 33
t33 12q19 0 32 -12t13 -32t-13 -32.5t-32 -12.5q-20 0 -33 12t-13 32z" />
    <glyph glyph-name="at" unicode="@" horiz-adv-x="982" 
d="M568 169l46 179q-32 22 -91 22q-84 0 -139.5 -66t-55.5 -155q0 -53 24.5 -85.5t70.5 -32.5q53 0 91.5 41t53.5 97zM666 374l-57 -240q-13 -55 2 -79.5t59 -24.5q87 0 145 84t58 190q0 144 -94.5 223.5t-247.5 79.5q-179 0 -300 -121t-121 -302q0 -163 110 -260.5
t274 -97.5q156 0 289 95l22 -32q-131 -103 -310 -103q-121 0 -218.5 46.5t-155.5 138t-58 213.5q0 205 135.5 334.5t335.5 129.5q174 0 279 -92t105 -245q0 -133 -71 -226t-184 -93q-51 0 -76.5 26t-20.5 71q-54 -94 -150 -94q-68 0 -101.5 41t-33.5 113q0 105 68 183
t173 78q86 0 144 -36z" />
    <glyph glyph-name="A" unicode="A" horiz-adv-x="633" 
d="M285 720h62l265 -720h-64l-81 220h-301l-80 -220h-65zM183 274h266l-133 374z" />
    <glyph glyph-name="B" unicode="B" horiz-adv-x="623" 
d="M310 669h-163v-271h147q191 0 191 142q0 69 -44.5 99t-130.5 30zM147 346v-295h191q90 0 136.5 42t46.5 114q0 139 -194 139h-180zM88 0v720h238q221 0 221 -178q0 -58 -33.5 -106t-100.5 -56v-2q88 -7 129 -58.5t41 -115.5q0 -204 -260 -204h-235z" />
    <glyph glyph-name="C" unicode="C" horiz-adv-x="647" 
d="M572 137l36 -40q-99 -109 -247 -109q-150 0 -225.5 106t-75.5 269q0 77 19 143t56 117t96 80.5t134 29.5q104 0 172 -59t70 -156h-59q-6 68 -51 114t-133 46q-113 0 -176.5 -85.5t-63.5 -226.5q0 -155 65 -239t175 -84q67 0 115.5 24.5t92.5 69.5z" />
    <glyph glyph-name="D" unicode="D" horiz-adv-x="691" 
d="M284 665h-136v-610h136q148 0 216 76.5t68 227.5t-68.5 228.5t-215.5 77.5zM88 720h191q174 0 263 -88t89 -273q0 -189 -90 -274t-271 -85h-182v720z" />
    <glyph glyph-name="E" unicode="E" horiz-adv-x="593" 
d="M88 0v720h441v-53h-381v-269h348v-54h-348v-292h390v-52h-450z" />
    <glyph glyph-name="F" unicode="F" horiz-adv-x="540" 
d="M88 0v720h418v-52h-358v-274h317v-52h-317v-342h-60z" />
    <glyph glyph-name="G" unicode="G" horiz-adv-x="712" 
d="M421 309v52h222v-259q-95 -114 -262 -114q-163 0 -242 103t-79 274q0 168 84.5 268t238.5 100q134 0 194 -60.5t62 -149.5h-61q-2 67 -50.5 110.5t-148.5 43.5q-123 0 -189 -88t-66 -223q0 -155 67.5 -239.5t192.5 -84.5q122 0 205 86v181h-168z" />
    <glyph glyph-name="H" unicode="H" horiz-adv-x="694" 
d="M88 0v720h60v-314h397v314h61v-720h-61v352h-397v-352h-60z" />
    <glyph glyph-name="I" unicode="I" horiz-adv-x="236" 
d="M88 0v720h60v-720h-60z" />
    <glyph glyph-name="J" unicode="J" horiz-adv-x="386" 
d="M304 720v-568q0 -84 -37.5 -124t-114.5 -40q-76 0 -133 28l15 49q58 -25 117 -25q49 0 70.5 27.5t21.5 99.5v553h61z" />
    <glyph glyph-name="K" unicode="K" horiz-adv-x="622" 
d="M88 0v720h60v-320h150l192 320h68l-207 -343l246 -377h-70l-229 349h-150v-349h-60z" />
    <glyph glyph-name="L" unicode="L" horiz-adv-x="519" 
d="M88 720h60v-666h342v-54h-402v720z" />
    <glyph glyph-name="M" unicode="M" horiz-adv-x="862" 
d="M799 0h-58l-64 628l-221 -628h-53l-218 628l-63 -628h-59l73 720h75l220 -637l221 637h73z" />
    <glyph glyph-name="N" unicode="N" horiz-adv-x="698" 
d="M88 0v720h58l404 -615v615h60v-720h-56l-406 616v-616h-60z" />
    <glyph glyph-name="O" unicode="O" horiz-adv-x="757" 
d="M124 370q0 -163 69.5 -244.5t189.5 -81.5q116 0 183 81t67 245q0 147 -68.5 227t-183.5 80q-118 0 -187.5 -80t-69.5 -227zM60 370q0 176 89.5 269.5t235.5 93.5q138 0 225 -94t87 -269q0 -193 -87.5 -287.5t-231.5 -94.5t-231 95t-87 287z" />
    <glyph glyph-name="P" unicode="P" horiz-adv-x="589" 
d="M302 666h-154v-318h144q190 0 190 162q0 79 -43.5 117.5t-136.5 38.5zM88 0v720h217q120 0 179 -54.5t59 -154.5q0 -101 -62.5 -158t-187.5 -57h-145v-296h-60z" />
    <glyph glyph-name="Q" unicode="Q" horiz-adv-x="757" 
d="M663 -94l-236 85q-24 -3 -49 -3q-144 0 -231 95t-87 287q0 176 89.5 269.5t235.5 93.5q138 0 225 -94t87 -269q0 -141 -48.5 -230t-134.5 -126l166 -57zM124 370q0 -163 69.5 -244.5t189.5 -81.5q116 0 183 81t67 245q0 147 -68.5 227t-183.5 80q-118 0 -187.5 -80
t-69.5 -227z" />
    <glyph glyph-name="R" unicode="R" horiz-adv-x="621" 
d="M88 720h216q121 0 180.5 -55t59.5 -152q0 -139 -123 -196l165 -317h-66l-158 304q-32 -7 -80 -7h-134v-297h-60v720zM303 666h-155v-318h147q188 0 188 164q0 77 -43.5 115.5t-136.5 38.5z" />
    <glyph glyph-name="S" unicode="S" horiz-adv-x="569" 
d="M37 92l36 40q99 -91 212 -91q73 0 120.5 38t47.5 105q0 61 -35 95t-135 65q-122 37 -172 80t-50 120q0 87 63 138t162 51q140 0 225 -104l-39 -36q-73 88 -186 88q-71 0 -116.5 -35t-45.5 -99q0 -16 2 -29.5t10 -25.5l13.5 -20t22.5 -18l25.5 -15t34 -15t37.5 -14l46 -16
q113 -40 157 -83.5t44 -121.5q0 -92 -64 -146.5t-171 -54.5q-145 0 -244 104z" />
    <glyph glyph-name="T" unicode="T" horiz-adv-x="558" 
d="M249 0v667h-230v53h520v-53h-229v-667h-61z" />
    <glyph glyph-name="U" unicode="U" horiz-adv-x="687" 
d="M83 720h60v-445q0 -116 53 -174.5t151 -58.5q106 0 151.5 58t45.5 175v445h60v-455q0 -277 -260 -277q-121 0 -191 69t-70 208v455z" />
    <glyph glyph-name="V" unicode="V" horiz-adv-x="586" 
d="M256 0l-235 720h63l208 -654l211 654h62l-236 -720h-73z" />
    <glyph glyph-name="W" unicode="W" horiz-adv-x="921" 
d="M215 0l-194 720h60l175 -644l174 644h63l174 -645l172 645h61l-193 -720h-73l-173 634l-173 -634h-73z" />
    <glyph glyph-name="X" unicode="X" horiz-adv-x="565" 
d="M21 0l226 368l-220 352h66l192 -306l186 306h68l-221 -356l225 -364h-69l-193 313l-191 -313h-69z" />
    <glyph glyph-name="Y" unicode="Y" horiz-adv-x="560" 
d="M248 0v310l-228 410h68l192 -349l192 349h68l-231 -410v-310h-61z" />
    <glyph glyph-name="Z" unicode="Z" horiz-adv-x="575" 
d="M40 0v41l408 626h-377v53h466v-27l-418 -640h417v-53h-496z" />
    <glyph glyph-name="bracketleft" unicode="[" horiz-adv-x="340" 
d="M265 -125h-169v845h169v-48h-112v-749h112v-48z" />
    <glyph glyph-name="backslash" unicode="\" horiz-adv-x="362" 
d="M85 739l245 -831h-52l-248 831h55z" />
    <glyph glyph-name="bracketright" unicode="]" horiz-adv-x="340" 
d="M244 -125h-169v48h112v749h-112v48h169v-845z" />
    <glyph glyph-name="asciicircum" unicode="^" horiz-adv-x="684" 
d="M369 693l237 -249l-36 -31l-228 236l-229 -236l-36 33l237 247h55z" />
    <glyph glyph-name="underscore" unicode="_" horiz-adv-x="496" 
d="M-1 -231v45h498v-45h-498z" />
    <glyph glyph-name="grave" unicode="`" horiz-adv-x="500" 
d="M202 746l137 -130l-26 -30l-146 122z" />
    <glyph glyph-name="a" unicode="a" horiz-adv-x="503" 
d="M377 219v28q-44 6 -81 6q-102 0 -147 -31t-45 -91q0 -44 28.5 -70.5t80.5 -26.5q67 0 115.5 60t48.5 125zM434 357v-357h-49l-4 105q-58 -117 -181 -117q-71 0 -112.5 39.5t-41.5 109.5q0 30 10.5 56t35 51.5t75.5 40.5t123 15q35 0 87 -5v57q0 66 -33.5 100t-97.5 34
q-75 0 -145 -64l-29 37q74 77 178 77q85 0 134.5 -44t49.5 -135z" />
    <glyph glyph-name="b" unicode="b" horiz-adv-x="569" 
d="M131 380v-246q24 -37 65.5 -65t95.5 -28q78 0 122 56t44 163q0 109 -40.5 166t-117.5 57q-52 0 -91.5 -27.5t-77.5 -75.5zM124 0h-50v720h57v-278q74 94 179 94q103 0 155.5 -73.5t52.5 -200.5t-55 -200.5t-165 -73.5q-62 0 -106.5 27.5t-64.5 58.5z" />
    <glyph glyph-name="c" unicode="c" horiz-adv-x="515" 
d="M444 100l25 -40q-80 -72 -189 -72q-106 0 -168 75.5t-62 201.5q0 128 65 199.5t165 71.5q87 0 138 -49t56 -136h-53q-9 66 -46 99.5t-94 33.5q-79 0 -125 -58.5t-46 -159.5q0 -95 46.5 -160.5t129.5 -65.5q47 0 80 13t78 47z" />
    <glyph glyph-name="d" unicode="d" horiz-adv-x="568" 
d="M441 0l-1 75q-70 -87 -176 -87q-107 0 -160.5 73.5t-53.5 199.5q0 125 56 200t159 75q99 0 173 -91v275h56v-720h-53zM437 132v248q-74 103 -165 103q-74 0 -118 -58.5t-44 -163.5q0 -92 40 -156t127 -64q86 0 160 91z" />
    <glyph glyph-name="e" unicode="e" horiz-adv-x="526" 
d="M445 99l26 -40q-79 -71 -187 -71q-110 0 -172 68t-62 204q0 126 63 201t169 75q198 0 198 -252v-35h-369q1 -97 45 -153t133 -56q84 0 156 59zM111 299h312q-3 187 -141 187q-39 0 -70 -14t-49 -35t-30.5 -47.5t-17 -49t-4.5 -41.5z" />
    <glyph glyph-name="f" unicode="f" horiz-adv-x="251" 
d="M90 0v475h-59v37l59 10v81q0 57 26.5 93t83.5 36q33 0 61 -8l-4 -45q-23 7 -47 7q-63 0 -63 -80v-82h99v-49h-99v-475h-57z" />
    <glyph glyph-name="g" unicode="g" horiz-adv-x="577" 
d="M494 524v-516q0 -122 -50 -170t-158 -48q-102 0 -185 32l14 50q82 -33 162 -33q95 0 128.5 41t33.5 138v55q-68 -83 -176 -83q-109 0 -161 75t-52 196t54.5 198t163.5 77q102 0 171 -94v82h55zM437 131v247q-24 39 -67 72t-94 33q-81 0 -123.5 -59t-42.5 -161
q0 -101 42 -161t123 -60q38 0 73.5 17.5t50.5 31.5t38 40z" />
    <glyph glyph-name="h" unicode="h" horiz-adv-x="535" 
d="M74 720h57v-277q80 93 176 93q158 0 158 -199v-337h-57v327q0 33 -4 57t-15 48.5t-34.5 37.5t-59.5 13q-88 0 -164 -98v-385h-57v720z" />
    <glyph glyph-name="i" unicode="i" horiz-adv-x="216" 
d="M66 669q0 17 12.5 28t30.5 11t29.5 -11t11.5 -28t-11.5 -28t-29.5 -11t-30.5 11t-12.5 28zM136 524v-524h-56v524h56z" />
    <glyph glyph-name="j" unicode="j" horiz-adv-x="217" 
d="M137 524v-603q0 -63 -22 -93.5t-81 -30.5q-39 0 -65 10l7 45q21 -7 47 -7q29 0 43 16t14 61v602h57zM67 669q0 18 12.5 29.5t30.5 11.5t29.5 -11.5t11.5 -29.5t-11.5 -29.5t-29.5 -11.5t-30.5 11.5t-12.5 29.5z" />
    <glyph glyph-name="k" unicode="k" horiz-adv-x="493" 
d="M131 720v-403h64l183 207h70l-204 -232l229 -292h-71l-210 266h-61v-266h-57v720h57z" />
    <glyph glyph-name="l" unicode="l" horiz-adv-x="205" 
d="M131 0h-57v720h57v-720z" />
    <glyph glyph-name="m" unicode="m" horiz-adv-x="793" 
d="M74 524h54v-83q73 95 165 95q102 0 129 -95q80 95 169 95q78 0 107.5 -47.5t29.5 -126.5v-362h-57v356q0 62 -21 94t-74 32q-68 0 -145 -94v-388h-58v354q0 63 -21 95.5t-73 32.5q-32 0 -65 -19.5t-47.5 -35t-35.5 -41.5v-386h-57v524z" />
    <glyph glyph-name="n" unicode="n" horiz-adv-x="535" 
d="M74 524h54v-81q78 93 176 93q89 0 125 -52.5t36 -147.5v-336h-57v329q0 79 -27.5 116.5t-88.5 37.5q-81 0 -161 -98v-385h-57v524z" />
    <glyph glyph-name="o" unicode="o" horiz-adv-x="565" 
d="M110 261q0 -108 47.5 -164t123.5 -56q77 0 125.5 56t48.5 164q0 109 -48.5 165.5t-125.5 56.5q-76 0 -123.5 -57t-47.5 -165zM50 260q0 128 62.5 202t168.5 74q107 0 170.5 -73t63.5 -202q0 -127 -64 -200t-172 -73t-168.5 72.5t-60.5 199.5z" />
    <glyph glyph-name="p" unicode="p" horiz-adv-x="572" 
d="M131 380v-249q68 -90 162 -90q78 0 121.5 56.5t43.5 162.5q0 108 -40.5 165.5t-117.5 57.5q-52 0 -91.5 -27.5t-77.5 -75.5zM131 -200h-57v724h55v-84q75 96 182 96q103 0 155 -73t52 -201q0 -126 -54.5 -200t-162.5 -74q-61 0 -105.5 26.5t-64.5 55.5v-270z" />
    <glyph glyph-name="q" unicode="q" horiz-adv-x="571" 
d="M437 -200v267q-73 -79 -172 -79q-108 0 -161.5 73.5t-53.5 199.5q0 125 56.5 200t160.5 75q100 0 174 -92v80h53v-724h-57zM437 130v251q-71 102 -165 102q-74 0 -118 -58.5t-44 -163.5q0 -92 40 -156t127 -64t160 89z" />
    <glyph glyph-name="r" unicode="r" horiz-adv-x="302" 
d="M125 524v-85q18 43 50 70t71 27q27 0 47 -7l-8 -57q-15 5 -42 5q-36 0 -65.5 -30.5t-46.5 -71.5v-375h-57v524h51z" />
    <glyph glyph-name="s" unicode="s" horiz-adv-x="462" 
d="M28 68l32 39q82 -69 165 -69q58 0 95.5 26.5t37.5 71.5q0 43 -29.5 67.5t-109.5 42.5q-91 21 -128.5 54.5t-37.5 91.5q0 67 48 105.5t130 38.5q111 0 182 -77l-32 -35q-64 63 -148 63q-56 0 -88 -23.5t-32 -65.5q0 -43 31 -64.5t106 -40.5q90 -23 129.5 -57.5t39.5 -93.5
q0 -70 -52.5 -112t-138.5 -42q-59 0 -112 22.5t-88 57.5z" />
    <glyph glyph-name="t" unicode="t" horiz-adv-x="283" 
d="M246 475h-100v-387q0 -29 10.5 -40.5t36.5 -11.5q28 0 62 15l13 -42q-44 -21 -83 -21q-95 0 -95 88v399h-64v37l64 12l10 139h46v-139h100v-49z" />
    <glyph glyph-name="u" unicode="u" horiz-adv-x="533" 
d="M459 0h-54v80q-74 -92 -176 -92q-47 0 -80 14.5t-49.5 42t-23.5 59t-7 72.5v348h58v-337q0 -74 25 -110t87 -36q85 0 163 97v386h57v-524z" />
    <glyph glyph-name="v" unicode="v" horiz-adv-x="462" 
d="M13 524h60l157 -462l162 462h57l-187 -524h-67z" />
    <glyph glyph-name="w" unicode="w" horiz-adv-x="706" 
d="M623 524h57l-128 -524h-62l-140 440l-136 -440h-61l-127 524h57l104 -452l135 446h57l141 -446z" />
    <glyph glyph-name="x" unicode="x" horiz-adv-x="463" 
d="M16 0l180 267l-175 257h65l146 -216l142 216h63l-172 -257l181 -267h-64l-151 227l-151 -227h-64z" />
    <glyph glyph-name="y" unicode="y" horiz-adv-x="459" 
d="M380 524h59l-190 -558q-17 -50 -27.5 -75t-27 -50t-38 -34t-52.5 -9q-48 0 -86 11l9 48q29 -9 69 -9q32 0 50.5 21t38.5 83l16 49l-187 523h63l153 -447z" />
    <glyph glyph-name="z" unicode="z" horiz-adv-x="422" 
d="M34 0v41l284 433h-277v50h352v-33l-288 -441h285v-50h-356z" />
    <glyph glyph-name="braceleft" unicode="{" horiz-adv-x="353" 
d="M331 674h-43q-48 0 -65.5 -30t-17.5 -95v-138q0 -56 -15.5 -86t-67.5 -43q52 -7 67.5 -41.5t15.5 -96.5v-98q0 -67 18.5 -96t72.5 -29h35v-46h-34q-84 0 -117 34.5t-33 116.5v118q0 58 -18 85.5t-68 27.5h-26v50h25q52 0 69.5 29.5t17.5 101.5v109q0 92 31 132.5
t115 40.5h38v-46z" />
    <glyph glyph-name="bar" unicode="|" horiz-adv-x="500" 
d="M275 720v-920h-51v920h51z" />
    <glyph glyph-name="braceright" unicode="}" horiz-adv-x="353" 
d="M65 674h-43v46h38q84 0 115 -40.5t31 -132.5v-109q0 -72 17.5 -101.5t69.5 -29.5h25v-50h-26q-50 0 -68 -27.5t-18 -85.5v-118q0 -82 -33 -116.5t-117 -34.5h-34v46h35q54 0 72.5 29t18.5 96v98q0 30 2.5 49.5t10 40t25 32.5t45.5 16q-52 13 -67.5 43t-15.5 86v138
q0 65 -17.5 95t-65.5 30z" />
    <glyph glyph-name="asciitilde" unicode="~" horiz-adv-x="780" 
d="M690 344l30 -37q-96 -78 -184 -78q-53 0 -145 35t-134 35t-78 -17t-80 -52l-29 39q96 78 191 78q56 0 148 -35t125 -35q39 0 73.5 15.5t82.5 51.5z" />
    <glyph glyph-name="uni00A0" unicode="&#xa0;" horiz-adv-x="200" 
 />
    <glyph glyph-name="exclamdown" unicode="&#xa1;" horiz-adv-x="311" 
d="M125 45l8 284h47l8 -284v-242h-63v242zM110 491q0 20 13 32t33 12q19 0 32 -12.5t13 -32.5t-13 -32t-32 -12q-20 0 -33 12t-13 33z" />
    <glyph glyph-name="cent" unicode="&#xa2;" horiz-adv-x="526" 
d="M457 190l27 -38q-72 -65 -166 -73v-97h-46v96q-98 7 -155 82t-57 195q0 122 59 191.5t153 75.5v98h46v-99q74 -7 117 -55.5t50 -126.5h-53q-8 68 -45.5 101.5t-95.5 33.5q-79 0 -124.5 -58.5t-45.5 -159.5q0 -97 46 -163t129 -66q46 0 81 15t80 48z" />
    <glyph glyph-name="sterling" unicode="&#xa3;" horiz-adv-x="506" 
d="M227 218q0 -77 -71 -166h299v-52h-410v49l48 2q79 91 79 167q0 39 -28 109h-97v47h81q-21 43 -30 63t-18 50.5t-9 55.5q0 81 57.5 129t140.5 48q123 0 190 -83l-37 -33q-54 65 -147 65q-66 0 -105.5 -33t-39.5 -96q0 -20 8 -47.5t17.5 -48.5l31.5 -70h159v-47h-144
q25 -66 25 -109z" />
    <glyph glyph-name="currency" unicode="&#xa4;" 
d="M451 336q0 63 -44 106.5t-107 43.5t-107 -43.5t-44 -106.5q0 -64 43.5 -108t107.5 -44q62 0 106.5 44.5t44.5 107.5zM52 555l29 30l97 -97q55 43 123 43t121 -43l97 97l30 -30l-98 -98q45 -53 45 -121t-44 -122l98 -97l-30 -30l-98 97q-53 -43 -121 -43t-123 43
q-89 -89 -98 -97l-29 30l98 97q-44 50 -44 122q0 67 44 121z" />
    <glyph glyph-name="yen" unicode="&#xa5;" horiz-adv-x="565" 
d="M522 709l-187 -317h169v-46h-195v-79h195v-46h-195v-221h-55v221h-194v46h194v79h-194v46h168l-186 317h64l176 -307l178 307h62z" />
    <glyph glyph-name="brokenbar" unicode="&#xa6;" horiz-adv-x="500" 
d="M275 204v-404h-51v404h51zM275 720v-404h-51v404h51z" />
    <glyph glyph-name="section" unicode="&#xa7;" horiz-adv-x="524" 
d="M85 65l33 35q72 -66 145 -66q44 0 79.5 21.5t35.5 64.5q0 20 -9.5 35t-30.5 26t-37.5 17t-48.5 15q-31 9 -47 14.5t-42 18t-38.5 26t-23 35.5t-10.5 49q0 43 30 79t91 43q-119 33 -119 125q0 53 44 91.5t118 38.5q49 0 94.5 -18.5t70.5 -49.5l-30 -30q-59 54 -131 54
q-48 0 -78.5 -22.5t-30.5 -59.5q0 -18 8.5 -33t17.5 -23.5t32.5 -18.5t33.5 -13l42 -13q36 -11 57.5 -20t47.5 -25.5t38.5 -42t12.5 -60.5q0 -51 -33 -81t-82 -37q57 -21 83.5 -48.5t26.5 -68.5q0 -58 -47 -96.5t-121 -38.5q-51 0 -100.5 20t-81.5 57zM261 450
q-57 0 -87.5 -24.5t-30.5 -68.5q0 -38 38.5 -62.5t92.5 -26.5q112 4 112 92q0 42 -37 66t-88 24z" />
    <glyph glyph-name="dieresis" unicode="&#xa8;" horiz-adv-x="500" 
d="M299 654q0 17 12.5 29t30.5 12t30 -12t12 -29t-12 -28.5t-30 -11.5q-19 0 -31 11.5t-12 28.5zM121 654q0 17 12.5 29t30.5 12t30 -12t12 -29t-12 -28.5t-30 -11.5q-19 0 -31 11.5t-12 28.5z" />
    <glyph glyph-name="copyright" unicode="&#xa9;" horiz-adv-x="810" 
d="M519 253l24 -26q-57 -62 -139 -62q-80 0 -121 55.5t-41 142.5q0 85 43.5 140.5t122.5 55.5q59 0 95.5 -33t37.5 -92h-39q-4 42 -26 64.5t-70 22.5q-58 0 -89.5 -42.5t-31.5 -113.5q0 -82 32.5 -122t90.5 -40q59 0 111 50zM405 684q-139 0 -229.5 -93t-90.5 -231
q0 -154 92 -238.5t228 -84.5q126 0 224 93.5t98 229.5q0 143 -91.5 233.5t-230.5 90.5zM405 720q158 0 259 -99.5t101 -256.5q0 -154 -107.5 -259t-252.5 -105q-99 0 -179 39t-130.5 122t-50.5 199q0 154 104 257t256 103z" />
    <glyph glyph-name="ordfeminine" unicode="&#xaa;" horiz-adv-x="466" 
d="M324 419v20q-45 5 -67 5q-75 0 -108.5 -19.5t-33.5 -59.5q0 -32 22.5 -50t59.5 -18q51 0 89 37t38 85zM372 522v-258h-46v68q-19 -36 -55 -56.5t-80 -20.5q-57 0 -91.5 28.5t-34.5 78.5q0 51 41.5 86.5t146.5 35.5q29 0 71 -5v35q0 46 -25.5 71t-69.5 25q-66 0 -125 -47
l-23 35q69 55 152 55q62 0 100.5 -32.5t38.5 -98.5z" />
    <glyph glyph-name="guillemotleft" unicode="&#xab;" horiz-adv-x="458" 
d="M230 387l-123 -126l123 -127l-29 -26l-155 144v17l155 146zM422 387l-123 -126l123 -127l-29 -26l-155 144v17l155 146z" />
    <glyph glyph-name="logicalnot" unicode="&#xac;" 
d="M568 128h-47v208h-489v45h536v-253z" />
    <glyph glyph-name="uni00AD" unicode="&#xad;" horiz-adv-x="338" 
d="M36 252v51h266v-51h-266z" />
    <glyph glyph-name="registered" unicode="&#xae;" horiz-adv-x="422" 
d="M148 638h68q61 0 61 -52q0 -34 -31 -48l42 -75h-29l-38 68h-47v-68h-26v175zM210 616h-36v-64h33q44 0 44 33q0 17 -9.5 24t-31.5 7zM211 694q-61 0 -101.5 -41.5t-40.5 -103.5q0 -69 39 -107t103 -38q57 0 99.5 42.5t42.5 102.5q0 64 -39 104.5t-103 40.5zM211 724
q78 0 126.5 -49t48.5 -126q0 -74 -52.5 -124.5t-122.5 -50.5q-77 0 -126 47t-49 128q0 75 50.5 125t124.5 50z" />
    <glyph glyph-name="macron" unicode="&#xaf;" horiz-adv-x="500" 
d="M115 627v47h270v-47h-270z" />
    <glyph glyph-name="degree" unicode="&#xb0;" horiz-adv-x="307" 
d="M82 658q0 -33 20.5 -54.5t51.5 -21.5t51 21.5t20 54.5q0 31 -19.5 51t-51.5 20q-31 0 -51.5 -20t-20.5 -51zM40 657q0 47 33.5 80t80.5 33q46 0 79.5 -33t33.5 -80q0 -48 -33 -80.5t-80 -32.5q-48 0 -81 32.5t-33 80.5z" />
    <glyph glyph-name="plusminus" unicode="&#xb1;" 
d="M325 561v-239h236v-47h-236v-228h235v-47h-520v47h235v228h-237v47h237v239h50z" />
    <glyph glyph-name="twosuperior" unicode="&#xb2;" horiz-adv-x="299" 
d="M18 400v36l142 148q27 28 37.5 46t10.5 44q0 55 -63 55q-54 0 -111 -46l-23 34q65 56 138 56q51 0 81 -25t30 -68q0 -55 -51 -109l-125 -128h181v-43h-247z" />
    <glyph glyph-name="threesuperior" unicode="&#xb3;" horiz-adv-x="314" 
d="M14 443l25 32q52 -40 108 -40q84 0 84 65q0 67 -96 67q-3 0 -10 -0.5t-13 -0.5h-6v42q47 1 74.5 19t27.5 52q0 53 -69 53q-47 0 -91 -28l-18 34q53 35 118 35q51 0 80 -22.5t29 -66.5q0 -33 -20 -57.5t-55 -33.5q98 -7 98 -93q0 -50 -36.5 -78.5t-94.5 -28.5
q-84 0 -135 50z" />
    <glyph glyph-name="acute" unicode="&#xb4;" horiz-adv-x="500" 
d="M166 616l138 130l34 -39l-146 -121z" />
    <glyph glyph-name="mu" unicode="&#xb5;" horiz-adv-x="566" 
d="M473 0h-53v82q-46 -93 -147 -93q-48 0 -78.5 16.5t-53.5 51.5v-257h-56v724h56v-320q0 -169 134 -169q63 0 102 49t39 100v340h57v-524z" />
    <glyph glyph-name="paragraph" unicode="&#xb6;" horiz-adv-x="533" 
d="M445 720v-720h-53v672h-107v-672h-53v371q-87 5 -136.5 51.5t-49.5 122.5q0 78 54 126.5t144 48.5h201z" />
    <glyph glyph-name="periodcentered" unicode="&#xb7;" horiz-adv-x="267" 
d="M85 339q0 23 13.5 35.5t34.5 12.5q22 0 35.5 -12.5t13.5 -34.5t-14 -35t-35 -13t-34.5 13t-13.5 34z" />
    <glyph glyph-name="cedilla" unicode="&#xb8;" horiz-adv-x="500" 
d="M165 -186l11 34q38 -14 66 -14q50 0 50 39q0 22 -17 29.5t-55 7.5h-9l22 99h36l-14 -67q33 -1 56.5 -16t23.5 -50q0 -40 -25 -59.5t-66 -19.5q-45 0 -79 17z" />
    <glyph glyph-name="onesuperior" unicode="&#xb9;" horiz-adv-x="240" 
d="M175 400h-50v298q-55 -23 -100 -27l-6 37q73 14 121 60h35v-368z" />
    <glyph glyph-name="ordmasculine" unicode="&#xba;" horiz-adv-x="472" 
d="M110 454q0 -78 34.5 -117t91.5 -39t92 39t35 117t-35.5 118t-91.5 40q-57 0 -91.5 -40t-34.5 -118zM62 454q0 93 47 146t127 53q82 0 128.5 -52.5t46.5 -146.5q0 -92 -48.5 -145.5t-126.5 -53.5q-82 0 -128 52t-46 147z" />
    <glyph glyph-name="guillemotright" unicode="&#xbb;" horiz-adv-x="459" 
d="M159 261l-123 126l29 28l155 -146v-17l-155 -144l-29 26zM352 261l-123 126l29 28l155 -146v-17l-155 -144l-29 26z" />
    <glyph glyph-name="onequarter" unicode="&#xbc;" horiz-adv-x="822" 
d="M137 -1l437 721h52l-436 -721h-53zM204 350h-50v298q-55 -23 -100 -27l-6 37q73 14 121 60h35v-368zM649 322l-140 -201h140v201zM649 0v79h-194v39l174 250h67v-247h46v-42h-46v-79h-47z" />
    <glyph glyph-name="onehalf" unicode="&#xbd;" horiz-adv-x="822" 
d="M95 -1l437 721h52l-436 -721h-53zM199 350h-50v298q-55 -23 -100 -27l-6 37q73 14 121 60h35v-368zM454 0v36l142 148q27 28 37.5 46t10.5 44q0 55 -63 55q-53 0 -111 -46l-23 34q65 56 138 56q51 0 81 -25t30 -68q0 -55 -51 -109l-125 -128h181v-43h-247z" />
    <glyph glyph-name="threequarters" unicode="&#xbe;" horiz-adv-x="822" 
d="M194 -1l437 721h52l-436 -721h-53zM680 322l-140 -201h140v201zM680 0v79h-194v39l174 250h67v-247h46v-42h-46v-79h-47zM78 393l25 32q52 -40 108 -40q84 0 84 65q0 67 -96 67q-3 0 -10 -0.5t-13 -0.5h-6v42q47 1 74.5 19t27.5 52q0 53 -69 53q-47 0 -91 -28l-18 34
q53 35 118 35q51 0 80 -22.5t29 -66.5q0 -33 -20 -57.5t-55 -33.5q98 -7 98 -93q0 -50 -36.5 -78.5t-94.5 -28.5q-84 0 -135 50z" />
    <glyph glyph-name="questiondown" unicode="&#xbf;" horiz-adv-x="516" 
d="M294 330v-24q0 -47 -18 -86.5t-43.5 -67.5l-51.5 -54t-44 -57.5t-18 -67.5q0 -61 35.5 -95t103.5 -34q70 0 109.5 42t39.5 116h56q0 -99 -54 -154.5t-156 -55.5q-85 0 -140 46.5t-55 125.5q0 43 19 80.5t46 66l53.5 56.5t45.5 63.5t19 75.5v24h53zM314 492q0 -21 -13 -33
t-33 -12q-19 0 -32 12t-13 32t13 32.5t32 12.5q20 0 33 -12t13 -32z" />
    <glyph glyph-name="Agrave" unicode="&#xc0;" horiz-adv-x="633" 
d="M285 720h62l265 -720h-64l-81 220h-301l-80 -220h-65zM183 274h266l-133 374zM246 886l167 -94l-20 -35l-170 83z" />
    <glyph glyph-name="Aacute" unicode="&#xc1;" horiz-adv-x="633" 
d="M285 720h62l265 -720h-64l-81 220h-301l-80 -220h-65zM183 274h266l-133 374zM223 792l165 95l24 -47l-171 -83z" />
    <glyph glyph-name="Acircumflex" unicode="&#xc2;" horiz-adv-x="633" 
d="M285 720h62l265 -720h-64l-81 220h-301l-80 -220h-65zM183 274h266l-133 374zM296 868h44l87 -87l-24 -24l-85 67l-84 -68l-26 25z" />
    <glyph glyph-name="Atilde" unicode="&#xc3;" horiz-adv-x="633" 
d="M285 720h62l265 -720h-64l-81 220h-301l-80 -220h-65zM183 274h266l-133 374zM422 862l33 -14q-19 -64 -72 -64q-26 0 -69.5 17t-56.5 17t-21 -7t-21 -30l-34 15q27 66 77 66q22 0 61.5 -17.5t59.5 -17.5q15 0 24.5 7t18.5 28z" />
    <glyph glyph-name="Adieresis" unicode="&#xc4;" horiz-adv-x="633" 
d="M285 720h62l265 -720h-64l-81 220h-301l-80 -220h-65zM183 274h266l-133 374zM363 819q0 17 12.5 29t30.5 12t30 -12t12 -29t-12 -28.5t-30 -11.5q-19 0 -31 11.5t-12 28.5zM185 819q0 17 12.5 29t30.5 12t30 -12t12 -29t-12 -28.5t-30 -11.5q-19 0 -31 11.5t-12 28.5z
" />
    <glyph glyph-name="Aring" unicode="&#xc5;" horiz-adv-x="633" 
d="M226 794q0 39 26.5 64.5t65.5 25.5q40 0 66 -24t26 -63q0 -32 -16.5 -54.5t-43.5 -30.5l262 -712h-64l-81 220h-301l-80 -220h-65l261 713q-56 20 -56 81zM183 274h266l-133 374zM267 794q0 -24 14 -37.5t37 -13.5q24 0 38.5 15t14.5 39t-14 37t-39 13q-23 0 -37 -14.5
t-14 -38.5z" />
    <glyph glyph-name="AE" unicode="&#xc6;" horiz-adv-x="979" 
d="M474 0v227h-259l-127 -227h-68l403 720h492v-53h-381v-269h348v-53h-348v-293h390v-52h-450zM242 280h232v387h-17z" />
    <glyph glyph-name="Ccedilla" unicode="&#xc7;" horiz-adv-x="647" 
d="M278 -187l11 34q38 -14 66 -14q50 0 50 39q0 22 -17 29.5t-55 7.5h-9l17 80q-72 4 -127 35t-88 82.5t-49.5 116t-16.5 140.5q0 77 19 143t56 117t96 80.5t134 29.5q104 0 172 -59t70 -156h-59q-6 68 -51 114t-133 46q-113 0 -176.5 -85.5t-63.5 -226.5q0 -155 65 -239
t175 -84q67 0 115.5 24.5t92.5 69.5l36 -40q-93 -102 -230 -108l-10 -48q33 -1 56.5 -16t23.5 -50q0 -40 -25 -59.5t-66 -19.5q-45 0 -79 17z" />
    <glyph glyph-name="Egrave" unicode="&#xc8;" horiz-adv-x="593" 
d="M88 0v720h441v-53h-381v-269h348v-54h-348v-292h390v-52h-450zM223 886l167 -94l-20 -35l-170 83z" />
    <glyph glyph-name="Eacute" unicode="&#xc9;" horiz-adv-x="593" 
d="M88 0v720h441v-53h-381v-269h348v-54h-348v-292h390v-52h-450zM231 792l165 95l24 -47l-171 -83z" />
    <glyph glyph-name="Ecircumflex" unicode="&#xca;" horiz-adv-x="593" 
d="M88 0v720h441v-53h-381v-269h348v-54h-348v-292h390v-52h-450zM291 868h44l87 -87l-24 -24l-85 67l-84 -68l-26 25z" />
    <glyph glyph-name="Edieresis" unicode="&#xcb;" horiz-adv-x="593" 
d="M88 0v720h441v-53h-381v-269h348v-54h-348v-292h390v-52h-450zM357 819q0 17 12.5 29t30.5 12t30 -12t12 -29t-12 -28.5t-30 -11.5q-19 0 -31 11.5t-12 28.5zM179 819q0 17 12.5 29t30.5 12t30 -12t12 -29t-12 -28.5t-30 -11.5q-19 0 -31 11.5t-12 28.5z" />
    <glyph glyph-name="Igrave" unicode="&#xcc;" horiz-adv-x="236" 
d="M88 0v720h60v-720h-60zM47 886l167 -94l-20 -35l-170 83z" />
    <glyph glyph-name="Iacute" unicode="&#xcd;" horiz-adv-x="236" 
d="M88 0v720h60v-720h-60zM24 792l165 95l24 -47l-171 -83z" />
    <glyph glyph-name="Icircumflex" unicode="&#xce;" horiz-adv-x="236" 
d="M88 0v720h60v-720h-60zM97 868h44l87 -87l-24 -24l-85 67l-84 -68l-26 25z" />
    <glyph glyph-name="Idieresis" unicode="&#xcf;" horiz-adv-x="236" 
d="M88 0v720h60v-720h-60zM168 819q0 17 12.5 29t30.5 12t30 -12t12 -29t-12 -28.5t-30 -11.5q-19 0 -31 11.5t-12 28.5zM-10 819q0 17 12.5 29t30.5 12t30 -12t12 -29t-12 -28.5t-30 -11.5q-19 0 -31 11.5t-12 28.5z" />
    <glyph glyph-name="Eth" unicode="&#xd0;" horiz-adv-x="703" 
d="M13 340v51h87v329h191q174 0 263 -88t89 -273q0 -189 -90 -274t-271 -85h-182v340h-87zM296 665h-136v-274h202v-51h-202v-285h136q148 0 216 76.5t68 227.5t-68.5 228.5t-215.5 77.5z" />
    <glyph glyph-name="Ntilde" unicode="&#xd1;" horiz-adv-x="698" 
d="M88 0v720h58l404 -615v615h60v-720h-56l-406 616v-616h-60zM453 862l33 -14q-19 -64 -72 -64q-26 0 -69.5 17t-56.5 17t-21 -7t-21 -30l-34 15q27 66 77 66q22 0 61.5 -17.5t59.5 -17.5q15 0 24.5 7t18.5 28z" />
    <glyph glyph-name="Ograve" unicode="&#xd2;" horiz-adv-x="757" 
d="M124 370q0 -163 69.5 -244.5t189.5 -81.5q116 0 183 81t67 245q0 147 -68.5 227t-183.5 80q-118 0 -187.5 -80t-69.5 -227zM60 370q0 176 89.5 269.5t235.5 93.5q138 0 225 -94t87 -269q0 -193 -87.5 -287.5t-231.5 -94.5t-231 95t-87 287zM307 886l167 -94l-20 -35
l-170 83z" />
    <glyph glyph-name="Oacute" unicode="&#xd3;" horiz-adv-x="757" 
d="M124 370q0 -163 69.5 -244.5t189.5 -81.5q116 0 183 81t67 245q0 147 -68.5 227t-183.5 80q-118 0 -187.5 -80t-69.5 -227zM60 370q0 176 89.5 269.5t235.5 93.5q138 0 225 -94t87 -269q0 -193 -87.5 -287.5t-231.5 -94.5t-231 95t-87 287zM284 792l165 95l24 -47
l-171 -83z" />
    <glyph glyph-name="Ocircumflex" unicode="&#xd4;" horiz-adv-x="757" 
d="M124 370q0 -163 69.5 -244.5t189.5 -81.5q116 0 183 81t67 245q0 147 -68.5 227t-183.5 80q-118 0 -187.5 -80t-69.5 -227zM60 370q0 176 89.5 269.5t235.5 93.5q138 0 225 -94t87 -269q0 -193 -87.5 -287.5t-231.5 -94.5t-231 95t-87 287zM358 868h44l87 -87l-24 -24
l-85 67l-84 -68l-26 25z" />
    <glyph glyph-name="Otilde" unicode="&#xd5;" horiz-adv-x="757" 
d="M124 370q0 -163 69.5 -244.5t189.5 -81.5q116 0 183 81t67 245q0 147 -68.5 227t-183.5 80q-118 0 -187.5 -80t-69.5 -227zM60 370q0 176 89.5 269.5t235.5 93.5q138 0 225 -94t87 -269q0 -193 -87.5 -287.5t-231.5 -94.5t-231 95t-87 287zM484 862l33 -14
q-19 -64 -72 -64q-26 0 -69.5 17t-56.5 17t-21 -7t-21 -30l-34 15q27 66 77 66q22 0 61.5 -17.5t59.5 -17.5q15 0 24.5 7t18.5 28z" />
    <glyph glyph-name="Odieresis" unicode="&#xd6;" horiz-adv-x="757" 
d="M124 370q0 -163 69.5 -244.5t189.5 -81.5q116 0 183 81t67 245q0 147 -68.5 227t-183.5 80q-118 0 -187.5 -80t-69.5 -227zM60 370q0 176 89.5 269.5t235.5 93.5q138 0 225 -94t87 -269q0 -193 -87.5 -287.5t-231.5 -94.5t-231 95t-87 287zM428 819q0 17 12.5 29t30.5 12
t30 -12t12 -29t-12 -28.5t-30 -11.5q-19 0 -31 11.5t-12 28.5zM250 819q0 17 12.5 29t30.5 12t30 -12t12 -29t-12 -28.5t-30 -11.5q-19 0 -31 11.5t-12 28.5z" />
    <glyph glyph-name="multiply" unicode="&#xd7;" 
d="M502 458l-168 -167l168 -167l-34 -36l-168 168l-168 -168l-35 37l169 167l-169 167l34 36l168 -168l168 168z" />
    <glyph glyph-name="Oslash" unicode="&#xd8;" horiz-adv-x="757" 
d="M60 370q0 176 89.5 269.5t235.5 93.5q31 0 70 -7l15 51h56l-19 -66q88 -35 139 -122t51 -219q0 -193 -87.5 -287.5t-231.5 -94.5q-33 0 -73 7l-17 -60h-55l21 74q-91 34 -142.5 124.5t-51.5 236.5zM124 370q0 -237 146 -304l170 605q-28 6 -59 6q-118 0 -187.5 -80
t-69.5 -227zM633 370q0 107 -37.5 179t-104.5 104l-171 -603q30 -6 63 -6q116 0 183 81t67 245z" />
    <glyph glyph-name="Ugrave" unicode="&#xd9;" horiz-adv-x="687" 
d="M83 720h60v-445q0 -116 53 -174.5t151 -58.5q106 0 151.5 58t45.5 175v445h60v-455q0 -277 -260 -277q-121 0 -191 69t-70 208v455zM272 886l167 -94l-20 -35l-170 83z" />
    <glyph glyph-name="Uacute" unicode="&#xda;" horiz-adv-x="687" 
d="M83 720h60v-445q0 -116 53 -174.5t151 -58.5q106 0 151.5 58t45.5 175v445h60v-455q0 -277 -260 -277q-121 0 -191 69t-70 208v455zM267 792l165 95l24 -47l-171 -83z" />
    <glyph glyph-name="Ucircumflex" unicode="&#xdb;" horiz-adv-x="687" 
d="M83 720h60v-445q0 -116 53 -174.5t151 -58.5q106 0 151.5 58t45.5 175v445h60v-455q0 -277 -260 -277q-121 0 -191 69t-70 208v455zM323 868h44l87 -87l-24 -24l-85 67l-84 -68l-26 25z" />
    <glyph glyph-name="Udieresis" unicode="&#xdc;" horiz-adv-x="687" 
d="M83 720h60v-445q0 -116 53 -174.5t151 -58.5q106 0 151.5 58t45.5 175v445h60v-455q0 -277 -260 -277q-121 0 -191 69t-70 208v455zM393 819q0 17 12.5 29t30.5 12t30 -12t12 -29t-12 -28.5t-30 -11.5q-19 0 -31 11.5t-12 28.5zM215 819q0 17 12.5 29t30.5 12t30 -12
t12 -29t-12 -28.5t-30 -11.5q-19 0 -31 11.5t-12 28.5z" />
    <glyph glyph-name="Yacute" unicode="&#xdd;" horiz-adv-x="560" 
d="M248 0v310l-228 410h68l192 -349l192 349h68l-231 -410v-310h-61zM210 792l165 95l24 -47l-171 -83z" />
    <glyph glyph-name="Thorn" unicode="&#xde;" horiz-adv-x="589" 
d="M79 0v720h60v-123h157q107 0 171.5 -50t64.5 -162q0 -104 -67 -158t-181 -54h-145v-173h-60zM293 542h-154v-319h139q195 0 195 163q0 80 -43 118t-137 38z" />
    <glyph glyph-name="germandbls" unicode="&#xdf;" horiz-adv-x="535" 
d="M90 0v475h-59v37l59 10v13q0 92 50 138.5t132 46.5q90 0 135.5 -44.5t45.5 -123.5q0 -67 -42 -114t-114 -59q195 -21 195 -196q0 -91 -47.5 -143t-132.5 -52q-72 0 -109 28l20 43q41 -22 86 -22q54 0 88 37t34 110q0 80 -49 117.5t-145 50.5v50q70 7 113 44.5t43 105.5
q0 118 -125 118q-122 0 -122 -142v-528h-56z" />
    <glyph glyph-name="agrave" unicode="&#xe0;" horiz-adv-x="503" 
d="M377 219v28q-44 6 -81 6q-102 0 -147 -31t-45 -91q0 -44 28.5 -70.5t80.5 -26.5q67 0 115.5 60t48.5 125zM434 357v-357h-49l-4 105q-58 -117 -181 -117q-71 0 -112.5 39.5t-41.5 109.5q0 30 10.5 56t35 51.5t75.5 40.5t123 15q35 0 87 -5v57q0 66 -33.5 100t-97.5 34
q-75 0 -145 -64l-29 37q74 77 178 77q85 0 134.5 -44t49.5 -135zM185 746l137 -130l-26 -30l-146 122z" />
    <glyph glyph-name="aacute" unicode="&#xe1;" horiz-adv-x="503" 
d="M377 219v28q-44 6 -81 6q-102 0 -147 -31t-45 -91q0 -44 28.5 -70.5t80.5 -26.5q67 0 115.5 60t48.5 125zM434 357v-357h-49l-4 105q-58 -117 -181 -117q-71 0 -112.5 39.5t-41.5 109.5q0 30 10.5 56t35 51.5t75.5 40.5t123 15q35 0 87 -5v57q0 66 -33.5 100t-97.5 34
q-75 0 -145 -64l-29 37q74 77 178 77q85 0 134.5 -44t49.5 -135zM171 616l138 130l34 -39l-146 -121z" />
    <glyph glyph-name="acircumflex" unicode="&#xe2;" horiz-adv-x="503" 
d="M377 219v28q-44 6 -81 6q-102 0 -147 -31t-45 -91q0 -44 28.5 -70.5t80.5 -26.5q67 0 115.5 60t48.5 125zM434 357v-357h-49l-4 105q-58 -117 -181 -117q-71 0 -112.5 39.5t-41.5 109.5q0 30 10.5 56t35 51.5t75.5 40.5t123 15q35 0 87 -5v57q0 66 -33.5 100t-97.5 34
q-75 0 -145 -64l-29 37q74 77 178 77q85 0 134.5 -44t49.5 -135zM224 753h43l106 -149l-30 -21l-97 121l-97 -120l-30 20z" />
    <glyph glyph-name="atilde" unicode="&#xe3;" horiz-adv-x="503" 
d="M377 219v28q-44 6 -81 6q-102 0 -147 -31t-45 -91q0 -44 28.5 -70.5t80.5 -26.5q67 0 115.5 60t48.5 125zM434 357v-357h-49l-4 105q-58 -117 -181 -117q-71 0 -112.5 39.5t-41.5 109.5q0 30 10.5 56t35 51.5t75.5 40.5t123 15q35 0 87 -5v57q0 66 -33.5 100t-97.5 34
q-75 0 -145 -64l-29 37q74 77 178 77q85 0 134.5 -44t49.5 -135zM349 690l33 -14q-19 -64 -72 -64q-26 0 -69.5 17t-56.5 17t-21 -7t-21 -30l-34 15q27 66 77 66q22 0 61.5 -17.5t59.5 -17.5q15 0 24.5 7t18.5 28z" />
    <glyph glyph-name="adieresis" unicode="&#xe4;" horiz-adv-x="503" 
d="M377 219v28q-44 6 -81 6q-102 0 -147 -31t-45 -91q0 -44 28.5 -70.5t80.5 -26.5q67 0 115.5 60t48.5 125zM434 357v-357h-49l-4 105q-58 -117 -181 -117q-71 0 -112.5 39.5t-41.5 109.5q0 30 10.5 56t35 51.5t75.5 40.5t123 15q35 0 87 -5v57q0 66 -33.5 100t-97.5 34
q-75 0 -145 -64l-29 37q74 77 178 77q85 0 134.5 -44t49.5 -135zM294 654q0 17 12.5 29t30.5 12t30 -12t12 -29t-12 -28.5t-30 -11.5q-19 0 -31 11.5t-12 28.5zM116 654q0 17 12.5 29t30.5 12t30 -12t12 -29t-12 -28.5t-30 -11.5q-19 0 -31 11.5t-12 28.5z" />
    <glyph glyph-name="aring" unicode="&#xe5;" horiz-adv-x="503" 
d="M377 219v28q-44 6 -81 6q-102 0 -147 -31t-45 -91q0 -44 28.5 -70.5t80.5 -26.5q67 0 115.5 60t48.5 125zM434 357v-357h-49l-4 105q-58 -117 -181 -117q-71 0 -112.5 39.5t-41.5 109.5q0 30 10.5 56t35 51.5t75.5 40.5t123 15q35 0 87 -5v57q0 66 -33.5 100t-97.5 34
q-75 0 -145 -64l-29 37q74 77 178 77q85 0 134.5 -44t49.5 -135zM201 661q0 -23 13.5 -36t35.5 -13q23 0 36.5 14.5t13.5 37.5q0 22 -13.5 35t-36.5 13q-22 0 -35.5 -14t-13.5 -37zM160 661q0 38 26 63t64 25q39 0 64.5 -23.5t25.5 -61.5q0 -39 -25 -63t-65 -24t-65 23
t-25 61z" />
    <glyph glyph-name="ae" unicode="&#xe6;" horiz-adv-x="850" 
d="M769 99l26 -40q-79 -71 -187 -71q-149 0 -202 121q-30 -61 -84 -91t-113 -30q-77 0 -120.5 39.5t-43.5 111.5q0 29 10.5 55t35 52t74.5 41t121 15q42 0 90 -6v57q0 67 -33.5 101t-94.5 34q-89 0 -155 -63l-27 36q84 75 183 75q133 0 171 -103q62 103 186 103
q198 0 198 -252v-35h-369q1 -97 45 -153t133 -56q84 0 156 59zM377 205v47q-33 6 -69 6q-112 0 -158.5 -31t-46.5 -92q0 -45 31 -72.5t79 -27.5q69 0 116.5 49t47.5 121zM435 299h312q-3 187 -141 187q-39 0 -70 -14t-49 -35t-30.5 -47.5t-17 -49t-4.5 -41.5z" />
    <glyph glyph-name="ccedilla" unicode="&#xe7;" horiz-adv-x="511" 
d="M194 -186l11 34q38 -14 66 -14q50 0 50 39q0 22 -17 29.5t-55 7.5h-9l17 79q-96 8 -151.5 83t-55.5 193q0 128 65 199.5t165 71.5q87 0 138 -49t56 -136h-53q-9 66 -46 99.5t-94 33.5q-79 0 -125 -58.5t-46 -159.5q0 -95 46.5 -160.5t129.5 -65.5q47 0 80 13t78 47
l25 -40q-76 -67 -176 -72l-9 -46q33 -1 56.5 -16t23.5 -50q0 -40 -25 -59.5t-66 -19.5q-45 0 -79 17z" />
    <glyph glyph-name="egrave" unicode="&#xe8;" horiz-adv-x="526" 
d="M445 99l26 -40q-79 -71 -187 -71q-110 0 -172 68t-62 204q0 126 63 201t169 75q198 0 198 -252v-35h-369q1 -97 45 -153t133 -56q84 0 156 59zM111 299h312q-3 187 -141 187q-39 0 -70 -14t-49 -35t-30.5 -47.5t-17 -49t-4.5 -41.5zM211 746l137 -130l-26 -30l-146 122z
" />
    <glyph glyph-name="eacute" unicode="&#xe9;" horiz-adv-x="526" 
d="M445 99l26 -40q-79 -71 -187 -71q-110 0 -172 68t-62 204q0 126 63 201t169 75q198 0 198 -252v-35h-369q1 -97 45 -153t133 -56q84 0 156 59zM111 299h312q-3 187 -141 187q-39 0 -70 -14t-49 -35t-30.5 -47.5t-17 -49t-4.5 -41.5zM198 616l138 130l34 -39l-146 -121z
" />
    <glyph glyph-name="ecircumflex" unicode="&#xea;" horiz-adv-x="526" 
d="M445 99l26 -40q-79 -71 -187 -71q-110 0 -172 68t-62 204q0 126 63 201t169 75q198 0 198 -252v-35h-369q1 -97 45 -153t133 -56q84 0 156 59zM111 299h312q-3 187 -141 187q-39 0 -70 -14t-49 -35t-30.5 -47.5t-17 -49t-4.5 -41.5zM251 753h43l106 -149l-30 -21l-97 121
l-97 -120l-30 20z" />
    <glyph glyph-name="edieresis" unicode="&#xeb;" horiz-adv-x="526" 
d="M445 99l26 -40q-79 -71 -187 -71q-110 0 -172 68t-62 204q0 126 63 201t169 75q198 0 198 -252v-35h-369q1 -97 45 -153t133 -56q84 0 156 59zM111 299h312q-3 187 -141 187q-39 0 -70 -14t-49 -35t-30.5 -47.5t-17 -49t-4.5 -41.5zM321 654q0 17 12.5 29t30.5 12t30 -12
t12 -29t-12 -28.5t-30 -11.5q-19 0 -31 11.5t-12 28.5zM143 654q0 17 12.5 29t30.5 12t30 -12t12 -29t-12 -28.5t-30 -11.5q-19 0 -31 11.5t-12 28.5z" />
    <glyph glyph-name="igrave" unicode="&#xec;" horiz-adv-x="217" 
d="M51 746l137 -130l-26 -30l-146 122zM137 523v-523h-57v523h57z" />
    <glyph glyph-name="iacute" unicode="&#xed;" horiz-adv-x="217" 
d="M32 616l138 130l34 -39l-146 -121zM137 523v-523h-57v523h57z" />
    <glyph glyph-name="icircumflex" unicode="&#xee;" horiz-adv-x="217" 
d="M137 523v-523h-57v523h57zM88 753h43l106 -149l-30 -21l-97 121l-97 -120l-30 20z" />
    <glyph glyph-name="idieresis" unicode="&#xef;" horiz-adv-x="217" 
d="M158 654q0 17 12.5 29t30.5 12t30 -12t12 -29t-12 -28.5t-30 -11.5q-19 0 -31 11.5t-12 28.5zM-20 654q0 17 12.5 29t30.5 12t30 -12t12 -29t-12 -28.5t-30 -11.5q-19 0 -31 11.5t-12 28.5zM137 523v-523h-57v523h57z" />
    <glyph glyph-name="eth" unicode="&#xf0;" horiz-adv-x="524" 
d="M232 519l-27 38l84 56q-58 44 -139 64l13 44q101 -21 171 -78l94 63l27 -40l-86 -56q104 -113 104 -319q0 -141 -55.5 -222t-161.5 -81q-97 0 -151.5 60t-54.5 161q0 97 51.5 161.5t145.5 64.5q102 0 171 -79q-14 141 -93 224zM255 40q76 0 120 63.5t43 192.5
q-24 25 -41 40.5t-51 32t-69 16.5q-63 0 -105 -44.5t-42 -130.5q0 -84 41 -127t104 -43z" />
    <glyph glyph-name="ntilde" unicode="&#xf1;" horiz-adv-x="535" 
d="M74 524h54v-81q78 93 176 93q89 0 125 -52.5t36 -147.5v-336h-57v329q0 79 -27.5 116.5t-88.5 37.5q-81 0 -161 -98v-385h-57v524zM375 690l33 -14q-19 -64 -72 -64q-26 0 -69.5 17t-56.5 17t-21 -7t-21 -30l-34 15q27 66 77 66q22 0 61.5 -17.5t59.5 -17.5q15 0 24.5 7
t18.5 28z" />
    <glyph glyph-name="ograve" unicode="&#xf2;" horiz-adv-x="565" 
d="M110 261q0 -108 47.5 -164t123.5 -56q77 0 125.5 56t48.5 164q0 109 -48.5 165.5t-125.5 56.5q-76 0 -123.5 -57t-47.5 -165zM50 260q0 128 62.5 202t168.5 74q107 0 170.5 -73t63.5 -202q0 -127 -64 -200t-172 -73t-168.5 72.5t-60.5 199.5zM230 746l137 -130l-26 -30
l-146 122z" />
    <glyph glyph-name="oacute" unicode="&#xf3;" horiz-adv-x="565" 
d="M110 261q0 -108 47.5 -164t123.5 -56q77 0 125.5 56t48.5 164q0 109 -48.5 165.5t-125.5 56.5q-76 0 -123.5 -57t-47.5 -165zM50 260q0 128 62.5 202t168.5 74q107 0 170.5 -73t63.5 -202q0 -127 -64 -200t-172 -73t-168.5 72.5t-60.5 199.5zM203 616l138 130l34 -39
l-146 -121z" />
    <glyph glyph-name="ocircumflex" unicode="&#xf4;" horiz-adv-x="565" 
d="M110 261q0 -108 47.5 -164t123.5 -56q77 0 125.5 56t48.5 164q0 109 -48.5 165.5t-125.5 56.5q-76 0 -123.5 -57t-47.5 -165zM50 260q0 128 62.5 202t168.5 74q107 0 170.5 -73t63.5 -202q0 -127 -64 -200t-172 -73t-168.5 72.5t-60.5 199.5zM257 753h43l106 -149
l-30 -21l-97 121l-97 -120l-30 20z" />
    <glyph glyph-name="otilde" unicode="&#xf5;" horiz-adv-x="565" 
d="M110 261q0 -108 47.5 -164t123.5 -56q77 0 125.5 56t48.5 164q0 109 -48.5 165.5t-125.5 56.5q-76 0 -123.5 -57t-47.5 -165zM50 260q0 128 62.5 202t168.5 74q107 0 170.5 -73t63.5 -202q0 -127 -64 -200t-172 -73t-168.5 72.5t-60.5 199.5zM383 690l33 -14
q-19 -64 -72 -64q-26 0 -69.5 17t-56.5 17t-21 -7t-21 -30l-34 15q27 66 77 66q22 0 61.5 -17.5t59.5 -17.5q15 0 24.5 7t18.5 28z" />
    <glyph glyph-name="odieresis" unicode="&#xf6;" horiz-adv-x="565" 
d="M110 261q0 -108 47.5 -164t123.5 -56q77 0 125.5 56t48.5 164q0 109 -48.5 165.5t-125.5 56.5q-76 0 -123.5 -57t-47.5 -165zM50 260q0 128 62.5 202t168.5 74q107 0 170.5 -73t63.5 -202q0 -127 -64 -200t-172 -73t-168.5 72.5t-60.5 199.5zM327 654q0 17 12.5 29
t30.5 12t30 -12t12 -29t-12 -28.5t-30 -11.5q-19 0 -31 11.5t-12 28.5zM149 654q0 17 12.5 29t30.5 12t30 -12t12 -29t-12 -28.5t-30 -11.5q-19 0 -31 11.5t-12 28.5z" />
    <glyph glyph-name="divide" unicode="&#xf7;" 
d="M299 513q17 0 29 -12.5t12 -30.5q0 -17 -12 -29t-29 -12q-16 0 -28.5 12.5t-12.5 28.5q0 17 12.5 30t28.5 13zM40 275v47h520v-47h-520zM299 172q17 0 29 -12.5t12 -29.5t-12 -29.5t-29 -12.5q-16 0 -28.5 13t-12.5 29q0 17 12.5 29.5t28.5 12.5z" />
    <glyph glyph-name="oslash" unicode="&#xf8;" horiz-adv-x="565" 
d="M50 260q0 128 62.5 202t168.5 74q25 0 52 -5l19 61h57l-24 -79q62 -29 96 -94t34 -158q0 -127 -64 -200t-172 -73q-25 0 -52 5l-20 -65h-55l24 81q-61 29 -93.5 93.5t-32.5 157.5zM455 261q0 144 -86 198l-126 -414q16 -4 38 -4q77 0 125.5 56t48.5 164zM110 261
q0 -143 83 -196l125 414q-24 4 -37 4q-76 0 -123.5 -57t-47.5 -165z" />
    <glyph glyph-name="ugrave" unicode="&#xf9;" horiz-adv-x="533" 
d="M459 0h-54v80q-74 -92 -176 -92q-47 0 -80 14.5t-49.5 42t-23.5 59t-7 72.5v348h58v-337q0 -74 25 -110t87 -36q85 0 163 97v386h57v-524zM212 746l137 -130l-26 -30l-146 122z" />
    <glyph glyph-name="uacute" unicode="&#xfa;" horiz-adv-x="533" 
d="M459 0h-54v80q-74 -92 -176 -92q-47 0 -80 14.5t-49.5 42t-23.5 59t-7 72.5v348h58v-337q0 -74 25 -110t87 -36q85 0 163 97v386h57v-524zM197 616l138 130l34 -39l-146 -121z" />
    <glyph glyph-name="ucircumflex" unicode="&#xfb;" horiz-adv-x="533" 
d="M459 0h-54v80q-74 -92 -176 -92q-47 0 -80 14.5t-49.5 42t-23.5 59t-7 72.5v348h58v-337q0 -74 25 -110t87 -36q85 0 163 97v386h57v-524zM245 753h43l106 -149l-30 -21l-97 121l-97 -120l-30 20z" />
    <glyph glyph-name="udieresis" unicode="&#xfc;" horiz-adv-x="533" 
d="M459 0h-54v80q-74 -92 -176 -92q-47 0 -80 14.5t-49.5 42t-23.5 59t-7 72.5v348h58v-337q0 -74 25 -110t87 -36q85 0 163 97v386h57v-524zM315 654q0 17 12.5 29t30.5 12t30 -12t12 -29t-12 -28.5t-30 -11.5q-19 0 -31 11.5t-12 28.5zM137 654q0 17 12.5 29t30.5 12
t30 -12t12 -29t-12 -28.5t-30 -11.5q-19 0 -31 11.5t-12 28.5z" />
    <glyph glyph-name="yacute" unicode="&#xfd;" horiz-adv-x="459" 
d="M380 524h59l-190 -558q-17 -50 -27.5 -75t-27 -50t-38 -34t-52.5 -9q-48 0 -86 11l9 48q29 -9 69 -9q32 0 50.5 21t38.5 83l16 49l-187 523h63l153 -447zM174 616l138 130l34 -39l-146 -121z" />
    <glyph glyph-name="thorn" unicode="&#xfe;" horiz-adv-x="572" 
d="M131 382v-253q65 -90 161 -90q78 0 122 57t44 164q0 109 -41 167t-119 58q-94 0 -167 -103zM131 -200h-57v920h56v-281q76 97 182 97q103 0 154.5 -73t51.5 -201q0 -126 -54.5 -200t-162.5 -74q-61 0 -105.5 26.5t-64.5 55.5v-270z" />
    <glyph glyph-name="ydieresis" unicode="&#xff;" horiz-adv-x="459" 
d="M380 524h59l-190 -558q-17 -50 -27.5 -75t-27 -50t-38 -34t-52.5 -9q-48 0 -86 11l9 48q29 -9 69 -9q32 0 50.5 21t38.5 83l16 49l-187 523h63l153 -447zM282 654q0 17 12.5 29t30.5 12t30 -12t12 -29t-12 -28.5t-30 -11.5q-19 0 -31 11.5t-12 28.5zM104 654
q0 17 12.5 29t30.5 12t30 -12t12 -29t-12 -28.5t-30 -11.5q-19 0 -31 11.5t-12 28.5z" />
    <glyph glyph-name="Amacron" unicode="&#x100;" horiz-adv-x="633" 
d="M285 720h62l265 -720h-64l-81 220h-301l-80 -220h-65zM183 274h266l-133 374zM182 795v47h270v-47h-270z" />
    <glyph glyph-name="amacron" unicode="&#x101;" horiz-adv-x="503" 
d="M377 219v28q-44 6 -81 6q-102 0 -147 -31t-45 -91q0 -44 28.5 -70.5t80.5 -26.5q67 0 115.5 60t48.5 125zM434 357v-357h-49l-4 105q-58 -117 -181 -117q-71 0 -112.5 39.5t-41.5 109.5q0 30 10.5 56t35 51.5t75.5 40.5t123 15q35 0 87 -5v57q0 66 -33.5 100t-97.5 34
q-75 0 -145 -64l-29 37q74 77 178 77q85 0 134.5 -44t49.5 -135zM117 627v47h270v-47h-270z" />
    <glyph glyph-name="Abreve" unicode="&#x102;" horiz-adv-x="633" 
d="M285 720h62l265 -720h-64l-81 220h-301l-80 -220h-65zM183 274h266l-133 374zM317 813q48 0 70 19t29 64l41 -8q-12 -117 -141 -117q-62 0 -95.5 27.5t-43.5 87.5l42 9q8 -44 30.5 -63t67.5 -19z" />
    <glyph glyph-name="abreve" unicode="&#x103;" horiz-adv-x="503" 
d="M377 219v28q-44 6 -81 6q-102 0 -147 -31t-45 -91q0 -44 28.5 -70.5t80.5 -26.5q67 0 115.5 60t48.5 125zM434 357v-357h-49l-4 105q-58 -117 -181 -117q-71 0 -112.5 39.5t-41.5 109.5q0 30 10.5 56t35 51.5t75.5 40.5t123 15q35 0 87 -5v57q0 66 -33.5 100t-97.5 34
q-75 0 -145 -64l-29 37q74 77 178 77q85 0 134.5 -44t49.5 -135zM245 637q50 0 71.5 22.5t27.5 69.5l41 -8q-10 -125 -140 -125q-65 0 -98 29t-43 95l42 9q9 -51 30.5 -71.5t68.5 -20.5z" />
    <glyph glyph-name="Aogonek" unicode="&#x104;" horiz-adv-x="633" 
d="M285 720h62l265 -720q-94 -78 -94 -136q0 -39 42 -39q24 0 59 19l18 -33q-45 -30 -88 -30q-39 0 -61 20t-22 54q0 67 82 145l-81 220h-301l-80 -220h-65zM183 274h266l-133 374z" />
    <glyph glyph-name="aogonek" unicode="&#x105;" horiz-adv-x="503" 
d="M434 357v-357q-91 -79 -91 -136q0 -39 42 -39q24 0 59 19l18 -33q-45 -30 -88 -30q-39 0 -61 20t-22 54q0 74 93 152l-3 98q-58 -117 -181 -117q-71 0 -112.5 39.5t-41.5 109.5q0 30 10.5 56t35 51.5t75.5 40.5t123 15q35 0 87 -5v57q0 66 -33.5 100t-97.5 34
q-75 0 -145 -64l-29 37q74 77 178 77q85 0 134.5 -44t49.5 -135zM377 219v28q-44 6 -81 6q-102 0 -147 -31t-45 -91q0 -44 28.5 -70.5t80.5 -26.5q67 0 115.5 60t48.5 125z" />
    <glyph glyph-name="Cacute" unicode="&#x106;" horiz-adv-x="647" 
d="M572 137l36 -40q-99 -109 -247 -109q-150 0 -225.5 106t-75.5 269q0 77 19 143t56 117t96 80.5t134 29.5q104 0 172 -59t70 -156h-59q-6 68 -51 114t-133 46q-113 0 -176.5 -85.5t-63.5 -226.5q0 -155 65 -239t175 -84q67 0 115.5 24.5t92.5 69.5zM271 792l165 95l24 -47
l-171 -83z" />
    <glyph glyph-name="cacute" unicode="&#x107;" horiz-adv-x="511" 
d="M444 100l25 -40q-80 -72 -189 -72q-106 0 -168 75.5t-62 201.5q0 128 65 199.5t165 71.5q87 0 138 -49t56 -136h-53q-9 66 -46 99.5t-94 33.5q-79 0 -125 -58.5t-46 -159.5q0 -95 46.5 -160.5t129.5 -65.5q47 0 80 13t78 47zM201 616l138 130l34 -39l-146 -121z" />
    <glyph glyph-name="Ccircumflex" unicode="&#x108;" horiz-adv-x="647" 
d="M572 137l36 -40q-99 -109 -247 -109q-150 0 -225.5 106t-75.5 269q0 77 19 143t56 117t96 80.5t134 29.5q104 0 172 -59t70 -156h-59q-6 68 -51 114t-133 46q-113 0 -176.5 -85.5t-63.5 -226.5q0 -155 65 -239t175 -84q67 0 115.5 24.5t92.5 69.5zM335 868h44l87 -87
l-24 -24l-85 67l-84 -68l-26 25z" />
    <glyph glyph-name="ccircumflex" unicode="&#x109;" horiz-adv-x="511" 
d="M444 100l25 -40q-80 -72 -189 -72q-106 0 -168 75.5t-62 201.5q0 128 65 199.5t165 71.5q87 0 138 -49t56 -136h-53q-9 66 -46 99.5t-94 33.5q-79 0 -125 -58.5t-46 -159.5q0 -95 46.5 -160.5t129.5 -65.5q47 0 80 13t78 47zM256 753h43l106 -149l-30 -21l-97 121
l-97 -120l-30 20z" />
    <glyph glyph-name="Cdotaccent" unicode="&#x10a;" horiz-adv-x="647" 
d="M572 137l36 -40q-99 -109 -247 -109q-150 0 -225.5 106t-75.5 269q0 77 19 143t56 117t96 80.5t134 29.5q104 0 172 -59t70 -156h-59q-6 68 -51 114t-133 46q-113 0 -176.5 -85.5t-63.5 -226.5q0 -155 65 -239t175 -84q67 0 115.5 24.5t92.5 69.5zM318 822q0 17 12.5 28
t30.5 11q17 0 29 -11t12 -28t-12 -28t-29 -11q-18 0 -30.5 11t-12.5 28z" />
    <glyph glyph-name="cdotaccent" unicode="&#x10b;" horiz-adv-x="511" 
d="M444 100l25 -40q-80 -72 -189 -72q-106 0 -168 75.5t-62 201.5q0 128 65 199.5t165 71.5q87 0 138 -49t56 -136h-53q-9 66 -46 99.5t-94 33.5q-79 0 -125 -58.5t-46 -159.5q0 -95 46.5 -160.5t129.5 -65.5q47 0 80 13t78 47zM235 669q0 17 12.5 28t30.5 11q17 0 29 -11
t12 -28t-12 -28t-29 -11q-18 0 -30.5 11t-12.5 28z" />
    <glyph glyph-name="Ccaron" unicode="&#x10c;" horiz-adv-x="647" 
d="M572 137l36 -40q-99 -109 -247 -109q-150 0 -225.5 106t-75.5 269q0 77 19 143t56 117t96 80.5t134 29.5q104 0 172 -59t70 -156h-59q-6 68 -51 114t-133 46q-113 0 -176.5 -85.5t-63.5 -226.5q0 -155 65 -239t175 -84q67 0 115.5 24.5t92.5 69.5zM385 767h-44l-88 87
l26 25l84 -68l85 67l24 -24z" />
    <glyph glyph-name="ccaron" unicode="&#x10d;" horiz-adv-x="511" 
d="M444 100l25 -40q-80 -72 -189 -72q-106 0 -168 75.5t-62 201.5q0 128 65 199.5t165 71.5q87 0 138 -49t56 -136h-53q-9 66 -46 99.5t-94 33.5q-79 0 -125 -58.5t-46 -159.5q0 -95 46.5 -160.5t129.5 -65.5q47 0 80 13t78 47zM301 591h-43l-105 149l31 21l96 -121l97 121
l30 -21z" />
    <glyph glyph-name="Dcaron" unicode="&#x10e;" horiz-adv-x="691" 
d="M284 665h-136v-610h136q148 0 216 76.5t68 227.5t-68.5 228.5t-215.5 77.5zM88 720h191q174 0 263 -88t89 -273q0 -189 -90 -274t-271 -85h-182v720zM325 767h-44l-88 87l26 25l84 -68l85 67l24 -24z" />
    <glyph glyph-name="dcaron" unicode="&#x10f;" horiz-adv-x="626" 
d="M441 0l-1 75q-70 -87 -176 -87q-107 0 -160.5 73.5t-53.5 199.5q0 125 56 200t159 75q99 0 173 -91v275h56v-720h-53zM437 132v248q-74 103 -165 103q-74 0 -118 -58.5t-44 -163.5q0 -92 40 -156t127 -64q86 0 160 91zM540 538l37 182h57l-51 -182h-43z" />
    <glyph glyph-name="Dcroat" unicode="&#x110;" horiz-adv-x="703" 
d="M13 340v51h87v329h191q174 0 263 -88t89 -273q0 -189 -90 -274t-271 -85h-182v340h-87zM296 665h-136v-274h202v-51h-202v-285h136q148 0 216 76.5t68 227.5t-68.5 228.5t-215.5 77.5z" />
    <glyph glyph-name="dcroat" unicode="&#x111;" horiz-adv-x="568" 
d="M261 595v42h177v83h56v-83h69v-42h-69v-595h-53v71q-67 -83 -177 -83q-107 0 -160.5 67t-53.5 190q0 120 56 190.5t158 70.5q104 0 174 -88v177h-177zM437 130v221q-28 38 -72.5 70t-100.5 32q-68 0 -110 -54.5t-42 -153.5q0 -89 37 -146.5t118 -57.5q97 0 170 89z" />
    <glyph glyph-name="Emacron" unicode="&#x112;" horiz-adv-x="593" 
d="M88 0v720h441v-53h-381v-269h348v-54h-348v-292h390v-52h-450zM176 795v47h270v-47h-270z" />
    <glyph glyph-name="emacron" unicode="&#x113;" horiz-adv-x="526" 
d="M445 99l26 -40q-79 -71 -187 -71q-110 0 -172 68t-62 204q0 126 63 201t169 75q198 0 198 -252v-35h-369q1 -97 45 -153t133 -56q84 0 156 59zM111 299h312q-3 187 -141 187q-39 0 -70 -14t-49 -35t-30.5 -47.5t-17 -49t-4.5 -41.5zM149 627v47h270v-47h-270z" />
    <glyph glyph-name="Ebreve" unicode="&#x114;" horiz-adv-x="593" 
d="M88 0v720h441v-53h-381v-269h348v-54h-348v-292h390v-52h-450zM312 813q48 0 70 19t29 64l41 -8q-12 -117 -141 -117q-62 0 -95.5 27.5t-43.5 87.5l42 9q8 -44 30.5 -63t67.5 -19z" />
    <glyph glyph-name="ebreve" unicode="&#x115;" horiz-adv-x="526" 
d="M445 99l26 -40q-79 -71 -187 -71q-110 0 -172 68t-62 204q0 126 63 201t169 75q198 0 198 -252v-35h-369q1 -97 45 -153t133 -56q84 0 156 59zM111 299h312q-3 187 -141 187q-39 0 -70 -14t-49 -35t-30.5 -47.5t-17 -49t-4.5 -41.5zM284 637q50 0 71.5 22.5t27.5 69.5
l41 -8q-10 -125 -140 -125q-65 0 -98 29t-43 95l42 9q9 -51 30.5 -71.5t68.5 -20.5z" />
    <glyph glyph-name="Edotaccent" unicode="&#x116;" horiz-adv-x="593" 
d="M88 0v720h441v-53h-381v-269h348v-54h-348v-292h390v-52h-450zM269 822q0 17 12.5 28t30.5 11q17 0 29 -11t12 -28t-12 -28t-29 -11q-18 0 -30.5 11t-12.5 28z" />
    <glyph glyph-name="edotaccent" unicode="&#x117;" horiz-adv-x="526" 
d="M445 99l26 -40q-79 -71 -187 -71q-110 0 -172 68t-62 204q0 126 63 201t169 75q198 0 198 -252v-35h-369q1 -97 45 -153t133 -56q84 0 156 59zM111 299h312q-3 187 -141 187q-39 0 -70 -14t-49 -35t-30.5 -47.5t-17 -49t-4.5 -41.5zM242 669q0 17 12.5 28t30.5 11
q17 0 29 -11t12 -28t-12 -28t-29 -11q-18 0 -30.5 11t-12.5 28z" />
    <glyph glyph-name="Eogonek" unicode="&#x118;" horiz-adv-x="593" 
d="M80 0v720h441v-53h-381v-269h348v-54h-348v-292h390v-52h-27q-91 -79 -91 -136q0 -39 42 -39q24 0 59 19l18 -33q-45 -30 -88 -30q-39 0 -61 20t-22 54q0 70 85 145h-365z" />
    <glyph glyph-name="eogonek" unicode="&#x119;" horiz-adv-x="526" 
d="M445 99l26 -40q-17 -16 -69 -51q-45 -30 -73 -70t-28 -74q0 -39 42 -39q24 0 59 19l18 -33q-45 -30 -88 -30q-39 0 -61 20t-22 54q0 64 74 136q-19 -3 -39 -3q-110 0 -172 68t-62 204q0 126 63 201t169 75q198 0 198 -252v-35h-369q1 -97 45 -153t133 -56q84 0 156 59z
M111 299h312q-3 187 -141 187q-39 0 -70 -14t-49 -35t-30.5 -47.5t-17 -49t-4.5 -41.5z" />
    <glyph glyph-name="Ecaron" unicode="&#x11a;" horiz-adv-x="593" 
d="M88 0v720h441v-53h-381v-269h348v-54h-348v-292h390v-52h-450zM335 767h-44l-88 87l26 25l84 -68l85 67l24 -24z" />
    <glyph glyph-name="ecaron" unicode="&#x11b;" horiz-adv-x="526" 
d="M445 99l26 -40q-79 -71 -187 -71q-110 0 -172 68t-62 204q0 126 63 201t169 75q198 0 198 -252v-35h-369q1 -97 45 -153t133 -56q84 0 156 59zM111 299h312q-3 187 -141 187q-39 0 -70 -14t-49 -35t-30.5 -47.5t-17 -49t-4.5 -41.5zM299 591h-43l-105 149l31 21l96 -121
l97 121l30 -21z" />
    <glyph glyph-name="Gcircumflex" unicode="&#x11c;" horiz-adv-x="712" 
d="M421 309v52h222v-259q-95 -114 -262 -114q-163 0 -242 103t-79 274q0 168 84.5 268t238.5 100q134 0 194 -60.5t62 -149.5h-61q-2 67 -50.5 110.5t-148.5 43.5q-123 0 -189 -88t-66 -223q0 -155 67.5 -239.5t192.5 -84.5q122 0 205 86v181h-168zM357 868h44l87 -87
l-24 -24l-85 67l-84 -68l-26 25z" />
    <glyph glyph-name="gcircumflex" unicode="&#x11d;" horiz-adv-x="577" 
d="M494 524v-516q0 -122 -50 -170t-158 -48q-102 0 -185 32l14 50q82 -33 162 -33q95 0 128.5 41t33.5 138v55q-68 -83 -176 -83q-109 0 -161 75t-52 196t54.5 198t163.5 77q102 0 171 -94v82h55zM437 131v247q-24 39 -67 72t-94 33q-81 0 -123.5 -59t-42.5 -161
q0 -101 42 -161t123 -60q38 0 73.5 17.5t50.5 31.5t38 40zM262 753h43l106 -149l-30 -21l-97 121l-97 -120l-30 20z" />
    <glyph glyph-name="Gbreve" unicode="&#x11e;" horiz-adv-x="712" 
d="M421 309v52h222v-259q-95 -114 -262 -114q-163 0 -242 103t-79 274q0 168 84.5 268t238.5 100q134 0 194 -60.5t62 -149.5h-61q-2 67 -50.5 110.5t-148.5 43.5q-123 0 -189 -88t-66 -223q0 -155 67.5 -239.5t192.5 -84.5q122 0 205 86v181h-168zM380 813q48 0 70 19
t29 64l41 -8q-12 -117 -141 -117q-62 0 -95.5 27.5t-43.5 87.5l42 9q8 -44 30.5 -63t67.5 -19z" />
    <glyph glyph-name="gbreve" unicode="&#x11f;" horiz-adv-x="577" 
d="M494 524v-516q0 -122 -50 -170t-158 -48q-102 0 -185 32l14 50q82 -33 162 -33q95 0 128.5 41t33.5 138v55q-68 -83 -176 -83q-109 0 -161 75t-52 196t54.5 198t163.5 77q102 0 171 -94v82h55zM437 131v247q-24 39 -67 72t-94 33q-81 0 -123.5 -59t-42.5 -161
q0 -101 42 -161t123 -60q38 0 73.5 17.5t50.5 31.5t38 40zM282 637q50 0 71.5 22.5t27.5 69.5l41 -8q-10 -125 -140 -125q-65 0 -98 29t-43 95l42 9q9 -51 30.5 -71.5t68.5 -20.5z" />
    <glyph glyph-name="Gdotaccent" unicode="&#x120;" horiz-adv-x="712" 
d="M421 309v52h222v-259q-95 -114 -262 -114q-163 0 -242 103t-79 274q0 168 84.5 268t238.5 100q134 0 194 -60.5t62 -149.5h-61q-2 67 -50.5 110.5t-148.5 43.5q-123 0 -189 -88t-66 -223q0 -155 67.5 -239.5t192.5 -84.5q122 0 205 86v181h-168zM342 822q0 17 12.5 28
t30.5 11q17 0 29 -11t12 -28t-12 -28t-29 -11q-18 0 -30.5 11t-12.5 28z" />
    <glyph glyph-name="gdotaccent" unicode="&#x121;" horiz-adv-x="577" 
d="M494 524v-516q0 -122 -50 -170t-158 -48q-102 0 -185 32l14 50q82 -33 162 -33q95 0 128.5 41t33.5 138v55q-68 -83 -176 -83q-109 0 -161 75t-52 196t54.5 198t163.5 77q102 0 171 -94v82h55zM437 131v247q-24 39 -67 72t-94 33q-81 0 -123.5 -59t-42.5 -161
q0 -101 42 -161t123 -60q38 0 73.5 17.5t50.5 31.5t38 40zM240 669q0 17 12.5 28t30.5 11q17 0 29 -11t12 -28t-12 -28t-29 -11q-18 0 -30.5 11t-12.5 28z" />
    <glyph glyph-name="Gcommaaccent" unicode="&#x122;" horiz-adv-x="712" 
d="M421 309v52h222v-259q-95 -114 -262 -114q-163 0 -242 103t-79 274q0 168 84.5 268t238.5 100q134 0 194 -60.5t62 -149.5h-61q-2 67 -50.5 110.5t-148.5 43.5q-123 0 -189 -88t-66 -223q0 -155 67.5 -239.5t192.5 -84.5q122 0 205 86v181h-168zM315 -216l41 156l54 -11
l-56 -155z" />
    <glyph glyph-name="gcommaaccent" unicode="&#x123;" horiz-adv-x="577" 
d="M494 524v-516q0 -122 -50 -170t-158 -48q-102 0 -185 32l14 50q82 -33 162 -33q95 0 128.5 41t33.5 138v55q-68 -83 -176 -83q-109 0 -161 75t-52 196t54.5 198t163.5 77q102 0 171 -94v82h55zM437 131v247q-24 39 -67 72t-94 33q-81 0 -123.5 -59t-42.5 -161
q0 -101 42 -161t123 -60q38 0 73.5 17.5t50.5 31.5t38 40zM343 749l-43 -160l-54 14l56 156z" />
    <glyph glyph-name="Hcircumflex" unicode="&#x124;" horiz-adv-x="694" 
d="M88 0v720h60v-314h397v314h61v-720h-61v352h-397v-352h-60zM326 868h44l87 -87l-24 -24l-85 67l-84 -68l-26 25z" />
    <glyph glyph-name="hcircumflex" unicode="&#x125;" horiz-adv-x="535" 
d="M74 720h57v-277q80 93 176 93q158 0 158 -199v-337h-57v327q0 33 -4 57t-15 48.5t-34.5 37.5t-59.5 13q-88 0 -164 -98v-385h-57v720zM78 842h44l87 -87l-24 -24l-85 67l-84 -68l-26 25z" />
    <glyph glyph-name="Hbar" unicode="&#x126;" horiz-adv-x="718" 
d="M37 557v42h63v121h61v-121h397v121h60v-121h63v-42h-63v-557h-60v352h-397v-352h-61v557h-63zM161 406h397v151h-397v-151z" />
    <glyph glyph-name="hbar" unicode="&#x127;" horiz-adv-x="535" 
d="M74 720h57v-84h176v-39h-176v-197q78 96 176 96q158 0 158 -200v-296h-57v288q0 34 -4 58.5t-15 50t-36 39t-63 13.5q-81 0 -159 -102v-347h-57v597h-70v39h70v84z" />
    <glyph glyph-name="Itilde" unicode="&#x128;" horiz-adv-x="236" 
d="M88 0v720h60v-720h-60zM223 862l33 -14q-19 -64 -72 -64q-26 0 -69.5 17t-56.5 17t-21 -7t-21 -30l-34 15q27 66 77 66q22 0 61.5 -17.5t59.5 -17.5q15 0 24.5 7t18.5 28z" />
    <glyph glyph-name="itilde" unicode="&#x129;" horiz-adv-x="217" 
d="M213 690l33 -14q-19 -64 -72 -64q-26 0 -69.5 17t-56.5 17t-21 -7t-21 -30l-34 15q27 66 77 66q22 0 61.5 -17.5t59.5 -17.5q15 0 24.5 7t18.5 28zM137 523v-523h-57v523h57z" />
    <glyph glyph-name="Imacron" unicode="&#x12a;" horiz-adv-x="236" 
d="M88 0v720h60v-720h-60zM-17 795v47h270v-47h-270z" />
    <glyph glyph-name="imacron" unicode="&#x12b;" horiz-adv-x="217" 
d="M-26 627v47h270v-47h-270zM137 523v-523h-57v523h57z" />
    <glyph glyph-name="Ibreve" unicode="&#x12c;" horiz-adv-x="236" 
d="M88 0v720h60v-720h-60zM118 813q48 0 70 19t29 64l41 -8q-12 -117 -141 -117q-62 0 -95.5 27.5t-43.5 87.5l42 9q8 -44 30.5 -63t67.5 -19z" />
    <glyph glyph-name="ibreve" unicode="&#x12d;" horiz-adv-x="217" 
d="M109 637q50 0 71.5 22.5t27.5 69.5l41 -8q-10 -125 -140 -125q-65 0 -98 29t-43 95l42 9q9 -51 30.5 -71.5t68.5 -20.5zM137 523v-523h-57v523h57z" />
    <glyph glyph-name="Iogonek" unicode="&#x12e;" horiz-adv-x="236" 
d="M88 0v720h60v-720q-91 -79 -91 -136q0 -39 42 -39q24 0 59 19l18 -33q-45 -30 -88 -30q-39 0 -61 20t-22 54q0 68 83 145z" />
    <glyph glyph-name="iogonek" unicode="&#x12f;" horiz-adv-x="215" 
d="M136 524l-1 -524q-91 -79 -91 -136q0 -39 42 -39q24 0 59 19l18 -33q-45 -30 -88 -30q-39 0 -61 20t-22 54q0 71 88 147v522h56zM66 669q0 17 12.5 28t30.5 11t29.5 -11t11.5 -28t-11.5 -28t-29.5 -11t-30.5 11t-12.5 28z" />
    <glyph glyph-name="Idotaccent" unicode="&#x130;" horiz-adv-x="236" 
d="M88 0v720h60v-720h-60zM76 822q0 17 12.5 28t30.5 11q17 0 29 -11t12 -28t-12 -28t-29 -11q-18 0 -30.5 11t-12.5 28z" />
    <glyph glyph-name="dotlessi" unicode="&#x131;" horiz-adv-x="217" 
d="M137 523v-523h-57v523h57z" />
    <glyph glyph-name="IJ" unicode="&#x132;" horiz-adv-x="638" 
d="M88 0v720h60v-720h-60zM556 720v-568q0 -84 -37.5 -124t-114.5 -40q-76 0 -133 28l15 49q58 -25 117 -25q49 0 70.5 27.5t21.5 99.5v553h61z" />
    <glyph glyph-name="ij" unicode="&#x133;" horiz-adv-x="451" 
d="M66 669q0 17 12.5 28t30.5 11t29.5 -11t11.5 -28t-11.5 -28t-29.5 -11t-30.5 11t-12.5 28zM136 524v-524h-56v524h56zM371 524v-603q0 -63 -22 -93.5t-81 -30.5q-39 0 -65 10l7 45q21 -7 47 -7q29 0 43 16t14 61v602h57zM301 669q0 18 12.5 29.5t30.5 11.5t29.5 -11.5
t11.5 -29.5t-11.5 -29.5t-29.5 -11.5t-30.5 11.5t-12.5 29.5z" />
    <glyph glyph-name="Jcircumflex" unicode="&#x134;" horiz-adv-x="386" 
d="M304 720v-568q0 -84 -37.5 -124t-114.5 -40q-76 0 -133 28l15 49q58 -25 117 -25q49 0 70.5 27.5t21.5 99.5v553h61zM250 868h44l87 -87l-24 -24l-85 67l-84 -68l-26 25z" />
    <glyph glyph-name="jcircumflex" unicode="&#x135;" horiz-adv-x="217" 
d="M137 524v-603q0 -63 -22 -93.5t-81 -30.5q-39 0 -65 10l7 45q21 -7 47 -7q29 0 43 16t14 61v602h57zM88 753h43l106 -149l-30 -21l-97 121l-97 -120l-30 20z" />
    <glyph glyph-name="Kcommaaccent" unicode="&#x136;" horiz-adv-x="622" 
d="M88 0v720h60v-320h150l192 320h68l-207 -343l246 -377h-70l-229 349h-150v-349h-60zM250 -216l41 156l54 -11l-56 -155z" />
    <glyph glyph-name="kcommaaccent" unicode="&#x137;" horiz-adv-x="493" 
d="M131 720v-403h64l183 207h70l-204 -232l229 -292h-71l-210 266h-61v-266h-57v720h57zM186 -216l41 156l54 -11l-56 -155z" />
    <glyph glyph-name="kgreenlandic" unicode="&#x138;" horiz-adv-x="493" 
d="M126 524v-211h63l186 211h68l-205 -233l231 -291h-67l-215 266h-61v-266h-57v524h57z" />
    <glyph glyph-name="Lacute" unicode="&#x139;" horiz-adv-x="519" 
d="M88 720h60v-666h342v-54h-402v720zM39 792l165 95l24 -47l-171 -83z" />
    <glyph glyph-name="lacute" unicode="&#x13a;" horiz-adv-x="197" 
d="M131 0h-57v720h57v-720zM12 792l165 95l24 -47l-171 -83z" />
    <glyph glyph-name="Lcommaaccent" unicode="&#x13b;" horiz-adv-x="519" 
d="M88 720h60v-666h342v-54h-402v720zM211 -216l41 156l54 -11l-56 -155z" />
    <glyph glyph-name="lcommaaccent" unicode="&#x13c;" horiz-adv-x="197" 
d="M131 0h-57v720h57v-720zM29 -216l41 156l54 -11l-56 -155z" />
    <glyph glyph-name="Lcaron" unicode="&#x13d;" horiz-adv-x="519" 
d="M88 720h60v-666h342v-54h-402v720zM261 538l37 182h57l-51 -182h-43z" />
    <glyph glyph-name="lcaron" unicode="&#x13e;" horiz-adv-x="272" 
d="M131 0h-57v720h57v-720zM186 538l37 182h57l-51 -182h-43z" />
    <glyph glyph-name="Ldot" unicode="&#x13f;" horiz-adv-x="519" 
d="M88 720h60v-666h342v-54h-402v720zM332 370q0 21 13.5 33t33.5 12q21 0 35 -11.5t14 -33.5q0 -19 -14 -31.5t-35 -12.5q-20 0 -33.5 12t-13.5 32z" />
    <glyph glyph-name="ldot" unicode="&#x140;" horiz-adv-x="297" 
d="M131 0h-57v720h57v-720zM201 356q0 21 14 33t34 12q21 0 34.5 -11.5t13.5 -33.5q0 -19 -14 -31.5t-34 -12.5q-21 0 -34.5 12t-13.5 32z" />
    <glyph glyph-name="Lslash" unicode="&#x141;" horiz-adv-x="519" 
d="M88 720h60v-345l225 88v-48l-225 -89v-272h342v-54h-402v306l-86 -34v49l86 34v365z" />
    <glyph glyph-name="lslash" unicode="&#x142;" horiz-adv-x="234" 
d="M146 0h-57v335l-79 -35v47l79 35v338h57v-316l83 38v-47l-83 -38v-357z" />
    <glyph glyph-name="Nacute" unicode="&#x143;" horiz-adv-x="698" 
d="M88 0v720h58l404 -615v615h60v-720h-56l-406 616v-616h-60zM280 792l165 95l24 -47l-171 -83z" />
    <glyph glyph-name="nacute" unicode="&#x144;" horiz-adv-x="535" 
d="M74 524h54v-81q78 93 176 93q89 0 125 -52.5t36 -147.5v-336h-57v329q0 79 -27.5 116.5t-88.5 37.5q-81 0 -161 -98v-385h-57v524zM206 616l138 130l34 -39l-146 -121z" />
    <glyph glyph-name="Ncommaaccent" unicode="&#x145;" horiz-adv-x="698" 
d="M88 0v720h58l404 -615v615h60v-720h-56l-406 616v-616h-60zM291 -216l41 156l54 -11l-56 -155z" />
    <glyph glyph-name="ncommaaccent" unicode="&#x146;" horiz-adv-x="535" 
d="M74 524h54v-81q78 93 176 93q89 0 125 -52.5t36 -147.5v-336h-57v329q0 79 -27.5 116.5t-88.5 37.5q-81 0 -161 -98v-385h-57v524zM206 -216l41 156l54 -11l-56 -155z" />
    <glyph glyph-name="Ncaron" unicode="&#x147;" horiz-adv-x="698" 
d="M88 0v720h58l404 -615v615h60v-720h-56l-406 616v-616h-60zM371 767h-44l-88 87l26 25l84 -68l85 67l24 -24z" />
    <glyph glyph-name="ncaron" unicode="&#x148;" horiz-adv-x="535" 
d="M74 524h54v-81q78 93 176 93q89 0 125 -52.5t36 -147.5v-336h-57v329q0 79 -27.5 116.5t-88.5 37.5q-81 0 -161 -98v-385h-57v524zM296 591h-43l-105 149l31 21l96 -121l97 121l30 -21z" />
    <glyph glyph-name="napostrophe" unicode="&#x149;" horiz-adv-x="551" 
d="M90 524h54v-81q77 93 176 93q89 0 125 -52.5t36 -147.5v-336h-57v329q0 79 -27.5 116.5t-88.5 37.5q-81 0 -161 -98v-385h-57v524zM-4 643q0 20 12.5 32t33.5 12q26 0 38 -18t12 -43q0 -79 -73 -118l-14 21q56 32 57 88q-12 -12 -29 -12t-27 11.5t-10 26.5z" />
    <glyph glyph-name="Eng" unicode="&#x14a;" horiz-adv-x="698" 
d="M88 0v720h58l404 -615v615h60v-782q0 -141 -138 -141q-26 0 -62 6t-50 12l14 48q42 -14 92 -14q42 0 63 22t21 70v65l-402 610v-616h-60z" />
    <glyph glyph-name="eng" unicode="&#x14b;" horiz-adv-x="535" 
d="M74 524h54v-81q78 93 176 93q89 0 125 -52.5t36 -147.5v-415q0 -63 -22 -93.5t-81 -30.5q-39 0 -65 10l7 45q21 -7 47 -7q29 0 43 16t14 61v407q0 79 -27.5 116.5t-88.5 37.5q-81 0 -161 -98v-385h-57v524z" />
    <glyph glyph-name="Omacron" unicode="&#x14c;" horiz-adv-x="757" 
d="M124 370q0 -163 69.5 -244.5t189.5 -81.5q116 0 183 81t67 245q0 147 -68.5 227t-183.5 80q-118 0 -187.5 -80t-69.5 -227zM60 370q0 176 89.5 269.5t235.5 93.5q138 0 225 -94t87 -269q0 -193 -87.5 -287.5t-231.5 -94.5t-231 95t-87 287zM243 795v47h270v-47h-270z" />
    <glyph glyph-name="omacron" unicode="&#x14d;" horiz-adv-x="565" 
d="M110 261q0 -108 47.5 -164t123.5 -56q77 0 125.5 56t48.5 164q0 109 -48.5 165.5t-125.5 56.5q-76 0 -123.5 -57t-47.5 -165zM50 260q0 128 62.5 202t168.5 74q107 0 170.5 -73t63.5 -202q0 -127 -64 -200t-172 -73t-168.5 72.5t-60.5 199.5zM148 627v47h270v-47h-270z
" />
    <glyph glyph-name="Obreve" unicode="&#x14e;" horiz-adv-x="757" 
d="M124 370q0 -163 69.5 -244.5t189.5 -81.5q116 0 183 81t67 245q0 147 -68.5 227t-183.5 80q-118 0 -187.5 -80t-69.5 -227zM60 370q0 176 89.5 269.5t235.5 93.5q138 0 225 -94t87 -269q0 -193 -87.5 -287.5t-231.5 -94.5t-231 95t-87 287zM378 813q48 0 70 19t29 64
l41 -8q-12 -117 -141 -117q-62 0 -95.5 27.5t-43.5 87.5l42 9q8 -44 30.5 -63t67.5 -19z" />
    <glyph glyph-name="obreve" unicode="&#x14f;" horiz-adv-x="565" 
d="M110 261q0 -108 47.5 -164t123.5 -56q77 0 125.5 56t48.5 164q0 109 -48.5 165.5t-125.5 56.5q-76 0 -123.5 -57t-47.5 -165zM50 260q0 128 62.5 202t168.5 74q107 0 170.5 -73t63.5 -202q0 -127 -64 -200t-172 -73t-168.5 72.5t-60.5 199.5zM278 637q50 0 71.5 22.5
t27.5 69.5l41 -8q-10 -125 -140 -125q-65 0 -98 29t-43 95l42 9q9 -51 30.5 -71.5t68.5 -20.5z" />
    <glyph glyph-name="Ohungarumlaut" unicode="&#x150;" horiz-adv-x="757" 
d="M124 370q0 -163 69.5 -244.5t189.5 -81.5q116 0 183 81t67 245q0 147 -68.5 227t-183.5 80q-118 0 -187.5 -80t-69.5 -227zM60 370q0 176 89.5 269.5t235.5 93.5q138 0 225 -94t87 -269q0 -193 -87.5 -287.5t-231.5 -94.5t-231 95t-87 287zM398 919l38 -31l-130 -132
l-29 23zM513 906l36 -33l-123 -117l-28 25z" />
    <glyph glyph-name="ohungarumlaut" unicode="&#x151;" horiz-adv-x="565" 
d="M110 261q0 -108 47.5 -164t123.5 -56q77 0 125.5 56t48.5 164q0 109 -48.5 165.5t-125.5 56.5q-76 0 -123.5 -57t-47.5 -165zM50 260q0 128 62.5 202t168.5 74q107 0 170.5 -73t63.5 -202q0 -127 -64 -200t-172 -73t-168.5 72.5t-60.5 199.5zM310 745l37 -30l-128 -130
l-28 23zM423 733l36 -31l-122 -117l-27 23z" />
    <glyph glyph-name="OE" unicode="&#x152;" horiz-adv-x="1135" 
d="M633 0v165q-32 -87 -104 -132t-164 -45q-138 0 -221.5 95.5t-83.5 286.5q0 176 87.5 269t226.5 93q89 0 158.5 -44t100.5 -126v158h438v-54h-381v-268h347v-52h-347v-292h390v-54h-447zM124 370q0 -162 67 -243.5t181 -81.5t186 77t72 247q0 155 -72 230.5t-180 75.5
q-117 0 -185.5 -79.5t-68.5 -225.5z" />
    <glyph glyph-name="oe" unicode="&#x153;" horiz-adv-x="926" 
d="M845 99l26 -40q-79 -71 -187 -71q-158 0 -202 140q-52 -140 -203 -140q-108 0 -168.5 72.5t-60.5 199.5q0 128 62.5 202t168.5 74q153 0 203 -146q23 70 73.5 108t124.5 38q198 0 198 -252v-35h-369q1 -97 45 -153t133 -56q84 0 156 59zM110 261q0 -108 47.5 -164
t123.5 -56q77 0 125.5 56t48.5 164q0 109 -48.5 165.5t-125.5 56.5q-76 0 -123.5 -57t-47.5 -165zM511 299h312q-3 187 -141 187q-39 0 -70 -14t-49 -35t-30.5 -47.5t-17 -49t-4.5 -41.5z" />
    <glyph glyph-name="Racute" unicode="&#x154;" horiz-adv-x="621" 
d="M88 720h216q121 0 180.5 -55t59.5 -152q0 -139 -123 -196l165 -317h-66l-158 304q-32 -7 -80 -7h-134v-297h-60v720zM303 666h-155v-318h147q188 0 188 164q0 77 -43.5 115.5t-136.5 38.5zM209 792l165 95l24 -47l-171 -83z" />
    <glyph glyph-name="racute" unicode="&#x155;" horiz-adv-x="306" 
d="M125 524v-85q18 43 50 70t71 27q27 0 47 -7l-8 -57q-15 5 -42 5q-36 0 -65.5 -30.5t-46.5 -71.5v-375h-57v524h51zM124 616l138 130l34 -39l-146 -121z" />
    <glyph glyph-name="Rcommaaccent" unicode="&#x156;" horiz-adv-x="613" 
d="M80 720h216q121 0 180.5 -55t59.5 -152q0 -139 -123 -196l165 -317h-66l-158 304q-32 -7 -80 -7h-134v-297h-60v720zM295 666h-155v-318h147q188 0 188 164q0 77 -43.5 115.5t-136.5 38.5zM245 -216l41 156l54 -11l-56 -155z" />
    <glyph glyph-name="rcommaaccent" unicode="&#x157;" horiz-adv-x="306" 
d="M125 524v-85q18 43 50 70t71 27q27 0 47 -7l-8 -57q-15 5 -42 5q-36 0 -65.5 -30.5t-46.5 -71.5v-375h-57v524h51zM31 -216l41 156l54 -11l-56 -155z" />
    <glyph glyph-name="Rcaron" unicode="&#x158;" horiz-adv-x="621" 
d="M88 720h216q121 0 180.5 -55t59.5 -152q0 -139 -123 -196l165 -317h-66l-158 304q-32 -7 -80 -7h-134v-297h-60v720zM303 666h-155v-318h147q188 0 188 164q0 77 -43.5 115.5t-136.5 38.5zM303 767h-44l-88 87l26 25l84 -68l85 67l24 -24z" />
    <glyph glyph-name="rcaron" unicode="&#x159;" horiz-adv-x="306" 
d="M125 524v-85q18 43 50 70t71 27q27 0 47 -7l-8 -57q-15 5 -42 5q-36 0 -65.5 -30.5t-46.5 -71.5v-375h-57v524h51zM208 591h-43l-105 149l31 21l96 -121l97 121l30 -21z" />
    <glyph glyph-name="Sacute" unicode="&#x15a;" horiz-adv-x="569" 
d="M37 92l36 40q99 -91 212 -91q73 0 120.5 38t47.5 105q0 61 -35 95t-135 65q-122 37 -172 80t-50 120q0 87 63 138t162 51q140 0 225 -104l-39 -36q-73 88 -186 88q-71 0 -116.5 -35t-45.5 -99q0 -16 2 -29.5t10 -25.5l13.5 -20t22.5 -18l25.5 -15t34 -15t37.5 -14l46 -16
q113 -40 157 -83.5t44 -121.5q0 -92 -64 -146.5t-171 -54.5q-145 0 -244 104zM208 792l165 95l24 -47l-171 -83z" />
    <glyph glyph-name="sacute" unicode="&#x15b;" horiz-adv-x="462" 
d="M28 68l32 39q82 -69 165 -69q58 0 95.5 26.5t37.5 71.5q0 43 -29.5 67.5t-109.5 42.5q-91 21 -128.5 54.5t-37.5 91.5q0 67 48 105.5t130 38.5q111 0 182 -77l-32 -35q-64 63 -148 63q-56 0 -88 -23.5t-32 -65.5q0 -43 31 -64.5t106 -40.5q90 -23 129.5 -57.5t39.5 -93.5
q0 -70 -52.5 -112t-138.5 -42q-59 0 -112 22.5t-88 57.5zM165 616l138 130l34 -39l-146 -121z" />
    <glyph glyph-name="Scircumflex" unicode="&#x15c;" horiz-adv-x="569" 
d="M37 92l36 40q99 -91 212 -91q73 0 120.5 38t47.5 105q0 61 -35 95t-135 65q-122 37 -172 80t-50 120q0 87 63 138t162 51q140 0 225 -104l-39 -36q-73 88 -186 88q-71 0 -116.5 -35t-45.5 -99q0 -16 2 -29.5t10 -25.5l13.5 -20t22.5 -18l25.5 -15t34 -15t37.5 -14l46 -16
q113 -40 157 -83.5t44 -121.5q0 -92 -64 -146.5t-171 -54.5q-145 0 -244 104zM259 868h44l87 -87l-24 -24l-85 67l-84 -68l-26 25z" />
    <glyph glyph-name="scircumflex" unicode="&#x15d;" horiz-adv-x="462" 
d="M28 68l32 39q82 -69 165 -69q58 0 95.5 26.5t37.5 71.5q0 43 -29.5 67.5t-109.5 42.5q-91 21 -128.5 54.5t-37.5 91.5q0 67 48 105.5t130 38.5q111 0 182 -77l-32 -35q-64 63 -148 63q-56 0 -88 -23.5t-32 -65.5q0 -43 31 -64.5t106 -40.5q90 -23 129.5 -57.5t39.5 -93.5
q0 -70 -52.5 -112t-138.5 -42q-59 0 -112 22.5t-88 57.5zM207 753h43l106 -149l-30 -21l-97 121l-97 -120l-30 20z" />
    <glyph glyph-name="Scedilla" unicode="&#x15e;" horiz-adv-x="569" 
d="M212 -186l11 34q38 -14 66 -14q50 0 50 39q0 22 -17 29.5t-55 7.5h-9l17 78q-142 3 -238 104l36 40q99 -91 212 -91q73 0 120.5 38t47.5 105q0 61 -35 95t-135 65q-122 37 -172 80t-50 120q0 87 63 138t162 51q140 0 225 -104l-39 -36q-73 88 -186 88q-71 0 -116.5 -35
t-45.5 -99q0 -16 2 -29.5t10 -25.5l13.5 -20t22.5 -18l25.5 -15t34 -15t37.5 -14l46 -16q113 -40 157 -83.5t44 -121.5q0 -85 -55 -138t-149 -61l-10 -48q33 -1 56.5 -16t23.5 -50q0 -40 -25 -59.5t-66 -19.5q-45 0 -79 17z" />
    <glyph glyph-name="scedilla" unicode="&#x15f;" horiz-adv-x="462" 
d="M143 -186l11 34q38 -14 66 -14q50 0 50 39q0 22 -17 29.5t-55 7.5h-9l17 79q-106 7 -178 79l32 39q82 -69 165 -69q58 0 95.5 26.5t37.5 71.5q0 43 -29.5 67.5t-109.5 42.5q-91 21 -128.5 54.5t-37.5 91.5q0 67 48 105.5t130 38.5q111 0 182 -77l-32 -35q-64 63 -148 63
q-56 0 -88 -23.5t-32 -65.5q0 -43 31 -64.5t106 -40.5q90 -23 129.5 -57.5t39.5 -93.5q0 -67 -48.5 -108t-128.5 -45l-9 -47q33 -1 56.5 -16t23.5 -50q0 -40 -25 -59.5t-66 -19.5q-45 0 -79 17z" />
    <glyph glyph-name="Scaron" unicode="&#x160;" horiz-adv-x="569" 
d="M37 92l36 40q99 -91 212 -91q73 0 120.5 38t47.5 105q0 61 -35 95t-135 65q-122 37 -172 80t-50 120q0 87 63 138t162 51q140 0 225 -104l-39 -36q-73 88 -186 88q-71 0 -116.5 -35t-45.5 -99q0 -16 2 -29.5t10 -25.5l13.5 -20t22.5 -18l25.5 -15t34 -15t37.5 -14l46 -16
q113 -40 157 -83.5t44 -121.5q0 -92 -64 -146.5t-171 -54.5q-145 0 -244 104zM313 767h-44l-88 87l26 25l84 -68l85 67l24 -24z" />
    <glyph glyph-name="scaron" unicode="&#x161;" horiz-adv-x="462" 
d="M28 68l32 39q82 -69 165 -69q58 0 95.5 26.5t37.5 71.5q0 43 -29.5 67.5t-109.5 42.5q-91 21 -128.5 54.5t-37.5 91.5q0 67 48 105.5t130 38.5q111 0 182 -77l-32 -35q-64 63 -148 63q-56 0 -88 -23.5t-32 -65.5q0 -43 31 -64.5t106 -40.5q90 -23 129.5 -57.5t39.5 -93.5
q0 -70 -52.5 -112t-138.5 -42q-59 0 -112 22.5t-88 57.5zM249 591h-43l-105 149l31 21l96 -121l97 121l30 -21z" />
    <glyph glyph-name="uni0162" unicode="&#x162;" horiz-adv-x="558" 
d="M249 0v667h-230v53h520v-53h-229v-667h-13l-12 -58q33 -1 56.5 -16t23.5 -50q0 -40 -25 -59.5t-66 -19.5q-45 0 -79 17l11 34q38 -14 66 -14q50 0 50 39q0 22 -17 29.5t-55 7.5h-9l20 90h-12z" />
    <glyph glyph-name="uni0163" unicode="&#x163;" horiz-adv-x="283" 
d="M81 -186l11 34q38 -14 66 -14q50 0 50 39q0 22 -17 29.5t-55 7.5h-9l18 83q-55 14 -55 83v399h-64v37l64 12l10 139h46v-139h85v-49h-85v-387q0 -29 10.5 -40.5t36.5 -11.5q28 0 62 15l13 -42q-44 -21 -83 -21h-5l-9 -46q33 -1 56.5 -16t23.5 -50q0 -40 -25 -59.5
t-66 -19.5q-45 0 -79 17z" />
    <glyph glyph-name="Tcaron" unicode="&#x164;" horiz-adv-x="558" 
d="M249 0v667h-230v53h520v-53h-229v-667h-61zM301 767h-44l-88 87l26 25l84 -68l85 67l24 -24z" />
    <glyph glyph-name="tcaron" unicode="&#x165;" horiz-adv-x="283" 
d="M246 475h-100v-387q0 -29 10.5 -40.5t36.5 -11.5q28 0 62 15l13 -42q-44 -21 -83 -21q-95 0 -95 88v399h-64v37l64 12l10 139h46v-139h100v-49zM193 577l37 182h57l-51 -182h-43z" />
    <glyph glyph-name="Tbar" unicode="&#x166;" horiz-adv-x="559" 
d="M117 358v45h132v264h-230v53h520v-53h-229v-264h130v-45h-130v-358h-61v358h-132z" />
    <glyph glyph-name="tbar" unicode="&#x167;" horiz-adv-x="283" 
d="M231 475h-85v-143h85v-47h-85v-197q0 -29 10.5 -40.5t36.5 -11.5q28 0 62 15l13 -42q-44 -21 -83 -21q-95 0 -95 88v209h-64v47h64v143h-64v37l64 12l10 139h46v-139h85v-49z" />
    <glyph glyph-name="Utilde" unicode="&#x168;" horiz-adv-x="687" 
d="M83 720h60v-445q0 -116 53 -174.5t151 -58.5q106 0 151.5 58t45.5 175v445h60v-455q0 -277 -260 -277q-121 0 -191 69t-70 208v455zM449 862l33 -14q-19 -64 -72 -64q-26 0 -69.5 17t-56.5 17t-21 -7t-21 -30l-34 15q27 66 77 66q22 0 61.5 -17.5t59.5 -17.5q15 0 24.5 7
t18.5 28z" />
    <glyph glyph-name="utilde" unicode="&#x169;" horiz-adv-x="533" 
d="M459 0h-54v80q-74 -92 -176 -92q-47 0 -80 14.5t-49.5 42t-23.5 59t-7 72.5v348h58v-337q0 -74 25 -110t87 -36q85 0 163 97v386h57v-524zM364 690l33 -14q-19 -64 -72 -64q-26 0 -69.5 17t-56.5 17t-21 -7t-21 -30l-34 15q27 66 77 66q22 0 61.5 -17.5t59.5 -17.5
q15 0 24.5 7t18.5 28z" />
    <glyph glyph-name="Umacron" unicode="&#x16a;" horiz-adv-x="687" 
d="M83 720h60v-445q0 -116 53 -174.5t151 -58.5q106 0 151.5 58t45.5 175v445h60v-455q0 -277 -260 -277q-121 0 -191 69t-70 208v455zM208 795v47h270v-47h-270z" />
    <glyph glyph-name="umacron" unicode="&#x16b;" horiz-adv-x="533" 
d="M459 0h-54v80q-74 -92 -176 -92q-47 0 -80 14.5t-49.5 42t-23.5 59t-7 72.5v348h58v-337q0 -74 25 -110t87 -36q85 0 163 97v386h57v-524zM132 627v47h270v-47h-270z" />
    <glyph glyph-name="Ubreve" unicode="&#x16c;" horiz-adv-x="687" 
d="M83 720h60v-445q0 -116 53 -174.5t151 -58.5q106 0 151.5 58t45.5 175v445h60v-455q0 -277 -260 -277q-121 0 -191 69t-70 208v455zM352 813q48 0 70 19t29 64l41 -8q-12 -117 -141 -117q-62 0 -95.5 27.5t-43.5 87.5l42 9q8 -44 30.5 -63t67.5 -19z" />
    <glyph glyph-name="ubreve" unicode="&#x16d;" horiz-adv-x="533" 
d="M459 0h-54v80q-74 -92 -176 -92q-47 0 -80 14.5t-49.5 42t-23.5 59t-7 72.5v348h58v-337q0 -74 25 -110t87 -36q85 0 163 97v386h57v-524zM265 637q50 0 71.5 22.5t27.5 69.5l41 -8q-10 -125 -140 -125q-65 0 -98 29t-43 95l42 9q9 -51 30.5 -71.5t68.5 -20.5z" />
    <glyph glyph-name="Uring" unicode="&#x16e;" horiz-adv-x="687" 
d="M83 720h60v-445q0 -116 53 -174.5t151 -58.5q106 0 151.5 58t45.5 175v445h60v-455q0 -277 -260 -277q-121 0 -191 69t-70 208v455zM300 826q0 -23 13.5 -36t35.5 -13q23 0 36.5 14.5t13.5 37.5q0 22 -13.5 35t-36.5 13q-22 0 -35.5 -14t-13.5 -37zM259 826q0 38 26 63
t64 25q39 0 64.5 -23.5t25.5 -61.5q0 -39 -25 -63t-65 -24t-65 23t-25 61z" />
    <glyph glyph-name="uring" unicode="&#x16f;" horiz-adv-x="533" 
d="M459 0h-54v80q-74 -92 -176 -92q-47 0 -80 14.5t-49.5 42t-23.5 59t-7 72.5v348h58v-337q0 -74 25 -110t87 -36q85 0 163 97v386h57v-524zM220 661q0 -23 13.5 -36t35.5 -13q23 0 36.5 14.5t13.5 37.5q0 22 -13.5 35t-36.5 13q-22 0 -35.5 -14t-13.5 -37zM179 661
q0 38 26 63t64 25q39 0 64.5 -23.5t25.5 -61.5q0 -39 -25 -63t-65 -24t-65 23t-25 61z" />
    <glyph glyph-name="Uhungarumlaut" unicode="&#x170;" horiz-adv-x="687" 
d="M83 720h60v-445q0 -116 53 -174.5t151 -58.5q106 0 151.5 58t45.5 175v445h60v-455q0 -277 -260 -277q-121 0 -191 69t-70 208v455zM363 919l38 -31l-130 -132l-29 23zM478 906l36 -33l-123 -117l-28 25z" />
    <glyph glyph-name="uhungarumlaut" unicode="&#x171;" horiz-adv-x="533" 
d="M459 0h-54v80q-74 -92 -176 -92q-47 0 -80 14.5t-49.5 42t-23.5 59t-7 72.5v348h58v-337q0 -74 25 -110t87 -36q85 0 163 97v386h57v-524zM292 745l37 -30l-128 -130l-28 23zM405 733l36 -31l-122 -117l-27 23z" />
    <glyph glyph-name="Uogonek" unicode="&#x172;" horiz-adv-x="687" 
d="M83 720h60v-445q0 -116 53 -174.5t151 -58.5q106 0 151.5 58t45.5 175v445h60v-455q0 -93 -32 -153t-96 -102q-45 -29 -74 -70t-29 -76q0 -39 42 -39q24 0 59 19l18 -33q-45 -30 -88 -30q-39 0 -61 20t-22 54q0 66 75 137q-32 -4 -52 -4q-121 0 -191 69t-70 208v455z" />
    <glyph glyph-name="uogonek" unicode="&#x173;" horiz-adv-x="533" 
d="M459 524v-524q-91 -79 -91 -136q0 -39 42 -39q24 0 59 19l18 -33q-45 -30 -88 -30q-39 0 -61 20t-22 54q0 73 89 148v77q-74 -92 -176 -92q-47 0 -80 14.5t-49.5 42t-23.5 59t-7 72.5v348h58v-337q0 -74 25 -110t87 -36q85 0 163 97v386h57z" />
    <glyph glyph-name="Wcircumflex" unicode="&#x174;" horiz-adv-x="921" 
d="M215 0l-194 720h60l175 -644l174 644h63l174 -645l172 645h61l-193 -720h-73l-173 634l-173 -634h-73zM439 868h44l87 -87l-24 -24l-85 67l-84 -68l-26 25z" />
    <glyph glyph-name="wcircumflex" unicode="&#x175;" horiz-adv-x="706" 
d="M623 524h57l-128 -524h-62l-140 440l-136 -440h-61l-127 524h57l104 -452l135 446h57l141 -446zM327 753h43l106 -149l-30 -21l-97 121l-97 -120l-30 20z" />
    <glyph glyph-name="Ycircumflex" unicode="&#x176;" horiz-adv-x="560" 
d="M248 0v310l-228 410h68l192 -349l192 349h68l-231 -410v-310h-61zM258 868h44l87 -87l-24 -24l-85 67l-84 -68l-26 25z" />
    <glyph glyph-name="ycircumflex" unicode="&#x177;" horiz-adv-x="459" 
d="M380 524h59l-190 -558q-17 -50 -27.5 -75t-27 -50t-38 -34t-52.5 -9q-48 0 -86 11l9 48q29 -9 69 -9q32 0 50.5 21t38.5 83l16 49l-187 523h63l153 -447zM211 753h43l106 -149l-30 -21l-97 121l-97 -120l-30 20z" />
    <glyph glyph-name="Ydieresis" unicode="&#x178;" horiz-adv-x="560" 
d="M248 0v310l-228 410h68l192 -349l192 349h68l-231 -410v-310h-61zM329 819q0 17 12.5 29t30.5 12t30 -12t12 -29t-12 -28.5t-30 -11.5q-19 0 -31 11.5t-12 28.5zM151 819q0 17 12.5 29t30.5 12t30 -12t12 -29t-12 -28.5t-30 -11.5q-19 0 -31 11.5t-12 28.5z" />
    <glyph glyph-name="Zacute" unicode="&#x179;" horiz-adv-x="575" 
d="M40 0v41l408 626h-377v53h466v-27l-418 -640h417v-53h-496zM223 792l165 95l24 -47l-171 -83z" />
    <glyph glyph-name="zacute" unicode="&#x17a;" horiz-adv-x="422" 
d="M34 0v41l284 433h-277v50h352v-33l-288 -441h285v-50h-356zM151 616l138 130l34 -39l-146 -121z" />
    <glyph glyph-name="Zdotaccent" unicode="&#x17b;" horiz-adv-x="575" 
d="M40 0v41l408 626h-377v53h466v-27l-418 -640h417v-53h-496zM256 822q0 17 12.5 28t30.5 11q17 0 29 -11t12 -28t-12 -28t-29 -11q-18 0 -30.5 11t-12.5 28z" />
    <glyph glyph-name="zdotaccent" unicode="&#x17c;" horiz-adv-x="422" 
d="M34 0v41l284 433h-277v50h352v-33l-288 -441h285v-50h-356zM180 669q0 17 12.5 28t30.5 11q17 0 29 -11t12 -28t-12 -28t-29 -11q-18 0 -30.5 11t-12.5 28z" />
    <glyph glyph-name="Zcaron" unicode="&#x17d;" horiz-adv-x="575" 
d="M40 0v41l408 626h-377v53h466v-27l-418 -640h417v-53h-496zM318 767h-44l-88 87l26 25l84 -68l85 67l24 -24z" />
    <glyph glyph-name="zcaron" unicode="&#x17e;" horiz-adv-x="422" 
d="M34 0v41l284 433h-277v50h352v-33l-288 -441h285v-50h-356zM231 591h-43l-105 149l31 21l96 -121l97 121l30 -21z" />
    <glyph glyph-name="longs" unicode="&#x17f;" horiz-adv-x="251" 
d="M90 0v475h-59v37l59 10v81q0 57 26.5 93t83.5 36q33 0 61 -8l-4 -45q-23 7 -47 7q-63 0 -63 -80v-606h-57z" />
    <glyph glyph-name="florin" unicode="&#x192;" horiz-adv-x="415" 
d="M-38 -154h40q37 0 54 23t29 81l83 401h-77v45h87l34 168q8 36 15 58t21 44t37.5 32.5t57.5 10.5h55v-46h-48q-41 0 -56.5 -24.5t-29.5 -92.5l-32 -150h95v-45h-103l-76 -374q-21 -103 -45.5 -140t-93.5 -37h-47v46z" />
    <glyph glyph-name="Scommaaccent" unicode="&#x218;" horiz-adv-x="569" 
d="M37 92l36 40q99 -91 212 -91q73 0 120.5 38t47.5 105q0 61 -35 95t-135 65q-122 37 -172 80t-50 120q0 87 63 138t162 51q140 0 225 -104l-39 -36q-73 88 -186 88q-71 0 -116.5 -35t-45.5 -99q0 -16 2 -29.5t10 -25.5l13.5 -20t22.5 -18l25.5 -15t34 -15t37.5 -14l46 -16
q113 -40 157 -83.5t44 -121.5q0 -92 -64 -146.5t-171 -54.5q-145 0 -244 104zM222 -216l41 156l54 -11l-56 -155z" />
    <glyph glyph-name="scommaaccent" unicode="&#x219;" horiz-adv-x="462" 
d="M28 68l32 39q82 -69 165 -69q58 0 95.5 26.5t37.5 71.5q0 43 -29.5 67.5t-109.5 42.5q-91 21 -128.5 54.5t-37.5 91.5q0 67 48 105.5t130 38.5q111 0 182 -77l-32 -35q-64 63 -148 63q-56 0 -88 -23.5t-32 -65.5q0 -43 31 -64.5t106 -40.5q90 -23 129.5 -57.5t39.5 -93.5
q0 -70 -52.5 -112t-138.5 -42q-59 0 -112 22.5t-88 57.5zM166 -216l41 156l54 -11l-56 -155z" />
    <glyph glyph-name="uni021A" unicode="&#x21a;" horiz-adv-x="558" 
d="M249 0v667h-230v53h520v-53h-229v-667h-61zM206 -216l41 156l54 -11l-56 -155z" />
    <glyph glyph-name="uni021B" unicode="&#x21b;" horiz-adv-x="283" 
d="M246 475h-100v-387q0 -29 10.5 -40.5t36.5 -11.5q28 0 62 15l13 -42q-44 -21 -83 -21q-95 0 -95 88v399h-64v37l64 12l10 139h46v-139h100v-49zM96 -216l41 156l54 -11l-56 -155z" />
    <glyph glyph-name="dotlessj" unicode="&#x237;" horiz-adv-x="217" 
d="M137 524v-603q0 -63 -22 -93.5t-81 -30.5q-39 0 -65 10l7 45q21 -7 47 -7q29 0 43 16t14 61v602h57z" />
    <glyph glyph-name="apostrophe" unicode="&#x2bc;" horiz-adv-x="500" 
d="M192 685q0 21 14 34.5t37 13.5q29 0 42 -20t13 -47q0 -39 -15 -68.5t-58 -53.5l-15 23q29 19 41.5 38t13.5 51q-14 -14 -32 -14q-19 0 -30 13t-11 30z" />
    <glyph glyph-name="circumflex" unicode="&#x2c6;" horiz-adv-x="500" 
d="M229 753h43l106 -149l-30 -21l-97 121l-97 -120l-30 20z" />
    <glyph glyph-name="caron" unicode="&#x2c7;" horiz-adv-x="500" 
d="M271 591h-43l-105 149l31 21l96 -121l97 121l30 -21z" />
    <glyph glyph-name="uni02C9" unicode="&#x2c9;" horiz-adv-x="500" 
d="M115 627v47h270v-47h-270z" />
    <glyph glyph-name="breve" unicode="&#x2d8;" horiz-adv-x="500" 
d="M250 637q50 0 71.5 22.5t27.5 69.5l41 -8q-10 -125 -140 -125q-65 0 -98 29t-43 95l42 9q9 -51 30.5 -71.5t68.5 -20.5z" />
    <glyph glyph-name="dotaccent" unicode="&#x2d9;" horiz-adv-x="500" 
d="M208 669q0 17 12.5 28t30.5 11q17 0 29 -11t12 -28t-12 -28t-29 -11q-18 0 -30.5 11t-12.5 28z" />
    <glyph glyph-name="ring" unicode="&#x2da;" horiz-adv-x="500" 
d="M201 661q0 -23 13.5 -36t35.5 -13q23 0 36.5 14.5t13.5 37.5q0 22 -13.5 35t-36.5 13q-22 0 -35.5 -14t-13.5 -37zM160 661q0 38 26 63t64 25q39 0 64.5 -23.5t25.5 -61.5q0 -39 -25 -63t-65 -24t-65 23t-25 61z" />
    <glyph glyph-name="ogonek" unicode="&#x2db;" horiz-adv-x="500" 
d="M263 12l44 -2v-10q-91 -79 -91 -136q0 -39 42 -39q24 0 59 19l18 -33q-45 -30 -88 -30q-39 0 -61 20t-22 54q0 75 99 157z" />
    <glyph glyph-name="tilde" unicode="&#x2dc;" horiz-adv-x="500" 
d="M354 690l33 -14q-19 -64 -72 -64q-26 0 -69.5 17t-56.5 17t-21 -7t-21 -30l-34 15q27 66 77 66q22 0 61.5 -17.5t59.5 -17.5q15 0 24.5 7t18.5 28z" />
    <glyph glyph-name="hungarumlaut" unicode="&#x2dd;" horiz-adv-x="500" 
d="M216 745l37 -30l-128 -130l-28 23zM329 733l36 -31l-122 -117l-27 23z" />
    <glyph glyph-name="uni0394" unicode="&#x394;" horiz-adv-x="655" 
d="M292 720h69l263 -720h-593zM109 51h435l-218 604z" />
    <glyph glyph-name="uni03A9" unicode="&#x3a9;" horiz-adv-x="787" 
d="M460 0v76q80 36 137 116t57 196q0 145 -68 216t-187 71q-118 0 -187.5 -75t-69.5 -220q0 -104 50.5 -182t120.5 -120v-78h-243v54h185v13q-72 40 -124.5 124.5t-52.5 194.5q0 170 89 258t232 88q144 0 231.5 -83t87.5 -252q0 -124 -60 -212t-140 -120v-11h185v-54h-243z
" />
    <glyph glyph-name="uni03BC" unicode="&#x3bc;" horiz-adv-x="566" 
d="M473 0h-53v82q-46 -93 -147 -93q-48 0 -78.5 16.5t-53.5 51.5v-257h-56v724h56v-320q0 -169 134 -169q63 0 102 49t39 100v340h57v-524z" />
    <glyph glyph-name="pi" unicode="&#x3c0;" horiz-adv-x="653" 
d="M36 474v50h581v-50h-91v-474h-56v474h-282v-474h-57v474h-95z" />
    <glyph glyph-name="Wgrave" unicode="&#x1e80;" horiz-adv-x="921" 
d="M215 0l-194 720h60l175 -644l174 644h63l174 -645l172 645h61l-193 -720h-73l-173 634l-173 -634h-73zM388 886l167 -94l-20 -35l-170 83z" />
    <glyph glyph-name="wgrave" unicode="&#x1e81;" horiz-adv-x="706" 
d="M623 524h57l-128 -524h-62l-140 440l-136 -440h-61l-127 524h57l104 -452l135 446h57l141 -446zM300 746l137 -130l-26 -30l-146 122z" />
    <glyph glyph-name="Wacute" unicode="&#x1e82;" horiz-adv-x="921" 
d="M215 0l-194 720h60l175 -644l174 644h63l174 -645l172 645h61l-193 -720h-73l-173 634l-173 -634h-73zM365 792l165 95l24 -47l-171 -83z" />
    <glyph glyph-name="wacute" unicode="&#x1e83;" horiz-adv-x="706" 
d="M623 524h57l-128 -524h-62l-140 440l-136 -440h-61l-127 524h57l104 -452l135 446h57l141 -446zM263 616l138 130l34 -39l-146 -121z" />
    <glyph glyph-name="Wdieresis" unicode="&#x1e84;" horiz-adv-x="921" 
d="M215 0l-194 720h60l175 -644l174 644h63l174 -645l172 645h61l-193 -720h-73l-173 634l-173 -634h-73zM509 819q0 17 12.5 29t30.5 12t30 -12t12 -29t-12 -28.5t-30 -11.5q-19 0 -31 11.5t-12 28.5zM331 819q0 17 12.5 29t30.5 12t30 -12t12 -29t-12 -28.5t-30 -11.5
q-19 0 -31 11.5t-12 28.5z" />
    <glyph glyph-name="wdieresis" unicode="&#x1e85;" horiz-adv-x="706" 
d="M623 524h57l-128 -524h-62l-140 440l-136 -440h-61l-127 524h57l104 -452l135 446h57l141 -446zM398 654q0 17 12.5 29t30.5 12t30 -12t12 -29t-12 -28.5t-30 -11.5q-19 0 -31 11.5t-12 28.5zM220 654q0 17 12.5 29t30.5 12t30 -12t12 -29t-12 -28.5t-30 -11.5
q-19 0 -31 11.5t-12 28.5z" />
    <glyph glyph-name="Ygrave" unicode="&#x1ef2;" horiz-adv-x="560" 
d="M248 0v310l-228 410h68l192 -349l192 349h68l-231 -410v-310h-61zM208 886l167 -94l-20 -35l-170 83z" />
    <glyph glyph-name="ygrave" unicode="&#x1ef3;" horiz-adv-x="459" 
d="M380 524h59l-190 -558q-17 -50 -27.5 -75t-27 -50t-38 -34t-52.5 -9q-48 0 -86 11l9 48q29 -9 69 -9q32 0 50.5 21t38.5 83l16 49l-187 523h63l153 -447zM182 746l137 -130l-26 -30l-146 122z" />
    <glyph glyph-name="endash" unicode="&#x2013;" horiz-adv-x="500" 
d="M0 241v46h500v-46h-500z" />
    <glyph glyph-name="emdash" unicode="&#x2014;" horiz-adv-x="1000" 
d="M0 241v46h1000v-46h-1000z" />
    <glyph glyph-name="quoteleft" unicode="&#x2018;" horiz-adv-x="204" 
d="M157 600q0 -21 -14 -34.5t-37 -13.5q-29 0 -42 20t-13 47q0 87 81 131l15 -23q-62 -37 -63 -98q14 14 32 14q19 0 30 -13t11 -30z" />
    <glyph glyph-name="quoteright" unicode="&#x2019;" horiz-adv-x="206" 
d="M45 672q0 21 14 34.5t37 13.5q29 0 42 -20t13 -47q0 -87 -81 -131l-15 23q62 37 63 98q-14 -14 -32 -14q-19 0 -30 13t-11 30z" />
    <glyph glyph-name="quotesinglbase" unicode="&#x201a;" horiz-adv-x="205" 
d="M57 22q0 21 14 34.5t37 13.5q29 0 42 -20t13 -47q0 -87 -81 -131l-15 23q62 37 63 98q-14 -14 -32 -14q-19 0 -30 13t-11 30z" />
    <glyph glyph-name="quotedblleft" unicode="&#x201c;" horiz-adv-x="349" 
d="M302 600q0 -21 -14 -34.5t-37 -13.5q-29 0 -42 20t-13 47q0 87 81 131l15 -23q-62 -37 -63 -98q14 14 32 14q19 0 30 -13t11 -30zM157 600q0 -21 -14 -34.5t-37 -13.5q-29 0 -42 20t-13 47q0 87 81 131l15 -23q-62 -37 -63 -98q14 14 32 14q19 0 30 -13t11 -30z" />
    <glyph glyph-name="quotedblright" unicode="&#x201d;" horiz-adv-x="351" 
d="M45 672q0 21 14 34.5t37 13.5q29 0 42 -20t13 -47q0 -87 -81 -131l-15 23q62 37 63 98q-14 -14 -32 -14q-19 0 -30 13t-11 30zM190 672q0 21 14 34.5t37 13.5q29 0 42 -20t13 -47q0 -87 -81 -131l-15 23q62 37 63 98q-14 -14 -32 -14q-19 0 -30 13t-11 30z" />
    <glyph glyph-name="quotedblbase" unicode="&#x201e;" horiz-adv-x="352" 
d="M57 22q0 21 14 34.5t37 13.5q29 0 42 -20t13 -47q0 -87 -81 -131l-15 23q62 37 63 98q-14 -14 -32 -14q-19 0 -30 13t-11 30zM204 22q0 21 14 34.5t37 13.5q29 0 42 -20t13 -47q0 -87 -81 -131l-15 23q62 37 63 98q-14 -14 -32 -14q-19 0 -30 13t-11 30z" />
    <glyph glyph-name="dagger" unicode="&#x2020;" horiz-adv-x="503" 
d="M279 -105h-55v563h-177v52h177v209h55v-209h177v-52h-177v-563z" />
    <glyph glyph-name="daggerdbl" unicode="&#x2021;" horiz-adv-x="501" 
d="M277 -105h-53v208h-177v52h177v303h-177v52h177v209h53v-209h177v-52h-177v-303h177v-52h-177v-208z" />
    <glyph glyph-name="bullet" unicode="&#x2022;" horiz-adv-x="500" 
d="M144 312q0 47 31.5 78t77.5 31q45 0 77 -30.5t32 -78.5q0 -49 -31.5 -79.5t-78.5 -30.5q-46 0 -77 31t-31 79z" />
    <glyph glyph-name="ellipsis" unicode="&#x2026;" horiz-adv-x="782" 
d="M87 35q0 23 13.5 35.5t34.5 12.5q22 0 35.5 -12.5t13.5 -34.5t-14 -35t-35 -13t-34.5 13t-13.5 34zM604 35q0 23 13.5 35.5t34.5 12.5q22 0 35.5 -12.5t13.5 -34.5t-14 -35t-35 -13t-34.5 13t-13.5 34zM345 35q0 23 13.5 35.5t34.5 12.5q22 0 35.5 -12.5t13.5 -34.5
t-14 -35t-35 -13t-34.5 13t-13.5 34z" />
    <glyph glyph-name="perthousand" unicode="&#x2030;" horiz-adv-x="1083" 
d="M471 149q0 65 44.5 109t109.5 44q87 0 129 -75q20 33 55 54t75 21q66 0 110 -43.5t44 -108.5q0 -64 -43.5 -108t-108.5 -44q-41 0 -77.5 20t-54.5 52q-46 -72 -132 -72q-66 0 -108.5 42.5t-42.5 108.5zM43 564q0 65 44 109t110 44t110 -42.5t44 -109.5q0 -63 -45 -107.5
t-109 -44.5q-67 0 -110.5 41.5t-43.5 109.5zM166 0l438 720h55l-438 -720h-55zM92 565q0 -48 29.5 -78t75.5 -30q45 0 75 31t30 77q0 47 -30 78t-75 31t-75 -31.5t-30 -77.5zM779 150q0 -49 28.5 -79t76.5 -30q45 0 75 31.5t30 77.5q0 45 -30 77t-75 32t-75 -31.5t-30 -77.5
zM520 150q0 -47 29.5 -78t75.5 -31q45 0 74.5 31.5t29.5 77.5q0 45 -30 77t-74 32q-45 0 -75 -31.5t-30 -77.5z" />
    <glyph glyph-name="guilsinglleft" unicode="&#x2039;" horiz-adv-x="266" 
d="M230 387l-123 -126l123 -127l-29 -26l-155 144v17l155 146z" />
    <glyph glyph-name="guilsinglright" unicode="&#x203a;" horiz-adv-x="266" 
d="M159 261l-123 126l29 28l155 -146v-17l-155 -144l-29 26z" />
    <glyph glyph-name="fraction" unicode="&#x2044;" horiz-adv-x="128" 
d="M-185 -1l437 721h52l-436 -721h-53z" />
    <glyph glyph-name="zerosuperior" unicode="&#x2070;" horiz-adv-x="353" 
d="M96 583q0 -68 22 -106.5t61 -38.5t61.5 38t22.5 107q0 68 -22.5 106t-61.5 38t-61 -38t-22 -106zM45 583q0 92 35 141t99 49q65 0 99.5 -48.5t34.5 -140.5q0 -93 -35 -142t-99 -49q-65 0 -99.5 48.5t-34.5 141.5z" />
    <glyph glyph-name="foursuperior" unicode="&#x2074;" horiz-adv-x="328" 
d="M214 722l-140 -201h140v201zM214 400v79h-194v39l174 250h67v-247h46v-42h-46v-79h-47z" />
    <glyph glyph-name="fivesuperior" unicode="&#x2075;" horiz-adv-x="324" 
d="M51 534l18 234h198l-2 -42h-158l-10 -118q35 27 84 27q54 0 82 -31.5t28 -83.5q0 -58 -38.5 -92.5t-100.5 -34.5q-69 0 -123 35l18 35q56 -28 103 -28q42 0 68 22t26 64q0 32 -19 53t-55 21q-41 0 -76 -29l-3 -32h-40z" />
    <glyph glyph-name="sixsuperior" unicode="&#x2076;" horiz-adv-x="330" 
d="M41 559q0 105 39.5 159.5t114.5 54.5q54 0 96 -28l-20 -35q-36 22 -73 22q-57 0 -81.5 -38.5t-29.5 -106.5q50 46 105 46t82.5 -31.5t27.5 -79.5q0 -61 -35.5 -95t-94.5 -34q-67 0 -99 45t-32 121zM186 593q-49 0 -98 -46q4 -115 86 -115q36 0 59 21.5t23 63.5
q0 76 -70 76z" />
    <glyph glyph-name="sevensuperior" unicode="&#x2077;" horiz-adv-x="282" 
d="M263 737l-157 -337h-49v5l152 320h-198v43h252v-31z" />
    <glyph glyph-name="eightsuperior" unicode="&#x2078;" horiz-adv-x="326" 
d="M80 493q0 -29 22.5 -46.5t61.5 -17.5t62 18.5t23 51.5q0 17 -7 30t-22 21.5t-28 13t-34 10.5q-37 -14 -57.5 -31.5t-20.5 -49.5zM96 684q0 -17 12 -30.5t24.5 -20t35.5 -15.5q68 32 68 68q0 26 -19 40t-51 14t-51 -15t-19 -41zM33 492q0 70 92 104q-76 27 -76 87
q0 41 32 65.5t84 24.5q54 0 85 -22t31 -62q0 -58 -74 -90q49 -18 70 -40.5t21 -58.5q0 -49 -36.5 -78t-97.5 -29q-62 0 -96.5 26.5t-34.5 72.5z" />
    <glyph glyph-name="ninesuperior" unicode="&#x2079;" horiz-adv-x="329" 
d="M291 607q0 -106 -38.5 -160t-111.5 -54q-58 0 -99 27l17 36q42 -22 83 -22q94 0 104 144q-38 -51 -106 -51q-53 0 -81.5 34t-28.5 82q0 60 36 95t94 35q131 0 131 -166zM149 565q48 0 96 57q-4 112 -86 112t-82 -88q0 -39 18.5 -60t53.5 -21z" />
    <glyph glyph-name="zeroinferior" unicode="&#x2080;" horiz-adv-x="353" 
d="M96 87q0 -68 22 -106.5t61 -38.5t61.5 38t22.5 107q0 68 -22.5 106t-61.5 38t-61 -38t-22 -106zM45 87q0 92 35 141t99 49q65 0 99.5 -48.5t34.5 -140.5q0 -93 -35 -142t-99 -49q-65 0 -99.5 48.5t-34.5 141.5z" />
    <glyph glyph-name="oneinferior" unicode="&#x2081;" horiz-adv-x="250" 
d="M174 -96h-50v298q-55 -23 -100 -27l-6 37q73 14 121 60h35v-368z" />
    <glyph glyph-name="twoinferior" unicode="&#x2082;" horiz-adv-x="299" 
d="M18 -96v36l142 148q27 28 37.5 46t10.5 44q0 55 -63 55q-54 0 -111 -46l-23 34q65 56 138 56q51 0 81 -25t30 -68q0 -55 -51 -109l-125 -128h181v-43h-247z" />
    <glyph glyph-name="threeinferior" unicode="&#x2083;" horiz-adv-x="314" 
d="M14 -53l25 32q52 -40 108 -40q84 0 84 65q0 67 -96 67q-3 0 -10 -0.5t-13 -0.5h-6v42q47 1 74.5 19t27.5 52q0 53 -69 53q-47 0 -91 -28l-18 34q53 35 118 35q51 0 80 -22.5t29 -66.5q0 -33 -20 -57.5t-55 -33.5q98 -7 98 -93q0 -50 -36.5 -78.5t-94.5 -28.5
q-84 0 -135 50z" />
    <glyph glyph-name="fourinferior" unicode="&#x2084;" horiz-adv-x="328" 
d="M214 226l-140 -201h140v201zM214 -96v79h-194v39l174 250h67v-247h46v-42h-46v-79h-47z" />
    <glyph glyph-name="fiveinferior" unicode="&#x2085;" horiz-adv-x="324" 
d="M52 38l18 234h198l-2 -42h-158l-10 -118q35 27 84 27q54 0 82 -31.5t28 -83.5q0 -58 -38.5 -92.5t-100.5 -34.5q-69 0 -123 35l18 35q56 -28 103 -28q42 0 68 22t26 64q0 32 -19 53t-55 21q-41 0 -76 -29l-3 -32h-40z" />
    <glyph glyph-name="sixinferior" unicode="&#x2086;" horiz-adv-x="330" 
d="M41 63q0 105 39.5 159.5t114.5 54.5q54 0 96 -28l-20 -35q-36 22 -73 22q-57 0 -81.5 -38.5t-29.5 -106.5q50 46 105 46t82.5 -31.5t27.5 -79.5q0 -61 -35.5 -95t-94.5 -34q-67 0 -99 45t-32 121zM186 97q-49 0 -98 -46q4 -115 86 -115q36 0 59 21.5t23 63.5q0 76 -70 76
z" />
    <glyph glyph-name="seveninferior" unicode="&#x2087;" horiz-adv-x="282" 
d="M263 241l-157 -337h-49v5l152 320h-198v43h252v-31z" />
    <glyph glyph-name="eightinferior" unicode="&#x2088;" horiz-adv-x="326" 
d="M80 -3q0 -29 22.5 -46.5t61.5 -17.5t62 18.5t23 51.5q0 17 -7 30t-22 21.5t-28 13t-34 10.5q-37 -14 -57.5 -31.5t-20.5 -49.5zM96 188q0 -17 12 -30.5t24.5 -20t35.5 -15.5q68 32 68 68q0 26 -19 40t-51 14t-51 -15t-19 -41zM33 -4q0 70 92 104q-76 27 -76 87
q0 41 32 65.5t84 24.5q54 0 85 -22t31 -62q0 -58 -74 -90q49 -18 70 -40.5t21 -58.5q0 -49 -36.5 -78t-97.5 -29q-62 0 -96.5 26.5t-34.5 72.5z" />
    <glyph glyph-name="nineinferior" unicode="&#x2089;" horiz-adv-x="329" 
d="M291 111q0 -106 -38.5 -160t-111.5 -54q-58 0 -99 27l17 36q42 -22 83 -22q94 0 104 144q-38 -51 -106 -51q-53 0 -81.5 34t-28.5 82q0 60 36 95t94 35q131 0 131 -166zM149 69q48 0 96 57q-4 112 -86 112t-82 -88q0 -39 18.5 -60t53.5 -21z" />
    <glyph glyph-name="Euro" unicode="&#x20ac;" horiz-adv-x="601" 
d="M-8 392l4 45h73q15 118 87.5 200.5t187.5 82.5q148 0 224 -126l-38 -27q-68 105 -187 105q-89 0 -145.5 -65t-72.5 -170h348l-4 -45h-349q-1 -11 -1 -33q0 -35 2 -51h341l-4 -45h-331q20 -103 77.5 -165t140.5 -62q102 0 188 84l33 -36q-91 -96 -226 -96
q-112 0 -180 78.5t-89 196.5h-90l4 45h80q-2 16 -2 49q0 23 1 35h-72z" />
    <glyph glyph-name="trademark" unicode="&#x2122;" horiz-adv-x="609" 
d="M567 463h-38l-22 200l-77 -200h-31l-74 200l-20 -200h-37l27 257h45l76 -204l78 204h43zM113 463v222h-85v35h208v-35h-84v-222h-39z" />
    <glyph glyph-name="Omega" unicode="&#x2126;" horiz-adv-x="787" 
d="M460 0v76q80 36 137 116t57 196q0 145 -68 216t-187 71q-118 0 -187.5 -75t-69.5 -220q0 -104 50.5 -182t120.5 -120v-78h-243v54h185v13q-72 40 -124.5 124.5t-52.5 194.5q0 170 89 258t232 88q144 0 231.5 -83t87.5 -252q0 -124 -60 -212t-140 -120v-11h185v-54h-243z
" />
    <glyph glyph-name="onethird" unicode="&#x2153;" horiz-adv-x="822" 
d="M100 -1l437 721h52l-436 -721h-53zM178 350h-50v298q-55 -23 -100 -27l-6 37q73 14 121 60h35v-368zM473 43l25 32q52 -40 108 -40q84 0 84 65q0 67 -96 67q-3 0 -10 -0.5t-13 -0.5h-6v42q47 1 74.5 19t27.5 52q0 53 -69 53q-47 0 -91 -28l-18 34q53 35 118 35
q51 0 80 -22.5t29 -66.5q0 -33 -20 -57.5t-55 -33.5q98 -7 98 -93q0 -50 -36.5 -78.5t-94.5 -28.5q-84 0 -135 50z" />
    <glyph glyph-name="twothirds" unicode="&#x2154;" horiz-adv-x="822" 
d="M178 -1l437 721h52l-436 -721h-53zM50 350v36l142 148q27 28 37.5 46t10.5 44q0 55 -63 55q-53 0 -111 -46l-23 34q65 56 138 56q51 0 81 -25t30 -68q0 -55 -51 -109l-125 -128h181v-43h-247zM529 43l25 32q52 -40 108 -40q84 0 84 65q0 67 -96 67q-3 0 -10 -0.5
t-13 -0.5h-6v42q47 1 74.5 19t27.5 52q0 53 -69 53q-47 0 -91 -28l-18 34q53 35 118 35q51 0 80 -22.5t29 -66.5q0 -33 -20 -57.5t-55 -33.5q98 -7 98 -93q0 -50 -36.5 -78.5t-94.5 -28.5q-84 0 -135 50z" />
    <glyph glyph-name="oneeighth" unicode="&#x215b;" horiz-adv-x="822" 
d="M121 -1l437 721h52l-436 -721h-53zM204 350h-50v298q-55 -23 -100 -27l-6 37q73 14 121 60h35v-368zM518 93q0 -29 22.5 -46.5t61.5 -17.5t62 18.5t23 51.5q0 17 -7 30t-22 21.5t-28 13t-34 10.5q-37 -14 -57.5 -31.5t-20.5 -49.5zM534 284q0 -17 12 -30.5t24.5 -20
t35.5 -15.5q68 32 68 68q0 26 -19 40t-51 14t-51 -15t-19 -41zM471 92q0 70 92 104q-76 27 -76 87q0 41 32 65.5t84 24.5q54 0 85 -22t31 -62q0 -58 -74 -90q49 -18 70 -40.5t21 -58.5q0 -49 -36.5 -78t-97.5 -29q-62 0 -96.5 26.5t-34.5 72.5z" />
    <glyph glyph-name="threeeighths" unicode="&#x215c;" horiz-adv-x="822" 
d="M161 -1l437 721h52l-436 -721h-53zM548 93q0 -29 22.5 -46.5t61.5 -17.5t62 18.5t23 51.5q0 17 -7 30t-22 21.5t-28 13t-34 10.5q-37 -14 -57.5 -31.5t-20.5 -49.5zM564 284q0 -17 12 -30.5t24.5 -20t35.5 -15.5q68 32 68 68q0 26 -19 40t-51 14t-51 -15t-19 -41zM501 92
q0 70 92 104q-76 27 -76 87q0 41 32 65.5t84 24.5q54 0 85 -22t31 -62q0 -58 -74 -90q49 -18 70 -40.5t21 -58.5q0 -49 -36.5 -78t-97.5 -29q-62 0 -96.5 26.5t-34.5 72.5zM37 393l25 32q52 -40 108 -40q84 0 84 65q0 67 -96 67q-3 0 -10 -0.5t-13 -0.5h-6v42q47 1 74.5 19
t27.5 52q0 53 -69 53q-47 0 -91 -28l-18 34q53 35 118 35q51 0 80 -22.5t29 -66.5q0 -33 -20 -57.5t-55 -33.5q98 -7 98 -93q0 -50 -36.5 -78.5t-94.5 -28.5q-84 0 -135 50z" />
    <glyph glyph-name="fiveeighths" unicode="&#x215d;" horiz-adv-x="822" 
d="M169 -1l437 721h52l-436 -721h-53zM69 484l18 234h198l-2 -42h-158l-10 -118q35 27 84 27q54 0 82 -31.5t28 -83.5q0 -58 -38.5 -92.5t-100.5 -34.5q-69 0 -123 35l18 35q56 -28 103 -28q42 0 68 22t26 64q0 32 -19 53t-55 21q-41 0 -76 -29l-3 -32h-40zM559 93
q0 -29 22.5 -46.5t61.5 -17.5t62 18.5t23 51.5q0 17 -7 30t-22 21.5t-28 13t-34 10.5q-37 -14 -57.5 -31.5t-20.5 -49.5zM575 284q0 -17 12 -30.5t24.5 -20t35.5 -15.5q68 32 68 68q0 26 -19 40t-51 14t-51 -15t-19 -41zM512 92q0 70 92 104q-76 27 -76 87q0 41 32 65.5
t84 24.5q54 0 85 -22t31 -62q0 -58 -74 -90q49 -18 70 -40.5t21 -58.5q0 -49 -36.5 -78t-97.5 -29q-62 0 -96.5 26.5t-34.5 72.5z" />
    <glyph glyph-name="seveneighths" unicode="&#x215e;" horiz-adv-x="822" 
d="M132 -1l437 721h52l-436 -721h-53zM541 93q0 -29 22.5 -46.5t61.5 -17.5t62 18.5t23 51.5q0 17 -7 30t-22 21.5t-28 13t-34 10.5q-37 -14 -57.5 -31.5t-20.5 -49.5zM557 284q0 -17 12 -30.5t24.5 -20t35.5 -15.5q68 32 68 68q0 26 -19 40t-51 14t-51 -15t-19 -41zM494 92
q0 70 92 104q-76 27 -76 87q0 41 32 65.5t84 24.5q54 0 85 -22t31 -62q0 -58 -74 -90q49 -18 70 -40.5t21 -58.5q0 -49 -36.5 -78t-97.5 -29q-62 0 -96.5 26.5t-34.5 72.5zM303 687l-157 -337h-49v5l152 320h-198v43h252v-31z" />
    <glyph glyph-name="arrowleft" unicode="&#x2190;" horiz-adv-x="500" 
d="M500 285v-45h-419l118 -117l-31 -29l-168 167v2l168 169l30 -30l-117 -117h419z" />
    <glyph glyph-name="arrowright" unicode="&#x2192;" horiz-adv-x="500" 
d="M0 240v45h419l-117 117l30 30l168 -169v-2l-168 -167l-31 29l118 117h-419z" />
    <glyph glyph-name="arrowdown" unicode="&#x2193;" horiz-adv-x="500" 
d="M228 512h45v-421l117 118l29 -29l-167 -168l-171 168l29 27l118 -116v421z" />
    <glyph glyph-name="partialdiff" unicode="&#x2202;" horiz-adv-x="591" 
d="M237 -12q-83 0 -128.5 50.5t-45.5 135.5q0 111 57.5 186.5t159.5 75.5q59 0 107 -37t55 -105q9 90 9 135q0 110 -34.5 166t-111.5 56q-69 0 -136 -44l-21 40q73 54 159 54q197 0 197 -263q0 -51 -4.5 -98.5t-15 -100.5t-31 -96.5t-48.5 -79t-71 -55.5t-97 -20zM244 41
q79 0 126 59.5t47 128.5q0 72 -37 115t-97 43q-79 0 -121 -63t-42 -145q0 -69 34.5 -103.5t89.5 -34.5z" />
    <glyph glyph-name="Delta" unicode="&#x2206;" horiz-adv-x="655" 
d="M292 720h69l263 -720h-593zM109 51h435l-218 604z" />
    <glyph glyph-name="product" unicode="&#x220f;" horiz-adv-x="693" 
d="M88 -140v860h518v-860h-61v809h-397v-809h-60z" />
    <glyph glyph-name="summation" unicode="&#x2211;" horiz-adv-x="571" 
d="M502 666h-376l231 -347l-235 -384h419v-54h-505v27l248 410l-248 375v27h466v-54z" />
    <glyph glyph-name="minus" unicode="&#x2212;" 
d="M560 322v-47h-520v47h520z" />
    <glyph glyph-name="uni2215" unicode="&#x2215;" horiz-adv-x="128" 
d="M-185 -1l437 721h52l-436 -721h-53z" />
    <glyph glyph-name="uni2219" unicode="&#x2219;" horiz-adv-x="265" 
d="M87 339q0 21 13 33.5t33 12.5q21 0 34 -12t13 -34q0 -19 -13.5 -32t-33.5 -13t-33 12.5t-13 32.5z" />
    <glyph glyph-name="radical" unicode="&#x221a;" horiz-adv-x="716" 
d="M35 256v46h179l132 -393l309 915h55l-336 -990h-57l-146 422h-136z" />
    <glyph glyph-name="infinity" unicode="&#x221e;" horiz-adv-x="759" 
d="M702 313q0 -71 -38 -114.5t-95 -43.5q-12 0 -24.5 2.5t-23 5t-22 9t-19.5 10.5t-19.5 13.5l-17 14t-17 15.5t-15 15l-14.5 16t-13 14q-93 -115 -179 -115q-67 0 -107 39t-40 108q0 68 41 111t108 43q54 0 94 -31t83 -90q29 34 42 47.5t38.5 35.5t50 30.5t52.5 8.5
q64 0 99.5 -41.5t35.5 -102.5zM655 307q0 47 -23.5 77t-71.5 30q-39 0 -69.5 -24t-79.5 -86q82 -107 155 -107q43 0 66 33t23 77zM357 303q-40 58 -75 84t-75 26q-51 0 -76.5 -32t-25.5 -78q0 -48 26.5 -77.5t75.5 -29.5q75 0 150 107z" />
    <glyph glyph-name="integral" unicode="&#x222b;" horiz-adv-x="358" 
d="M16 -154h51q42 0 62 26t20 88v676q0 70 31 112t97 42h63v-46h-55q-44 0 -62.5 -31.5t-18.5 -93.5v-654q0 -81 -28 -123t-106 -42h-54v46z" />
    <glyph glyph-name="approxequal" unicode="&#x2248;" horiz-adv-x="744" 
d="M669 234l30 -37q-96 -78 -184 -78q-53 0 -145 35t-134 35t-78 -17t-80 -52l-29 39q96 78 191 78q56 0 148 -35t125 -35q39 0 73.5 15.5t82.5 51.5zM673 425l30 -37q-96 -78 -184 -78q-53 0 -145 35t-134 35t-78 -17t-80 -52l-29 39q96 78 191 78q56 0 148 -35t125 -35
q39 0 73.5 15.5t82.5 51.5z" />
    <glyph glyph-name="notequal" unicode="&#x2260;" 
d="M560 229v-44h-290l-112 -185h-53l112 185h-177v44h203l66 109h-269v45h296l85 140h53l-85 -140h171v-45h-198l-66 -109h264z" />
    <glyph glyph-name="lessequal" unicode="&#x2264;" 
d="M560 47v-47h-520v47h520zM541 101l-500 220v29l500 219l18 -44l-437 -190l437 -189z" />
    <glyph glyph-name="greaterequal" unicode="&#x2265;" 
d="M39 0v47h520v-47h-520zM558 321l-500 -220l-18 45l437 189l-437 190l18 44l500 -219v-29z" />
    <glyph glyph-name="triangle" unicode="&#x25b3;" horiz-adv-x="425" 
d="M335 320l-185 -117v231z" />
    <glyph glyph-name="lozenge" unicode="&#x25ca;" horiz-adv-x="608" 
d="M275 0l-190 352l190 348h50l199 -346l-199 -354h-50zM300 646l-158 -294l158 -298l165 298z" />
    <glyph glyph-name="circle" unicode="&#x25cb;" horiz-adv-x="610" 
d="M305 119q-85 0 -145 60t-60 145t60 145t145 60t145 -60t60 -145t-60 -145t-145 -60z" />
    <glyph glyph-name="onefifth" unicode="&#xf500;" horiz-adv-x="822" 
d="M110 -1l437 721h52l-436 -721h-53zM205 350h-50v298q-55 -23 -100 -27l-6 37q73 14 121 60h35v-368zM491 134l18 234h198l-2 -42h-158l-10 -118q35 27 84 27q54 0 82 -31.5t28 -83.5q0 -58 -38.5 -92.5t-100.5 -34.5q-69 0 -123 35l18 35q56 -28 103 -28q42 0 68 22
t26 64q0 32 -19 53t-55 21q-41 0 -76 -29l-3 -32h-40z" />
    <glyph glyph-name="twofifths" unicode="&#xf501;" horiz-adv-x="822" 
d="M164 -1l437 721h52l-436 -721h-53zM47 350v36l142 148q27 28 37.5 46t10.5 44q0 55 -63 55q-54 0 -111 -46l-23 34q65 56 138 56q51 0 81 -25t30 -68q0 -55 -51 -109l-125 -128h181v-43h-247zM526 134l18 234h198l-2 -42h-158l-10 -118q35 27 84 27q54 0 82 -31.5
t28 -83.5q0 -58 -38.5 -92.5t-100.5 -34.5q-69 0 -123 35l18 35q56 -28 103 -28q42 0 68 22t26 64q0 32 -19 53t-55 21q-41 0 -76 -29l-3 -32h-40z" />
    <glyph glyph-name="threefifths" unicode="&#xf502;" horiz-adv-x="822" 
d="M178 -1l437 721h52l-436 -721h-53zM540 134l18 234h198l-2 -42h-158l-10 -118q35 27 84 27q54 0 82 -31.5t28 -83.5q0 -58 -38.5 -92.5t-100.5 -34.5q-69 0 -123 35l18 35q56 -28 103 -28q42 0 68 22t26 64q0 32 -19 53t-55 21q-41 0 -76 -29l-3 -32h-40zM65 393l25 32
q52 -40 108 -40q84 0 84 65q0 67 -96 67q-3 0 -10 -0.5t-13 -0.5h-6v42q47 1 74.5 19t27.5 52q0 53 -69 53q-47 0 -91 -28l-18 34q53 35 118 35q51 0 80 -22.5t29 -66.5q0 -33 -20 -57.5t-55 -33.5q98 -7 98 -93q0 -50 -36.5 -78.5t-94.5 -28.5q-84 0 -135 50z" />
    <glyph glyph-name="fourfifths" unicode="&#xf503;" horiz-adv-x="822" 
d="M162 -1l437 721h52l-436 -721h-53zM531 134l18 234h198l-2 -42h-158l-10 -118q35 27 84 27q54 0 82 -31.5t28 -83.5q0 -58 -38.5 -92.5t-100.5 -34.5q-69 0 -123 35l18 35q56 -28 103 -28q42 0 68 22t26 64q0 32 -19 53t-55 21q-41 0 -76 -29l-3 -32h-40zM215 672
l-140 -201h140v201zM215 350v79h-194v39l174 250h67v-247h46v-42h-46v-79h-47z" />
    <glyph glyph-name="onesixth" unicode="&#xf504;" horiz-adv-x="822" 
d="M120 -1l437 721h52l-436 -721h-53zM204 350h-50v298q-55 -23 -100 -27l-6 37q73 14 121 60h35v-368zM473 159q0 105 39.5 159.5t114.5 54.5q54 0 96 -28l-20 -35q-36 22 -73 22q-57 0 -81.5 -38.5t-29.5 -106.5q50 46 105 46t82.5 -31.5t27.5 -79.5q0 -61 -35.5 -95
t-94.5 -34q-67 0 -99 45t-32 121zM618 193q-49 0 -98 -46q4 -115 86 -115q36 0 59 21.5t23 63.5q0 76 -70 76z" />
    <glyph glyph-name="fivesixths" unicode="&#xf505;" horiz-adv-x="822" 
d="M162 -1l437 721h52l-436 -721h-53zM495 159q0 105 39.5 159.5t114.5 54.5q54 0 96 -28l-20 -35q-36 22 -73 22q-57 0 -81.5 -38.5t-29.5 -106.5q50 46 105 46t82.5 -31.5t27.5 -79.5q0 -61 -35.5 -95t-94.5 -34q-67 0 -99 45t-32 121zM640 193q-49 0 -98 -46
q4 -115 86 -115q36 0 59 21.5t23 63.5q0 76 -70 76zM74 484l18 234h198l-2 -42h-158l-10 -118q35 27 84 27q54 0 82 -31.5t28 -83.5q0 -58 -38.5 -92.5t-100.5 -34.5q-69 0 -123 35l18 35q56 -28 103 -28q42 0 68 22t26 64q0 32 -19 53t-55 21q-41 0 -76 -29l-3 -32h-40z
" />
    <glyph glyph-name="oneseventh" unicode="&#xf506;" horiz-adv-x="822" 
d="M96 -1l437 721h52l-436 -721h-53zM176 350h-50v298q-55 -23 -100 -27l-6 37q73 14 121 60h35v-368zM742 337l-157 -337h-49v5l152 320h-198v43h252v-31z" />
    <glyph glyph-name="twosevenths" unicode="&#xf507;" horiz-adv-x="822" 
d="M173 -1l437 721h52l-436 -721h-53zM50 350v36l142 148q27 28 37.5 46t10.5 44q0 55 -63 55q-53 0 -111 -46l-23 34q65 56 138 56q51 0 81 -25t30 -68q0 -55 -51 -109l-125 -128h181v-43h-247zM777 337l-157 -337h-49v5l152 320h-198v43h252v-31z" />
    <glyph glyph-name="threesevenths" unicode="&#xf508;" horiz-adv-x="822" 
d="M140 -1l437 721h52l-436 -721h-53zM764 337l-157 -337h-49v5l152 320h-198v43h252v-31zM20 393l25 32q52 -40 108 -40q84 0 84 65q0 67 -96 67q-3 0 -10 -0.5t-13 -0.5h-6v42q47 1 74.5 19t27.5 52q0 53 -69 53q-47 0 -91 -28l-18 34q53 35 118 35q51 0 80 -22.5
t29 -66.5q0 -33 -20 -57.5t-55 -33.5q98 -7 98 -93q0 -50 -36.5 -78.5t-94.5 -28.5q-84 0 -135 50z" />
    <glyph glyph-name="foursevenths" unicode="&#xf509;" horiz-adv-x="822" 
d="M142 -1l437 721h52l-436 -721h-53zM213 672l-140 -201h140v201zM213 350v79h-194v39l174 250h67v-247h46v-42h-46v-79h-47zM763 337l-157 -337h-49v5l152 320h-198v43h252v-31z" />
    <glyph glyph-name="fivesevenths" unicode="&#xf50a;" horiz-adv-x="822" 
d="M141 -1l437 721h52l-436 -721h-53zM56 484l18 234h198l-2 -42h-158l-10 -118q35 27 84 27q54 0 82 -31.5t28 -83.5q0 -58 -38.5 -92.5t-100.5 -34.5q-69 0 -123 35l18 35q56 -28 103 -28q42 0 68 22t26 64q0 32 -19 53t-55 21q-41 0 -76 -29l-3 -32h-40zM764 337
l-157 -337h-49v5l152 320h-198v43h252v-31z" />
    <glyph glyph-name="sixsevenths" unicode="&#xf50b;" horiz-adv-x="822" 
d="M145 -1l437 721h52l-436 -721h-53zM38 509q0 105 39.5 159.5t114.5 54.5q54 0 96 -28l-20 -35q-36 22 -73 22q-57 0 -81.5 -38.5t-29.5 -106.5q50 46 105 46t82.5 -31.5t27.5 -79.5q0 -61 -35.5 -95t-94.5 -34q-67 0 -99 45t-32 121zM183 543q-49 0 -98 -46
q4 -115 86 -115q36 0 59 21.5t23 63.5q0 76 -70 76zM777 337l-157 -337h-49v5l152 320h-198v43h252v-31z" />
    <glyph glyph-name="oneninth" unicode="&#xf50c;" horiz-adv-x="822" 
d="M130 -1l437 721h52l-436 -721h-53zM203 350h-50v298q-55 -23 -100 -27l-6 37q73 14 121 60h35v-368zM759 207q0 -106 -38.5 -160t-111.5 -54q-58 0 -99 27l17 36q42 -22 83 -22q94 0 104 144q-38 -51 -106 -51q-53 0 -81.5 34t-28.5 82q0 60 36 95t94 35q131 0 131 -166z
M617 165q48 0 96 57q-4 112 -86 112t-82 -88q0 -39 18.5 -60t53.5 -21z" />
    <glyph glyph-name="twoninths" unicode="&#xf50d;" horiz-adv-x="822" 
d="M193 -1l437 721h52l-436 -721h-53zM55 350v36l142 148q27 28 37.5 46t10.5 44q0 55 -63 55q-54 0 -111 -46l-23 34q65 56 138 56q51 0 81 -25t30 -68q0 -55 -51 -109l-125 -128h181v-43h-247zM786 207q0 -106 -38.5 -160t-111.5 -54q-58 0 -99 27l17 36q42 -22 83 -22
q94 0 104 144q-38 -51 -106 -51q-53 0 -81.5 34t-28.5 82q0 60 36 95t94 35q131 0 131 -166zM644 165q48 0 96 57q-4 112 -86 112t-82 -88q0 -39 18.5 -60t53.5 -21z" />
    <glyph glyph-name="fourninths" unicode="&#xf50e;" horiz-adv-x="822" 
d="M185 -1l437 721h52l-436 -721h-53zM237 672l-140 -201h140v201zM237 350v79h-194v39l174 250h67v-247h46v-42h-46v-79h-47zM781 207q0 -106 -38.5 -160t-111.5 -54q-58 0 -99 27l17 36q42 -22 83 -22q94 0 104 144q-38 -51 -106 -51q-53 0 -81.5 34t-28.5 82q0 60 36 95
t94 35q131 0 131 -166zM639 165q48 0 96 57q-4 112 -86 112t-82 -88q0 -39 18.5 -60t53.5 -21z" />
    <glyph glyph-name="fiveninths" unicode="&#xf50f;" horiz-adv-x="822" 
d="M150 -1l437 721h52l-436 -721h-53zM56 484l18 234h198l-2 -42h-158l-10 -118q35 27 84 27q54 0 82 -31.5t28 -83.5q0 -58 -38.5 -92.5t-100.5 -34.5q-69 0 -123 35l18 35q56 -28 103 -28q42 0 68 22t26 64q0 32 -19 53t-55 21q-41 0 -76 -29l-3 -32h-40zM752 207
q0 -106 -38.5 -160t-111.5 -54q-58 0 -99 27l17 36q42 -22 83 -22q94 0 104 144q-38 -51 -106 -51q-53 0 -81.5 34t-28.5 82q0 60 36 95t94 35q131 0 131 -166zM610 165q48 0 96 57q-4 112 -86 112t-82 -88q0 -39 18.5 -60t53.5 -21z" />
    <glyph glyph-name="sevenninths" unicode="&#xf510;" horiz-adv-x="822" 
d="M97 -1l437 721h52l-436 -721h-53zM749 207q0 -106 -38.5 -160t-111.5 -54q-58 0 -99 27l17 36q42 -22 83 -22q94 0 104 144q-38 -51 -106 -51q-53 0 -81.5 34t-28.5 82q0 60 36 95t94 35q131 0 131 -166zM607 165q48 0 96 57q-4 112 -86 112t-82 -88q0 -39 18.5 -60
t53.5 -21zM266 687l-157 -337h-49v5l152 320h-198v43h252v-31z" />
    <glyph glyph-name="eightninths" unicode="&#xf511;" horiz-adv-x="822" 
d="M165 -1l437 721h52l-436 -721h-53zM760 207q0 -106 -38.5 -160t-111.5 -54q-58 0 -99 27l17 36q42 -22 83 -22q94 0 104 144q-38 -51 -106 -51q-53 0 -81.5 34t-28.5 82q0 60 36 95t94 35q131 0 131 -166zM618 165q48 0 96 57q-4 112 -86 112t-82 -88q0 -39 18.5 -60
t53.5 -21zM106 443q0 -29 22.5 -46.5t61.5 -17.5t62 18.5t23 51.5q0 17 -7 30t-22 21.5t-28 13t-34 10.5q-37 -14 -57.5 -31.5t-20.5 -49.5zM122 634q0 -17 12 -30.5t24.5 -20t35.5 -15.5q68 32 68 68q0 26 -19 40t-51 14t-51 -15t-19 -41zM59 442q0 70 92 104
q-76 27 -76 87q0 41 32 65.5t84 24.5q54 0 85 -22t31 -62q0 -58 -74 -90q49 -18 70 -40.5t21 -58.5q0 -49 -36.5 -78t-97.5 -29q-62 0 -96.5 26.5t-34.5 72.5z" />
    <glyph glyph-name="zero.tosf" unicode="&#xf81e;" 
d="M129 306q0 -136 42.5 -199.5t128.5 -63.5q85 0 127.5 64.5t42.5 202.5q0 130 -41.5 188.5t-126.5 58.5q-173 0 -173 -251zM71 306q0 146 60 226t170 80q227 0 227 -302q0 -322 -229 -322q-228 0 -228 318z" />
    <glyph glyph-name="one.tosf" unicode="&#xf81f;" 
d="M305 46v468q-84 -58 -174 -76l-9 46q52 12 107.5 44.5t92.5 72.5h40v-555h141v-46h-359v46h161z" />
    <glyph glyph-name="two.tosf" unicode="&#xf820;" 
d="M103 0v41l249 255q42 43 62.5 78t20.5 73q0 52 -37.5 82.5t-94.5 30.5q-91 0 -172 -81l-33 37q88 96 210 96q81 0 134.5 -42t53.5 -118q0 -51 -21 -90.5t-70 -88.5l-220 -221h316v-52h-398z" />
    <glyph glyph-name="three.tosf" unicode="&#xf821;" 
d="M66 26l35 38q79 -81 186 -81q69 0 113 38t44 102q0 132 -171 133q-43 0 -49 -2l-3 51q81 1 133 37t52 100q0 57 -37.5 87t-92.5 30q-85 0 -157 -52l-26 40q86 65 188 65q81 0 132.5 -42.5t51.5 -120.5q0 -58 -35.5 -100t-94.5 -60q83 -9 125.5 -54t42.5 -113
q0 -90 -61.5 -141.5t-152.5 -51.5q-134 0 -223 97z" />
    <glyph glyph-name="four.tosf" unicode="&#xf822;" 
d="M132 166h259v377zM391 -60v175h-327v44l306 442h75v-435h88v-51h-88v-175h-54z" />
    <glyph glyph-name="five.tosf" unicode="&#xf823;" 
d="M115 206l27 395h331l-3 -55h-278l-17 -235q53 55 143 55q95 0 146.5 -55.5t51.5 -155.5q0 -106 -64.5 -166t-163.5 -60q-107 0 -196 61l26 45q81 -51 162 -51q79 0 127.5 45t48.5 127q0 71 -37.5 115t-108.5 44q-84 0 -139 -61l-4 -48h-52z" />
    <glyph glyph-name="six.tosf" unicode="&#xf824;" 
d="M88 298q0 210 66.5 316t185.5 106q84 0 149 -57l-28 -40q-57 46 -121 46q-176 0 -196 -315q81 83 179 83q92 0 140 -62.5t48 -157.5q0 -110 -54.5 -169.5t-151.5 -59.5q-108 0 -162.5 79.5t-54.5 230.5zM307 41q64 0 105.5 42.5t41.5 130.5q0 85 -40 128t-102 43
q-84 0 -168 -87q0 -257 163 -257z" />
    <glyph glyph-name="seven.tosf" unicode="&#xf825;" 
d="M502 560l-267 -620h-60v8l262 598h-354v55h419v-41z" />
    <glyph glyph-name="eight.tosf" unicode="&#xf826;" 
d="M143 174q0 -61 42 -98t114 -37q71 0 114.5 41t43.5 109q0 115 -164 169q-150 -62 -150 -184zM172 550q0 -93 134 -142q48 21 86.5 61t38.5 90q0 54 -34.5 83t-93.5 29t-95 -32t-36 -89zM85 174q0 72 42.5 125.5t116.5 83.5q-130 49 -130 169q0 76 53 122t136 46
t134.5 -42.5t51.5 -115.5q0 -55 -36 -101.5t-94 -75.5q80 -34 118.5 -81t38.5 -115q0 -92 -60.5 -146.5t-160.5 -54.5q-99 0 -154.5 49.5t-55.5 136.5z" />
    <glyph glyph-name="nine.tosf" unicode="&#xf827;" 
d="M511 309q0 -209 -60 -294.5t-171 -85.5q-103 0 -166 53l28 43q64 -45 139 -45q84 0 124.5 66.5t49.5 196.5q-82 -80 -179 -80q-92 0 -140 63t-48 158q0 103 56 165.5t151 62.5q106 0 161 -81t55 -222zM293 558q-63 0 -105 -43.5t-42 -128.5t39.5 -127.5t100.5 -42.5
q89 0 168 89q1 128 -42.5 190.5t-118.5 62.5z" />
    <glyph glyph-name="ampersand.alt" horiz-adv-x="708" 
d="M606 -9l-85 101q-91 -110 -216 -110q-98 0 -160.5 59t-62.5 153q0 143 174 223q-82 87 -82 160q0 64 44 104.5t112 40.5q69 0 110 -37.5t41 -113.5v-27h-54v20q0 52 -27 80.5t-72 28.5q-43 0 -70.5 -26.5t-27.5 -67.5q0 -47 78 -141l124 -149l129 102l32 -38l-130 -104
l185 -224zM308 33q97 0 181 103l-201 244q-147 -66 -147 -185q0 -67 46.5 -114.5t120.5 -47.5z" />
    <glyph glyph-name="J.alt" horiz-adv-x="386" 
d="M304 720v-541q0 -179 -192 -179h-78v53h58q76 0 113.5 28t37.5 98v541h61z" />
    <glyph glyph-name="Q.alt" horiz-adv-x="757" 
d="M60 370q0 176 89.5 269.5t235.5 93.5q138 0 225 -94t87 -269q0 -183 -78.5 -276.5t-209.5 -103.5v-118h-57v117q-134 9 -213 103.5t-79 277.5zM124 370q0 -163 69.5 -244.5t189.5 -81.5q116 0 183 81t67 245q0 147 -68.5 227t-183.5 80q-118 0 -187.5 -80t-69.5 -227z
" />
    <glyph glyph-name="j.alt" horiz-adv-x="230" 
d="M144 524v-603q0 -61 -27.5 -92.5t-93.5 -31.5h-36v51h24q41 0 58.5 14.5t17.5 59.5v602h57zM74 669q0 18 12.5 29.5t30.5 11.5t29.5 -11.5t11.5 -29.5t-11.5 -29.5t-29.5 -11.5t-30.5 11.5t-12.5 29.5z" />
    <glyph glyph-name="m.alt" horiz-adv-x="793" 
d="M74 524h206q64 0 94 -21t41 -62q80 95 176 95q78 0 107.5 -47.5t29.5 -126.5v-362h-57v356q0 62 -21 94t-74 32q-68 0 -145 -94v-388h-58v359q0 61 -21.5 87t-80.5 26h-140v-472h-57v524z" />
    <glyph glyph-name="y.alt" horiz-adv-x="459" 
d="M380 524h59l-177 -534v-87q0 -56 -24 -79.5t-78 -23.5h-53v50h55q23 0 33 10t10 40v90l-191 534h63l157 -447z" />
    <glyph glyph-name="hyphen.case" horiz-adv-x="338" 
d="M36 333v51h266v-51h-266z" />
    <glyph glyph-name="Jcircumflex.alt" horiz-adv-x="386" 
d="M304 720v-541q0 -179 -192 -179h-78v53h58q76 0 113.5 28t37.5 98v541h61zM253 868h44l87 -87l-24 -24l-85 67l-84 -68l-26 25z" />
    <glyph glyph-name="jcircumflex.alt" horiz-adv-x="230" 
d="M144 524v-603q0 -61 -27.5 -92.5t-93.5 -31.5h-47v52h40q38 0 54.5 14.5t16.5 58.5v602h57zM94 753h43l106 -149l-28 -19l-99 121l-99 -121l-28 19z" />
    <glyph glyph-name="ygrave.alt" horiz-adv-x="459" 
d="M380 524h59l-177 -534v-87q0 -56 -24 -79.5t-78 -23.5h-53v50h55q23 0 33 10t10 40v90l-191 534h63l157 -447zM151 746l137 -130l-26 -30l-146 122z" />
    <glyph glyph-name="ycircumflex.alt" horiz-adv-x="459" 
d="M380 524h59l-177 -534v-87q0 -56 -24 -79.5t-78 -23.5h-53v50h55q23 0 33 10t10 40v90l-191 534h63l157 -447zM212 753h43l106 -149l-30 -21l-97 121l-97 -120l-30 20z" />
    <glyph glyph-name="ydieresis.alt" horiz-adv-x="459" 
d="M380 524h59l-177 -534v-87q0 -56 -24 -79.5t-78 -23.5h-53v50h55q23 0 33 10t10 40v90l-191 534h63l157 -447zM279 654q0 17 12.5 29t30.5 12t30 -12t12 -29t-12 -28.5t-30 -11.5q-19 0 -31 11.5t-12 28.5zM101 654q0 17 12.5 29t30.5 12t30 -12t12 -29t-12 -28.5
t-30 -11.5q-19 0 -31 11.5t-12 28.5z" />
    <glyph glyph-name="yacute.alt" horiz-adv-x="459" 
d="M380 524h59l-177 -534v-87q0 -56 -24 -79.5t-78 -23.5h-53v50h55q23 0 33 10t10 40v90l-191 534h63l157 -447zM179 606l138 130l34 -39l-146 -121z" />
    <glyph glyph-name="agrave.alt" horiz-adv-x="568" 
d="M441 0l-1 75q-70 -87 -176 -87q-107 0 -160.5 73.5t-53.5 199.5q0 125 56 200t159 75q99 0 173 -91v79h56v-524h-53zM437 132v248q-74 103 -165 103q-74 0 -118 -58.5t-44 -163.5q0 -92 40 -156t127 -64q86 0 160 91zM233 746l137 -130l-26 -30l-146 122z" />
    <glyph glyph-name="a.alt" horiz-adv-x="568" 
d="M441 0l-1 75q-70 -87 -176 -87q-107 0 -160.5 73.5t-53.5 199.5q0 125 56 200t159 75q99 0 173 -91v79h56v-524h-53zM437 132v248q-74 103 -165 103q-74 0 -118 -58.5t-44 -163.5q0 -92 40 -156t127 -64q86 0 160 91z" />
    <glyph glyph-name="aacute.alt" horiz-adv-x="568" 
d="M441 0l-1 75q-70 -87 -176 -87q-107 0 -160.5 73.5t-53.5 199.5q0 125 56 200t159 75q99 0 173 -91v79h56v-524h-53zM437 132v248q-74 103 -165 103q-74 0 -118 -58.5t-44 -163.5q0 -92 40 -156t127 -64q86 0 160 91zM223 616l138 130l34 -39l-146 -121z" />
    <glyph glyph-name="acircumflex.alt" horiz-adv-x="568" 
d="M441 0l-1 75q-70 -87 -176 -87q-107 0 -160.5 73.5t-53.5 199.5q0 125 56 200t159 75q99 0 173 -91v79h56v-524h-53zM437 132v248q-74 103 -165 103q-74 0 -118 -58.5t-44 -163.5q0 -92 40 -156t127 -64q86 0 160 91zM260 753h43l106 -149l-30 -21l-97 121l-97 -120
l-30 20z" />
    <glyph glyph-name="atilde.alt" horiz-adv-x="568" 
d="M441 0l-1 75q-70 -87 -176 -87q-107 0 -160.5 73.5t-53.5 199.5q0 125 56 200t159 75q99 0 173 -91v79h56v-524h-53zM437 132v248q-74 103 -165 103q-74 0 -118 -58.5t-44 -163.5q0 -92 40 -156t127 -64q86 0 160 91zM395 688l33 -14q-19 -64 -72 -64q-26 0 -69.5 17
t-56.5 17t-21 -7t-21 -30l-34 15q27 66 77 66q22 0 61.5 -17.5t59.5 -17.5q15 0 24.5 7t18.5 28z" />
    <glyph glyph-name="adieresis.alt" horiz-adv-x="568" 
d="M441 0l-1 75q-70 -87 -176 -87q-107 0 -160.5 73.5t-53.5 199.5q0 125 56 200t159 75q99 0 173 -91v79h56v-524h-53zM437 132v248q-74 103 -165 103q-74 0 -118 -58.5t-44 -163.5q0 -92 40 -156t127 -64q86 0 160 91zM335 654q0 17 12.5 29t30.5 12t30 -12t12 -29
t-12 -28.5t-30 -11.5q-19 0 -31 11.5t-12 28.5zM157 654q0 17 12.5 29t30.5 12t30 -12t12 -29t-12 -28.5t-30 -11.5q-19 0 -31 11.5t-12 28.5z" />
    <glyph glyph-name="aring.alt" horiz-adv-x="568" 
d="M441 0l-1 75q-70 -87 -176 -87q-107 0 -160.5 73.5t-53.5 199.5q0 125 56 200t159 75q99 0 173 -91v79h56v-524h-53zM437 132v248q-74 103 -165 103q-74 0 -118 -58.5t-44 -163.5q0 -92 40 -156t127 -64q86 0 160 91zM237 661q0 -23 13.5 -36t35.5 -13q23 0 36.5 14.5
t13.5 37.5q0 22 -13.5 35t-36.5 13q-22 0 -35.5 -14t-13.5 -37zM196 661q0 38 26 63t64 25q39 0 64.5 -23.5t25.5 -61.5q0 -39 -25 -63t-65 -24t-65 23t-25 61z" />
    <glyph glyph-name="amacron.alt" horiz-adv-x="568" 
d="M441 0l-1 75q-70 -87 -176 -87q-107 0 -160.5 73.5t-53.5 199.5q0 125 56 200t159 75q99 0 173 -91v79h56v-524h-53zM437 132v248q-74 103 -165 103q-74 0 -118 -58.5t-44 -163.5q0 -92 40 -156t127 -64q86 0 160 91zM162 627v47h270v-47h-270z" />
    <glyph glyph-name="abreve.alt" horiz-adv-x="568" 
d="M441 0l-1 75q-70 -87 -176 -87q-107 0 -160.5 73.5t-53.5 199.5q0 125 56 200t159 75q99 0 173 -91v79h56v-524h-53zM437 132v248q-74 103 -165 103q-74 0 -118 -58.5t-44 -163.5q0 -92 40 -156t127 -64q86 0 160 91zM290 637q50 0 71.5 22.5t27.5 69.5l41 -8
q-10 -125 -140 -125q-65 0 -98 29t-43 95l42 9q9 -51 30.5 -71.5t68.5 -20.5z" />
    <glyph glyph-name="aogonek.alt" horiz-adv-x="568" 
d="M494 0q-92 -79 -92 -136q0 -39 42 -39q24 0 59 19l18 -33q-45 -30 -88 -30q-39 0 -61 20t-22 54q0 71 91 150l-1 70q-70 -87 -176 -87q-107 0 -160.5 73.5t-53.5 199.5q0 125 56 200t159 75q99 0 173 -91v79h56v-524zM437 132v248q-74 103 -165 103q-74 0 -118 -58.5
t-44 -163.5q0 -92 40 -156t127 -64q86 0 160 91z" />
    <glyph glyph-name="gcircumflex.alt" horiz-adv-x="577" 
d="M494 524v-516q0 -123 -53.5 -165.5t-185.5 -42.5h-133v52h144q100 0 136.5 36.5t36.5 129.5v55q-68 -83 -176 -83q-109 0 -161 75t-52 196t54.5 198t163.5 77q102 0 171 -94v82h55zM437 131v247q-24 39 -67 72t-94 33q-81 0 -123.5 -59t-42.5 -161q0 -101 42 -161
t123 -60q38 0 73.5 17.5t50.5 31.5t38 40zM270 753h43l106 -149l-30 -21l-97 121l-97 -120l-30 20z" />
    <glyph glyph-name="g.alt" horiz-adv-x="577" 
d="M494 524v-516q0 -123 -53.5 -165.5t-185.5 -42.5h-133v52h144q100 0 136.5 36.5t36.5 129.5v55q-68 -83 -176 -83q-109 0 -161 75t-52 196t54.5 198t163.5 77q102 0 171 -94v82h55zM437 131v247q-24 39 -67 72t-94 33q-81 0 -123.5 -59t-42.5 -161q0 -101 42 -161
t123 -60q38 0 73.5 17.5t50.5 31.5t38 40z" />
    <glyph glyph-name="gbreve.alt" horiz-adv-x="577" 
d="M494 524v-516q0 -123 -53.5 -165.5t-185.5 -42.5h-133v52h144q100 0 136.5 36.5t36.5 129.5v55q-68 -83 -176 -83q-109 0 -161 75t-52 196t54.5 198t163.5 77q102 0 171 -94v82h55zM437 131v247q-24 39 -67 72t-94 33q-81 0 -123.5 -59t-42.5 -161q0 -101 42 -161
t123 -60q38 0 73.5 17.5t50.5 31.5t38 40zM284 637q50 0 71.5 22.5t27.5 69.5l41 -8q-10 -125 -140 -125q-65 0 -98 29t-43 95l42 9q9 -51 30.5 -71.5t68.5 -20.5z" />
    <glyph glyph-name="gdotaccent.alt" horiz-adv-x="577" 
d="M494 524v-516q0 -123 -53.5 -165.5t-185.5 -42.5h-133v52h144q100 0 136.5 36.5t36.5 129.5v55q-68 -83 -176 -83q-109 0 -161 75t-52 196t54.5 198t163.5 77q102 0 171 -94v82h55zM437 131v247q-24 39 -67 72t-94 33q-81 0 -123.5 -59t-42.5 -161q0 -101 42 -161
t123 -60q38 0 73.5 17.5t50.5 31.5t38 40zM241 669q0 17 12.5 28t30.5 11q17 0 29 -11t12 -28t-12 -28t-29 -11q-18 0 -30.5 11t-12.5 28z" />
    <glyph glyph-name="gcommaaccent.alt" horiz-adv-x="577" 
d="M494 524v-516q0 -123 -53.5 -165.5t-185.5 -42.5h-133v52h144q100 0 136.5 36.5t36.5 129.5v55q-68 -83 -176 -83q-109 0 -161 75t-52 196t54.5 198t163.5 77q102 0 171 -94v82h55zM437 131v247q-24 39 -67 72t-94 33q-81 0 -123.5 -59t-42.5 -161q0 -101 42 -161
t123 -60q38 0 73.5 17.5t50.5 31.5t38 40zM354 749l-43 -160l-54 14l56 156z" />
    <glyph glyph-name="zero.num" horiz-adv-x="353" 
d="M96 533q0 -68 22 -106.5t61 -38.5t61.5 38t22.5 107q0 68 -22.5 106t-61.5 38t-61 -38t-22 -106zM45 533q0 92 35 141t99 49q65 0 99.5 -48.5t34.5 -140.5q0 -93 -35 -142t-99 -49q-65 0 -99.5 48.5t-34.5 141.5z" />
    <glyph glyph-name="one.num" horiz-adv-x="250" 
d="M174 350h-50v298q-55 -23 -100 -27l-6 37q73 14 121 60h35v-368z" />
    <glyph glyph-name="two.num" horiz-adv-x="299" 
d="M18 350v36l142 148q27 28 37.5 46t10.5 44q0 55 -63 55q-54 0 -111 -46l-23 34q65 56 138 56q51 0 81 -25t30 -68q0 -55 -51 -109l-125 -128h181v-43h-247z" />
    <glyph glyph-name="three.num" horiz-adv-x="314" 
d="M14 393l25 32q52 -40 108 -40q84 0 84 65q0 67 -96 67q-3 0 -10 -0.5t-13 -0.5h-6v42q47 1 74.5 19t27.5 52q0 53 -69 53q-47 0 -91 -28l-18 34q53 35 118 35q51 0 80 -22.5t29 -66.5q0 -33 -20 -57.5t-55 -33.5q98 -7 98 -93q0 -50 -36.5 -78.5t-94.5 -28.5
q-84 0 -135 50z" />
    <glyph glyph-name="four.num" horiz-adv-x="328" 
d="M214 672l-140 -201h140v201zM214 350v79h-194v39l174 250h67v-247h46v-42h-46v-79h-47z" />
    <glyph glyph-name="five.num" horiz-adv-x="324" 
d="M52 484l18 234h198l-2 -42h-158l-10 -118q35 27 84 27q54 0 82 -31.5t28 -83.5q0 -58 -38.5 -92.5t-100.5 -34.5q-69 0 -123 35l18 35q56 -28 103 -28q42 0 68 22t26 64q0 32 -19 53t-55 21q-41 0 -76 -29l-3 -32h-40z" />
    <glyph glyph-name="six.num" horiz-adv-x="330" 
d="M41 509q0 105 39.5 159.5t114.5 54.5q54 0 96 -28l-20 -35q-36 22 -73 22q-57 0 -81.5 -38.5t-29.5 -106.5q50 46 105 46t82.5 -31.5t27.5 -79.5q0 -61 -35.5 -95t-94.5 -34q-67 0 -99 45t-32 121zM186 543q-49 0 -98 -46q4 -115 86 -115q36 0 59 21.5t23 63.5
q0 76 -70 76z" />
    <glyph glyph-name="seven.num" horiz-adv-x="282" 
d="M263 687l-157 -337h-49v5l152 320h-198v43h252v-31z" />
    <glyph glyph-name="eight.num" horiz-adv-x="326" 
d="M80 443q0 -29 22.5 -46.5t61.5 -17.5t62 18.5t23 51.5q0 17 -7 30t-22 21.5t-28 13t-34 10.5q-37 -14 -57.5 -31.5t-20.5 -49.5zM96 634q0 -17 12 -30.5t24.5 -20t35.5 -15.5q68 32 68 68q0 26 -19 40t-51 14t-51 -15t-19 -41zM33 442q0 70 92 104q-76 27 -76 87
q0 41 32 65.5t84 24.5q54 0 85 -22t31 -62q0 -58 -74 -90q49 -18 70 -40.5t21 -58.5q0 -49 -36.5 -78t-97.5 -29q-62 0 -96.5 26.5t-34.5 72.5z" />
    <glyph glyph-name="nine.num" horiz-adv-x="329" 
d="M291 557q0 -106 -38.5 -160t-111.5 -54q-58 0 -99 27l17 36q42 -22 83 -22q94 0 104 144q-38 -51 -106 -51q-53 0 -81.5 34t-28.5 82q0 60 36 95t94 35q131 0 131 -166zM149 515q48 0 96 57q-4 112 -86 112t-82 -88q0 -39 18.5 -60t53.5 -21z" />
    <glyph glyph-name="zero.denom" horiz-adv-x="353" 
d="M96 183q0 -68 22 -106.5t61 -38.5t61.5 38t22.5 107q0 68 -22.5 106t-61.5 38t-61 -38t-22 -106zM45 183q0 92 35 141t99 49q65 0 99.5 -48.5t34.5 -140.5q0 -93 -35 -142t-99 -49q-65 0 -99.5 48.5t-34.5 141.5z" />
    <glyph glyph-name="one.denom" horiz-adv-x="250" 
d="M174 0h-50v298q-55 -23 -100 -27l-6 37q73 14 121 60h35v-368z" />
    <glyph glyph-name="two.denom" horiz-adv-x="299" 
d="M18 0v36l142 148q27 28 37.5 46t10.5 44q0 55 -63 55q-54 0 -111 -46l-23 34q65 56 138 56q51 0 81 -25t30 -68q0 -55 -51 -109l-125 -128h181v-43h-247z" />
    <glyph glyph-name="three.denom" horiz-adv-x="314" 
d="M14 43l25 32q52 -40 108 -40q84 0 84 65q0 67 -96 67q-3 0 -10 -0.5t-13 -0.5h-6v42q47 1 74.5 19t27.5 52q0 53 -69 53q-47 0 -91 -28l-18 34q53 35 118 35q51 0 80 -22.5t29 -66.5q0 -33 -20 -57.5t-55 -33.5q98 -7 98 -93q0 -50 -36.5 -78.5t-94.5 -28.5
q-84 0 -135 50z" />
    <glyph glyph-name="four.denom" horiz-adv-x="328" 
d="M214 322l-140 -201h140v201zM214 0v79h-194v39l174 250h67v-247h46v-42h-46v-79h-47z" />
    <glyph glyph-name="five.denom" horiz-adv-x="324" 
d="M52 134l18 234h198l-2 -42h-158l-10 -118q35 27 84 27q54 0 82 -31.5t28 -83.5q0 -58 -38.5 -92.5t-100.5 -34.5q-69 0 -123 35l18 35q56 -28 103 -28q42 0 68 22t26 64q0 32 -19 53t-55 21q-41 0 -76 -29l-3 -32h-40z" />
    <glyph glyph-name="six.denom" horiz-adv-x="330" 
d="M41 159q0 105 39.5 159.5t114.5 54.5q54 0 96 -28l-20 -35q-36 22 -73 22q-57 0 -81.5 -38.5t-29.5 -106.5q50 46 105 46t82.5 -31.5t27.5 -79.5q0 -61 -35.5 -95t-94.5 -34q-67 0 -99 45t-32 121zM186 193q-49 0 -98 -46q4 -115 86 -115q36 0 59 21.5t23 63.5
q0 76 -70 76z" />
    <glyph glyph-name="seven.denom" horiz-adv-x="282" 
d="M263 337l-157 -337h-49v5l152 320h-198v43h252v-31z" />
    <glyph glyph-name="eight.denom" horiz-adv-x="326" 
d="M80 93q0 -29 22.5 -46.5t61.5 -17.5t62 18.5t23 51.5q0 17 -7 30t-22 21.5t-28 13t-34 10.5q-37 -14 -57.5 -31.5t-20.5 -49.5zM96 284q0 -17 12 -30.5t24.5 -20t35.5 -15.5q68 32 68 68q0 26 -19 40t-51 14t-51 -15t-19 -41zM33 92q0 70 92 104q-76 27 -76 87
q0 41 32 65.5t84 24.5q54 0 85 -22t31 -62q0 -58 -74 -90q49 -18 70 -40.5t21 -58.5q0 -49 -36.5 -78t-97.5 -29q-62 0 -96.5 26.5t-34.5 72.5z" />
    <glyph glyph-name="nine.denom" horiz-adv-x="329" 
d="M291 207q0 -106 -38.5 -160t-111.5 -54q-58 0 -99 27l17 36q42 -22 83 -22q94 0 104 144q-38 -51 -106 -51q-53 0 -81.5 34t-28.5 82q0 60 36 95t94 35q131 0 131 -166zM149 165q48 0 96 57q-4 112 -86 112t-82 -88q0 -39 18.5 -60t53.5 -21z" />
    <glyph glyph-name="zero.tf" 
d="M127 354q0 -315 172 -315t172 316q0 314 -172 314t-172 -315zM69 354q0 366 230 366t230 -364q0 -368 -231 -368q-229 0 -229 366z" />
    <glyph glyph-name="one.tf" 
d="M308 46v576q-84 -58 -174 -76l-9 46q52 12 107.5 44.5t92.5 72.5h40v-663h141v-46h-359v46h161z" />
    <glyph glyph-name="two.tf" 
d="M102 0v42l271 347q63 80 63 152q0 55 -36.5 89.5t-95.5 34.5q-93 0 -179 -83l-34 39q91 99 218 99q78 0 132 -46.5t54 -125.5q0 -53 -16.5 -92.5t-57.5 -91.5l-245 -312h325v-52h-399z" />
    <glyph glyph-name="three.tf" 
d="M59 83l35 41q44 -43 86 -62.5t100 -19.5q68 0 113.5 40.5t45.5 104.5q0 151 -172 152q-7 0 -28 -1l-21 -1l-2 53q78 2 130.5 45.5t52.5 110.5q0 57 -37.5 89t-91.5 32q-89 0 -157 -52l-26 40q86 65 187 65q81 0 132.5 -45t51.5 -124q0 -59 -36.5 -109t-95.5 -67
q172 -16 172 -184q0 -94 -62.5 -148.5t-153.5 -54.5q-131 0 -223 95z" />
    <glyph glyph-name="four.tf" 
d="M127 226h266v425zM393 0v175h-328v44l307 490h75v-483h88v-51h-88v-175h-54z" />
    <glyph glyph-name="five.tf" 
d="M113 276l29 433h331l-3 -55h-280l-19 -272q54 56 145 56q94 0 144 -57t50 -157q0 -114 -62.5 -175t-162.5 -61q-108 0 -197 61l26 46q94 -55 165 -55q79 0 126 45t47 134q0 75 -36.5 121.5t-105.5 46.5q-87 0 -143 -62l-4 -49h-50z" />
    <glyph glyph-name="six.tf" 
d="M95 298q0 210 66.5 316t185.5 106q85 0 149 -57l-28 -40q-57 46 -121 46q-176 0 -196 -315q81 83 179 83q92 0 140 -62.5t48 -157.5q0 -110 -54.5 -169.5t-151.5 -59.5q-108 0 -162.5 79.5t-54.5 230.5zM314 41q64 0 105.5 42.5t41.5 130.5q0 85 -40 128t-102 43
q-84 0 -168 -87q0 -257 163 -257z" />
    <glyph glyph-name="seven.tf" 
d="M504 672l-271 -672h-63v8l265 647h-351v55h420v-38z" />
    <glyph glyph-name="eight.tf" 
d="M141 174q0 -61 42 -98t114 -37q71 0 114.5 41t43.5 109q0 115 -164 169q-150 -62 -150 -184zM170 550q0 -93 134 -142q48 21 86.5 61t38.5 90q0 54 -34.5 83t-93.5 29t-95 -32t-36 -89zM83 174q0 72 42.5 125.5t116.5 83.5q-130 49 -130 169q0 76 53 122t136 46
t134.5 -42.5t51.5 -115.5q0 -55 -36 -101.5t-94 -75.5q80 -34 118.5 -81t38.5 -115q0 -92 -60.5 -146.5t-160.5 -54.5q-99 0 -154.5 49.5t-55.5 136.5z" />
    <glyph glyph-name="nine.tf" 
d="M507 417q0 -215 -63.5 -322t-174.5 -107q-96 0 -159 53l28 43q64 -45 128 -45q166 0 187 313q-83 -81 -181 -81q-92 0 -140 63t-48 158q0 103 56 165.5t151 62.5q106 0 161 -81t55 -222zM289 666q-63 0 -105 -43.5t-42 -128.5t39.5 -127.5t100.5 -42.5q89 0 168 89
q1 128 -42.5 190.5t-118.5 62.5z" />
    <glyph glyph-name="dollar.tf" 
d="M266 -87v86q-119 7 -202 97l35 36q91 -86 182 -86q70 0 115.5 34.5t45.5 95.5q0 54 -35 88t-127 62q-107 33 -149.5 74t-42.5 114t49 117.5t130 50.5v85h45v-85q118 -8 183 -93l-37 -32q-70 78 -164 78q-65 0 -107 -31t-42 -86q0 -57 38 -86t130 -58q101 -32 144 -77
t43 -117q0 -75 -53 -124.5t-135 -56.5v-86h-46z" />
    <glyph glyph-name="Euro.tf" 
d="M-1 392l4 45h73q15 118 87.5 200.5t187.5 82.5q148 0 224 -126l-38 -27q-33 51 -82 78t-105 27q-89 0 -145.5 -65t-72.5 -170h348l-4 -45h-349q-1 -11 -1 -33q0 -35 2 -51h341l-4 -45h-331q20 -103 77.5 -165t140.5 -62q102 0 188 84l33 -36q-91 -96 -226 -96
q-112 0 -180 78.5t-89 196.5h-90l4 45h80q-2 16 -2 49q0 23 1 35h-72z" />
    <glyph glyph-name="cent.tf" 
d="M485 190l27 -38q-72 -65 -166 -73v-97h-46v96q-98 7 -155 82t-57 195q0 122 59 191.5t153 75.5v98h46v-99q74 -7 117 -55.5t50 -126.5h-53q-8 68 -45.5 101.5t-95.5 33.5q-79 0 -124.5 -58.5t-45.5 -159.5q0 -97 46 -163t129 -66q46 0 81 15t80 48z" />
    <glyph glyph-name="sterling.tf" 
d="M279 218q0 -77 -71 -166h299v-52h-410v49l48 2q79 91 79 167q0 39 -28 109h-97v47h81q-21 43 -30 63t-18 50.5t-9 55.5q0 81 57.5 129t140.5 48q123 0 190 -83l-37 -33q-54 65 -147 65q-66 0 -105.5 -33t-39.5 -96q0 -20 8 -47.5t17.5 -48.5l31.5 -70h159v-47h-144
q25 -66 25 -109z" />
    <glyph glyph-name="yen.tf" 
d="M539 709l-187 -317h169v-46h-195v-79h195v-46h-195v-221h-55v221h-194v46h194v79h-194v46h168l-186 317h64l176 -307l178 307h62z" />
    <glyph glyph-name="florin.tf" 
d="M58 -154h40q37 0 54 23t29 81l83 401h-77v45h87l34 168q8 36 15 58t21 44t37.5 32.5t57.5 10.5h55v-46h-48q-41 0 -56.5 -24.5t-29.5 -92.5l-32 -150h95v-45h-103l-76 -374q-21 -103 -45.5 -140t-93.5 -37h-47v46z" />
    <glyph glyph-name="zero.osf" horiz-adv-x="602" 
d="M127 305q0 -265 174 -265t174 269q0 131 -43 190t-129 59q-176 0 -176 -253zM68 306q0 146 62 226t173 80q230 0 230 -302q0 -322 -233 -322q-232 0 -232 318z" />
    <glyph glyph-name="one.osf" horiz-adv-x="431" 
d="M228 46v468q-84 -58 -174 -76l-9 46q52 12 107.5 44.5t92.5 72.5h40v-555h141v-46h-359v46h161z" />
    <glyph glyph-name="two.osf" horiz-adv-x="515" 
d="M49 0v41l249 255q42 43 62.5 78t20.5 73q0 52 -37.5 82.5t-94.5 30.5q-91 0 -172 -81l-33 37q88 96 210 96q81 0 134.5 -42t53.5 -118q0 -51 -21 -90.5t-70 -88.5l-220 -221h316v-52h-398z" />
    <glyph glyph-name="three.osf" horiz-adv-x="517" 
d="M25 26l35 38q80 -81 186 -81q69 0 113 38t44 102q0 132 -171 133q-43 0 -49 -2l-3 51q81 1 133 37t52 100q0 57 -37.5 87t-92.5 30q-85 0 -157 -52l-26 40q86 65 188 65q81 0 132.5 -42.5t51.5 -120.5q0 -58 -35.5 -100t-94.5 -60q83 -9 125.5 -54t42.5 -113
q0 -90 -61.5 -141.5t-152.5 -51.5q-134 0 -223 97z" />
    <glyph glyph-name="four.osf" horiz-adv-x="554" 
d="M112 166h269v377zM381 -60v175h-337v44l316 442h75v-435h88v-51h-88v-175h-54z" />
    <glyph glyph-name="five.osf" horiz-adv-x="526" 
d="M72 206l27 395h331l-3 -55h-278l-17 -235q53 55 143 55q95 0 146.5 -55.5t51.5 -155.5q0 -106 -64.5 -166t-163.5 -60q-107 0 -196 61l26 45q81 -51 162 -51q79 0 127.5 45t48.5 127q0 71 -37.5 115t-108.5 44q-84 0 -139 -61l-4 -48h-52z" />
    <glyph glyph-name="six.osf" horiz-adv-x="543" 
d="M68 298q0 210 66.5 316t185.5 106q84 0 149 -57l-28 -40q-57 46 -121 46q-176 0 -196 -315q81 83 179 83q92 0 140 -62.5t48 -157.5q0 -110 -54.5 -169.5t-151.5 -59.5q-108 0 -162.5 79.5t-54.5 230.5zM287 41q64 0 105.5 42.5t41.5 130.5q0 85 -40 128t-102 43
q-84 0 -168 -87q0 -257 163 -257z" />
    <glyph glyph-name="seven.osf" horiz-adv-x="449" 
d="M422 560l-267 -620h-60v8l262 598h-339v55h404v-41z" />
    <glyph glyph-name="eight.osf" horiz-adv-x="497" 
d="M90 174q0 -61 42 -98t114 -37q71 0 114.5 41t43.5 109q0 115 -164 169q-150 -62 -150 -184zM119 550q0 -93 134 -142q48 21 86.5 61t38.5 90q0 54 -34.5 83t-93.5 29t-95 -32t-36 -89zM32 174q0 72 42.5 125.5t116.5 83.5q-130 49 -130 169q0 76 53 122t136 46
t134.5 -42.5t51.5 -115.5q0 -55 -36 -101.5t-94 -75.5q80 -34 118.5 -81t38.5 -115q0 -92 -60.5 -146.5t-160.5 -54.5q-99 0 -154.5 49.5t-55.5 136.5z" />
    <glyph glyph-name="nine.osf" horiz-adv-x="530" 
d="M471 309q0 -209 -60 -294.5t-171 -85.5q-103 0 -166 53l28 43q64 -45 139 -45q84 0 124.5 66.5t49.5 196.5q-82 -80 -179 -80q-92 0 -140 63t-48 158q0 103 56 165.5t151 62.5q106 0 161 -81t55 -222zM253 558q-63 0 -105 -43.5t-42 -128.5t39.5 -127.5t100.5 -42.5
q89 0 168 89q1 128 -42.5 190.5t-118.5 62.5z" />
    <glyph glyph-name="dollar.osf" horiz-adv-x="531" 
d="M241 -87v86q-119 7 -202 97l35 36q91 -86 182 -86q70 0 115.5 34.5t45.5 95.5q0 54 -35 88t-127 62q-107 33 -149.5 74t-42.5 114t49 117.5t130 50.5v85h45v-85q118 -8 183 -93l-37 -32q-70 78 -164 78q-65 0 -107 -31t-42 -86q0 -57 38 -86t130 -58q101 -32 144 -77
t43 -117q0 -75 -53 -124.5t-135 -56.5v-86h-46z" />
    <glyph glyph-name="Euro.osf" horiz-adv-x="601" 
d="M-8 392l4 45h73q15 118 87.5 200.5t187.5 82.5q148 0 224 -126l-38 -27q-68 105 -187 105q-89 0 -145.5 -65t-72.5 -170h348l-4 -45h-349q-1 -11 -1 -33q0 -35 2 -51h341l-4 -45h-331q20 -103 77.5 -165t140.5 -62q102 0 188 84l33 -36q-91 -96 -226 -96
q-112 0 -180 78.5t-89 196.5h-90l4 45h80q-2 16 -2 49q0 23 1 35h-72z" />
    <glyph glyph-name="cent.osf" horiz-adv-x="541" 
d="M457 112l27 -38q-72 -65 -166 -73v-97h-46v96q-98 7 -155 82t-57 195q0 122 59 191.5t153 75.5v98h46v-99q74 -7 117 -55.5t50 -126.5h-53q-8 68 -45.5 101.5t-95.5 33.5q-79 0 -124.5 -58.5t-45.5 -159.5q0 -97 46 -163t129 -66q46 0 81 15t80 48z" />
    <glyph glyph-name="sterling.osf" horiz-adv-x="482" 
d="M217 218q0 -77 -71 -166h299v-52h-410v49l48 2q79 91 79 167q0 39 -28 109h-97v47h81q-21 43 -30 63t-18 50.5t-9 55.5q0 81 57.5 129t140.5 48q123 0 190 -83l-37 -33q-54 65 -147 65q-66 0 -105.5 -33t-39.5 -96q0 -20 8 -47.5t17.5 -48.5l31.5 -70h159v-47h-144
q25 -66 25 -109z" />
    <glyph glyph-name="yen.osf" horiz-adv-x="556" 
d="M522 709l-187 -317h169v-46h-195v-79h195v-46h-195v-221h-55v221h-194v46h194v79h-194v46h168l-186 317h64l176 -307l178 307h62z" />
    <glyph glyph-name="florin.osf" horiz-adv-x="433" 
d="M-20 -154h40q37 0 54 23t29 81l83 401h-77v45h87l34 168q8 36 15 58t21 44t37.5 32.5t57.5 10.5h55v-46h-48q-41 0 -56.5 -24.5t-29.5 -92.5l-32 -150h95v-45h-103l-76 -374q-21 -103 -45.5 -140t-93.5 -37h-47v46z" />
    <glyph glyph-name="dollar.tosf" 
d="M266 -87v86q-119 7 -202 97l35 36q91 -86 182 -86q70 0 115.5 34.5t45.5 95.5q0 54 -35 88t-127 62q-107 33 -149.5 74t-42.5 114t49 117.5t130 50.5v85h45v-85q118 -8 183 -93l-37 -32q-70 78 -164 78q-65 0 -107 -31t-42 -86q0 -57 38 -86t130 -58q101 -32 144 -77
t43 -117q0 -75 -53 -124.5t-135 -56.5v-86h-46z" />
    <glyph glyph-name="Euro.tosf" 
d="M-1 392l4 45h73q15 118 87.5 200.5t187.5 82.5q148 0 224 -126l-38 -27q-33 51 -82 78t-105 27q-89 0 -145.5 -65t-72.5 -170h348l-4 -45h-349q-1 -11 -1 -33q0 -35 2 -51h341l-4 -45h-331q20 -103 77.5 -165t140.5 -62q102 0 188 84l33 -36q-91 -96 -226 -96
q-112 0 -180 78.5t-89 196.5h-90l4 45h80q-2 16 -2 49q0 23 1 35h-72z" />
    <glyph glyph-name="cent.tosf" 
d="M481 110l27 -38q-72 -65 -166 -73v-97h-46v96q-98 7 -155 82t-57 195q0 122 59 191.5t153 75.5v98h46v-99q74 -7 117 -55.5t50 -126.5h-53q-8 68 -45.5 101.5t-95.5 33.5q-79 0 -124.5 -58.5t-45.5 -159.5q0 -97 46 -163t129 -66q46 0 81 15t80 48z" />
    <glyph glyph-name="sterling.tosf" 
d="M285 218q0 -77 -71 -166h299v-52h-410v49l48 2q79 91 79 167q0 39 -28 109h-97v47h81q-21 43 -30 63t-18 50.5t-9 55.5q0 81 57.5 129t140.5 48q123 0 190 -83l-37 -33q-54 65 -147 65q-66 0 -105.5 -33t-39.5 -96q0 -20 8 -47.5t17.5 -48.5l31.5 -70h159v-47h-144
q25 -66 25 -109z" />
    <glyph glyph-name="yen.tosf" 
d="M539 709l-187 -317h169v-46h-195v-79h195v-46h-195v-221h-55v221h-194v46h194v79h-194v46h168l-186 317h64l176 -307l178 307h62z" />
    <glyph glyph-name="florin.tosf" 
d="M53 -154h40q37 0 54 23t29 81l83 401h-77v45h87l34 168q8 36 15 58t21 44t37.5 32.5t57.5 10.5h55v-46h-48q-41 0 -56.5 -24.5t-29.5 -92.5l-32 -150h95v-45h-103l-76 -374q-21 -103 -45.5 -140t-93.5 -37h-47v46z" />
    <glyph glyph-name="apple" horiz-adv-x="2406" 
d="M1677 -97l-17 -8q9 -20 9 -37q0 -47 -66.5 -79.5t-175.5 -32.5q-120 0 -190 57q-84 -43 -159 -43q-97 0 -148 43q-60 -85 -250 -85q-54 0 -108.5 18t-94.5 59t-38 95q-43 22 -55 56q-54 -22 -118 -22q-82 0 -119.5 60.5t-18.5 144.5q12 57 59.5 108t112.5 81
q-36 51 -19 122q17 76 63 119.5t93 43.5q8 0 12 -1q28 28 82 42t105 14q87 0 155 -26q37 51 97.5 81t129.5 30q7 0 19 -2q36 49 113 76t176 27q81 0 147 -36.5t100 -97.5q72 23 168 23q75 0 163.5 -28t110.5 -87q27 15 54 15q58 0 92.5 -37t22.5 -88q-5 -27 -20 -49
q43 -26 62.5 -75.5t5.5 -113.5q-13 -48 -34 -80q47 -32 61.5 -86t2.5 -110q-10 -46 -45 -75t-75 -39t-86 -10q-32 0 -66 8q-15 -19 -49.5 -32.5t-77.5 -13.5q-47 0 -90 23t-58 65l-28 -12q9 -58 63 -90.5t124 -32.5q76 0 159 40l1 -2q-79 -42 -159 -42q-76 0 -130.5 29.5
t-67.5 92.5zM692 505q26 0 50 -7q3 36 17 74q-45 13 -94 13q-76 0 -149 -29q9 -16 9 -39q0 -53 -27 -86t-61 -33q-22 0 -33.5 18.5t-5.5 44.5q5 28 38 54q-15 22 -8 50q5 21 19 35q-3 1 -10 1q-46 0 -87 -42t-58 -119q-17 -67 13 -120q64 27 115 27q23 0 39 -13t12 -30
q-6 -35 -74 -35q-62 0 -95 44q-57 -29 -97.5 -79t-52.5 -102q-21 -90 9.5 -148t104.5 -58q63 0 117 22q-16 37 -3 83q6 28 26.5 45t40.5 17q18 0 24 -16t2 -35q-4 -26 -25.5 -51.5t-58.5 -42.5q10 -32 51 -53q0 10 3 19q10 48 48.5 81.5t88.5 39.5q0 -1 1 -1
q-45 -6 -78.5 -39t-44.5 -81q-2 -10 -4 -26q44 -17 90 -4v-1q-44 -15 -90 0q0 -73 70.5 -118t155.5 -45t153 20.5t96 63.5q-37 34 -26 80q3 17 16 34q-10 10 -26 18q-121 -95 -200 -95q-39 0 -64.5 19.5t-17.5 55.5q12 51 137 51q70 0 122 -19l33.5 25.5t37 27.5l33 22.5
t39 23.5l36 16t42.5 14t41 5q-12 30 -16 59q-29 -23 -62 -23q-24 0 -32 22t-3 49l35 158h-80l-43 -213q-12 -59 -56 -93.5t-90 -34.5q-65 0 -102 44l2 2q35 -30 68 -30q77 0 104 114q15 58 50 211h-45q0 5 1 8h46l17 68q12 58 52 92.5t88 34.5q99 0 116 -64q52 26 99 26
q32 0 43.5 -13t3.5 -53l-21 -89q108 16 143 120q-25 6 -43 25t-18 46q0 46 43 87q-21 27 -51.5 43t-59.5 16q-40 0 -63 -20t-23 -49q0 -33 27 -50l-3 -2q-14 8 -25.5 23t-11.5 29q0 33 26.5 53t72.5 20q30 0 60.5 -16.5t52.5 -43.5q50 47 137 72q-33 58 -97 93.5t-148 35.5
q-92 0 -166 -26t-110 -75q26 -8 41.5 -26.5t7.5 -44.5q-8 -31 -47 -31q-19 0 -30 18t-5 44q7 24 18 42q-5 1 -17 1q-135 0 -218 -113q76 -33 89 -99q5 -21 -4 -35l-2 2q7 16 3 33q-12 62 -88 96q-18 -23 -30 -53q104 -34 91 -95q-7 -28 -99 -66q-87 -35 -112 -87
q-13 -22 -9.5 -54.5t27.5 -42.5q5 59 42.5 94t72.5 35t48.5 -23.5t-2.5 -50.5q-28 -45 -98 -59q-1 -32 8.5 -53.5t26.5 -21.5q26 0 46 25q-13 18 -10 27q3 12 19 12q8 0 10 -7q1 -7 -3 -16q-8 -13 -9 -14l4 -5q4 -5 5 -6t4 -6t4 -7t3 -7t2.5 -8.5t0.5 -8t-1 -9.5
q-5 -24 -32.5 -39.5t-65.5 -15.5q-56 0 -212 73q-31 -18 -70 -18q-28 0 -50.5 17t-22.5 45q0 12 7.5 20.5t13.5 8.5t15 -5t25.5 -15.5t30.5 -18.5q2 6 6.5 15l5.5 11l88 224q18 45 50.5 65t63.5 20zM1421 148q55 0 78 92q9 39 -6 77l2 1q19 -40 10 -82q-12 -51 -39 -76.5
t-77 -25.5q-35 0 -52.5 39t-6.5 87q11 45 44 70.5t64 25.5q30 0 41 -15q22 14 49 14h27l15 68q12 58 52 92.5t88 34.5q39 0 72 -14l10 -6q16 11 42 18q-4 10 -2 26q3 26 34 51l3 -1q-19 -21 -24 -50q-2 -9 0 -24q18 2 26 2q56 0 84 -52q46 15 57 61q6 27 0 48
q-11 -8 -21.5 -19t-14.5 -18l-5 -7q0 25 39 50q-11 31 -44 55t-75.5 36.5t-81 18.5t-68.5 6q-90 0 -165 -24q33 -63 17 -130q-12 -42 -49.5 -72t-78.5 -30q-8 0 -11 1q-16 -49 -52.5 -84t-95.5 -43l-15.5 -62.5l-15.5 -65l-9 -37.5q-15 -79 35 -79q20 0 50 16l3 -3
q-50 -34 -109 -34q-33 0 -48 23t-5 66q1 3 47 174h-118l-36 -160q-3 -14 1 -26t14 -12q7 0 14 5q0 4 -0.5 13t-0.5 14q0 32 9.5 48.5t24.5 16.5q22 0 14 -34q-2 -9 -4.5 -16t-7 -14.5t-5.5 -9.5t-8.5 -10.5t-8.5 -9.5q3 -31 15 -70q54 -1 51 -26q-2 -13 -13 -14q7 1 9 14
q3 22 -46 24q13 -37 33 -38q-30 1 -43 38q-40 -2 -75 -21.5t-86 -61.5t-77 -60q18 -9 26 -17q45 52 147 52q47 0 105 -22q0 1 2 12t4 16q9 43 56 73.5t79 30.5q6 0 8 -4.5t3.5 -12t4.5 -12.5q27 -31 69 -31q76 0 106 114l48 211h-25q-24 0 -43 -13q6 -10 6 -20
q0 -18 -18 -18q-16 0 -16 16q0 15 16 26q-8 8 -21 8q-38 0 -61 -97q-9 -41 0.5 -71t29.5 -30zM2149 211l3 1q12 -4 32 -14q17 31 28 78q13 60 -1 106.5t-49 72.5q-30 -49 -80 -49q-16 0 -31 9.5t-15 24.5q0 17 15 29.5t35 12.5q38 0 68 -17q12 21 19 50q11 49 -20 83t-84 34
q-26 0 -52 -19q7 -23 1 -53q-11 -46 -61 -63q17 -34 8 -71q-21 -79 -130 -79h-72q-8 -30 -20.5 -85t-17.5 -75q-5 -38 17 -38q9 0 22 13q-11 30 -2 63q3 19 13.5 32t19.5 13q19 0 10 -38q-12 -45 -31 -71q11 -43 47 -61q10 59 63 59q15 0 24.5 -10.5t5.5 -24.5
q-2 -16 -16.5 -25.5t-34.5 -9.5q-13 0 -27 3q0 -57 60 -74q11 23 35.5 37.5t54.5 14.5q17 0 28 -5l-1 -2q-13 5 -27 5q-27 0 -50 -14.5t-33 -37.5q13 -3 29 -3q108 0 153 98q-23 -6 -51 -6q-53 0 -76.5 32t-15.5 71q9 39 37.5 60.5t63.5 21.5q39 0 61 -34.5t12 -92.5
q-5 -27 -15 -43q51 19 81 75q-12 7 -33 16zM1745 68l2 -2q-35 -36 -50.5 -68.5t-11.5 -79.5l28 9q-10 36 1.5 70t44.5 59l3 -3q-33 -23 -43.5 -58.5t-1.5 -64.5q87 29 154 29h21q-4 17 -1 40q2 12 4 16q-34 8 -54.5 29.5t-19.5 52.5q-36 14 -54 55q-30 -34 -73 -34
q-23 0 -31 21.5t-3 49.5l34 158h-74l-46 -212q-13 -60 -56 -94.5t-89 -34.5q-69 0 -102 44q-4 5 -5 11t-1 10t-1.5 6.5t-5.5 2.5q-35 0 -79 -39.5t-46 -97.5q23 -10 66 -32t61 -30q48 30 106 50.5t99 20.5q94 0 132 -48q12 7 23 11q-8 83 69 153zM1998 -101q0 -9 -8 -20
q34 -8 66 -8q39 0 75.5 11t69.5 41.5t44 76.5q29 126 -50 186q-36 -53 -96 -71q-24 -50 -67.5 -77t-99.5 -27q-12 0 -30 2q-2 -4 -4 -14q-3 -24 1 -41q99 -8 99 -59zM755 495q22 -10 16 -26q-5 -11 -18 -10q-5 1 -8.5 8.5t-2.5 15.5v10q-14 4 -22 4q-24 0 -44 -23.5
t-32 -57.5l-70 -220q-10 -32 -39 -55q148 -73 204 -72q51 1 73.5 28t15.5 53q-1 7 -14 20q-26 -36 -82 -36q-29 0 -48.5 26.5t-17.5 64.5q-27 9 -35 41.5t5 58.5q28 56 122 88q29 10 56.5 29t31.5 36q15 63 -79 91q-16 -36 -20 -71zM948 -159q-4 -16 -14 -32l10 -10
q43 -36 134 -36q70 0 144 51q-53 57 -49 134q-58 22 -105 22q-44 0 -80.5 -15.5t-54.5 -45.5q17 -20 17 -48q0 -12 -2 -20zM1918 492q-27 0 -51 15t-32 37q-20 -5 -36 -19q15 -11 15 -26q0 -19 -22 -19q-23 0 -23 18q0 9 6 15l13 13q-29 15 -63 15q-27 0 -50.5 -26.5
t-32.5 -68.5l-20 -91h17q45 0 85.5 24.5t45.5 51.5q-3 22 9 22q5 0 8 -5t1 -10q-4 -20 -8 -28q-14 -46 -16 -55h67q39 0 72.5 16.5t45.5 55.5q9 32 -4 67q-16 -2 -27 -2zM1134 531q-30 10 -51 10q-28 0 -53 -26.5t-35 -68.5l-19 -91h19q45 0 87 23.5t59 67.5h2l-21 -91h119
q16 56 22 79q8 29 -5.5 45t-36.5 16q-16 0 -34 -12l-4 -1q2 -6 2 -11q0 -20 -14 -20q-6 0 -9.5 5t-0.5 12q4 10 18 16q-10 31 -45 47zM1656 -142q0 15 -7 33q-110 -51 -186 -51q-55 0 -121 28q-53 -37 -100 -62q68 -58 185 -58q106 0 167.5 31.5t61.5 78.5zM1589 577
q15 68 -16 129q-86 -29 -131 -78q24 -37 24 -79q0 -35 -11 -71q3 -1 9 -1q39 0 77 29.5t48 70.5zM2100 160q14 60 -5.5 94t-51.5 34q-35 0 -56.5 -28t-23.5 -67q-4 -63 39 -81q15 -5 32 -5q31 0 53 7q10 20 13 46zM1871 -42q-67 0 -152 -37q14 -41 56 -64.5t88 -23.5
q39 0 70 14.5t42 34.5q-70 21 -82 76h-22zM1521 -50q-34 0 -75 -18q-34 -16 -102 -62q69 -29 119 -29q28 0 57.5 8t46 15t51.5 24l25 12q-31 50 -122 50zM693 -157q9 0 17.5 1.5t19 6l18 7.5t19.5 11l18.5 12.5t20.5 15.5t19.5 15t21.5 17.5l21 17.5q-53 18 -120 18
q-44 0 -81 -12t-45 -39q-9 -32 13 -51.5t58 -19.5zM640 655q-52 0 -102 -14t-76 -41q37 -10 53 -41q72 27 150 27q53 0 95 -12q10 28 29 55q-63 26 -149 26zM521 517q0 20 -8 38l-7 -3q-39 -17 -62 -37q10 -19 36 -18l1 -2q-25 -3 -42 16q-26 -24 -31 -50t2.5 -43.5
t26.5 -17.5q30 0 57 34t27 83zM420 345q-54 0 -113 -28q30 -47 90 -47q62 0 70 34q3 17 -11 29t-36 12zM389 29q-8 -47 -1 -77q69 35 80 90q7 49 -21 49q-15 0 -33.5 -17t-24.5 -45zM1229 -180q12 7 40.5 28.5t44.5 30.5l-54 27q-52 27 -71 35q-6 -69 40 -121zM795 346
q-31 0 -54 -68q-9 -31 -11 -47q71 16 92 58q6 11 6 21q0 15 -9 25.5t-24 10.5zM1462 549q0 41 -23 76q-32 -37 -32 -77q0 -26 12.5 -45t31.5 -24q11 36 11 70zM2082 408q12 0 32.5 13t36.5 41q-27 18 -65 18q-18 0 -31.5 -12t-13.5 -28q0 -15 13.5 -23.5t27.5 -8.5z
M1095 668q8 24 -7 42t-40 26q-15 -21 -20 -42q-6 -26 2.5 -40t21.5 -14q35 0 43 28zM1863 91q34 0 43 33q3 10 -3 21t-19 11q-42 0 -48 -62q12 -3 27 -3zM392 177q0 -16 11 -32t27 -16q23 0 43 34l-54 29q-10 6 -16 6q-11 0 -11 -21zM1918 494q14 0 26 3q-22 52 -73 52
q-9 0 -25 -2q6 -23 26.5 -38t45.5 -15zM443 565q-7 -26 -1 -45q24 18 62 34l8 3q-16 33 -51 41q-13 -13 -18 -33zM1980 -101q0 49 -80 58q12 -51 76 -73q4 7 4 15zM1771 170q5 7 8 14q6 10 11 22.5t7 19.5l2 6q12 37 -4 37q-12 0 -24 -44q-6 -27 0 -55zM921 -121
q-11 -40 12 -68q13 23 13 50q0 23 -15 45q-7 -11 -10 -27zM1126 164q24 25 28 48q6 32 -7 32q-22 0 -22 -63q0 -12 1 -17zM1782 498q0 -16 10 -16q18 0 18 17t-15 23q-13 -13 -13 -24zM752 491q-3 0 -6 1v-9q-2 -21 8 -23q8 0 12 9q5 10 -14 22zM1480 332q-13 -6 -13 -21
q0 -11 8 -11q11 0 11 14q0 10 -6 18zM823 191q2 6 2 9q2 11 -6 11t-11 -13q-1 -10 6 -19zM1180 471v9q-10 -4 -15 -13q-5 -14 6 -14q9 0 9 18z" />
    <glyph glyph-name="arroewup" horiz-adv-x="500" 
d="M273 10h-45v421l-118 -116l-29 27l171 168l167 -168l-29 -29l-117 118v-421z" />
    <glyph glyph-name="arrowNW" horiz-adv-x="500" 
d="M431 103l-30 -31l-293 294v-165h-43v236h239v-41h-164z" />
    <glyph glyph-name="arrowNE" horiz-adv-x="500" 
d="M99 72l-30 31l291 293h-164v41h239v-236h-43v165z" />
    <glyph glyph-name="arrowSE" horiz-adv-x="500" 
d="M69 383l30 31l293 -294v165h43v-236h-239v41h164z" />
    <glyph glyph-name="arrowSW" horiz-adv-x="500" 
d="M401 414l30 -31l-291 -293h164v-41h-239v236h43v-165z" />
    <glyph glyph-name="arrowLeftRight" horiz-adv-x="1000" 
d="M81 240l119 -117l-32 -29l-168 167l168 171l30 -30l-117 -117h834l-117 117l30 30l168 -171l-169 -167l-31 29l118 117h-833z" />
    <glyph glyph-name="arrowUpDown" horiz-adv-x="750" 
d="M398 -196l117 118l29 -31l-169 -168l-169 167l30 30l117 -116v833l-117 -116l-30 30l172 167l166 -168l-29 -31l-117 118v-833z" />
    <glyph glyph-name="arrowright.750" horiz-adv-x="750" 
d="M2 239v45h667l-118 117l31 29l168 -167l-168 -171l-30 29l117 118h-667z" />
    <glyph glyph-name="arrowup.750" horiz-adv-x="750" 
d="M398 -106h-45v668l-118 -116l-29 27l171 168l167 -168l-29 -29l-117 118v-668z" />
    <glyph glyph-name="arrowleft.750" horiz-adv-x="750" 
d="M748 284v-45h-667l117 -118l-30 -29l-168 171l168 167l31 -29l-118 -117h667z" />
    <glyph glyph-name="arrowdown.750" horiz-adv-x="750" 
d="M353 628h45v-668l117 118l29 -29l-167 -168l-171 168l29 27l118 -116v668z" />
    <glyph glyph-name="arrowNW.750" horiz-adv-x="750" 
d="M650 10l-33 -33l-470 469v-164h-45v242h240v-42h-165z" />
    <glyph glyph-name="arrowNE.750" horiz-adv-x="750" 
d="M132 -23l-33 33l473 472h-165v42h240v-242h-45v164z" />
    <glyph glyph-name="arrowSE.750" horiz-adv-x="750" 
d="M99 514l33 33l470 -469v164h45v-242h-240v42h165z" />
    <glyph glyph-name="arrowSW.750" horiz-adv-x="750" 
d="M617 547l33 -33l-473 -472h165v-42h-240v242h45v-164z" />
    <glyph glyph-name="arrowCircleLeft" horiz-adv-x="750" 
d="M221 261q0 108 62.5 170.5t166.5 62.5q101 0 161.5 -62t61.5 -162h-45q-4 86 -50.5 135t-127.5 49q-84 0 -134 -52.5t-50 -141.5v-136l118 119l30 -29l-170 -169l-170 168l31 31l116 -119v136z" />
    <glyph glyph-name="arrowCircleRight" horiz-adv-x="750" 
d="M528 265v-140l116 119l31 -31l-170 -168l-170 169l30 29l118 -119v136q0 90 -47 142t-137 52q-81 0 -127.5 -49t-50.5 -135h-45q1 100 62.5 162t166.5 62q104 0 163.5 -60.5t59.5 -168.5z" />
    <glyph glyph-name="arrowDubLeft" horiz-adv-x="750" 
d="M269 404l-67 -67h473v-38h-511l-36 -36l35 -35h512v-38h-475l69 -69l-31 -30l-170 169l169 174z" />
    <glyph glyph-name="arrowDubTop" horiz-adv-x="750" 
d="M540 405l-69 70v-475h-38v512l-35 35l-36 -36v-511h-38v473l-67 -66l-30 31l172 169l170 -170z" />
    <glyph glyph-name="arrowDubRight" horiz-adv-x="750" 
d="M548 337l-67 67l32 30l169 -174l-170 -169l-31 30l69 69h-475v38h512l35 35l-36 36h-511v38h473z" />
    <glyph glyph-name="arrowDubDown" horiz-adv-x="750" 
d="M471 120l69 70l29 -32l-170 -170l-172 169l30 31l67 -66v473h38v-511l36 -36l35 35v512h38v-475z" />
    <glyph glyph-name="triangleBlackLeft" horiz-adv-x="610" 
d="M548 22l-486 236l486 232v-468z" />
    <glyph glyph-name="triangleBlackRight" horiz-adv-x="610" 
d="M548 258l-486 -236v468z" />
    <glyph glyph-name="triangleWhiteLeft" horiz-adv-x="610" 
d="M499 100l1 314l-326 -154zM548 490v-465l-486 234v2z" />
    <glyph glyph-name="triangleWhiteRight" horiz-adv-x="610" 
d="M110 414l1 -314l325 160zM62 25v465l486 -229v-2z" />
    <glyph glyph-name="square" horiz-adv-x="610" 
d="M479 151h-349v349h349v-349z" />
    <glyph glyph-name="square.open" horiz-adv-x="610" 
d="M434 196v259h-259v-259h259zM479 151h-349v349h349v-349z" />
    <glyph glyph-name="circle.open" horiz-adv-x="610" 
d="M305 119q-85 0 -145 60t-60 145t60 145t145 60t145 -60t60 -145t-60 -145t-145 -60zM305 167q63 0 107 47.5t44 112.5q0 64 -43.5 108.5t-107.5 44.5t-107 -45.5t-43 -110.5t43 -111t107 -46z" />
    <glyph glyph-name="triangle.left" horiz-adv-x="425" 
d="M275 203l-185 117l185 114v-231z" />
    <glyph glyph-name="raute" horiz-adv-x="610" 
d="M514 325l-210 -209l-209 210l210 209z" />
    <glyph glyph-name="commaaccent" horiz-adv-x="500" 
d="M200 -216l41 156l54 -11l-56 -155z" />
    <glyph glyph-name="revcommaaccent" horiz-adv-x="500" 
d="M305 749l-43 -160l-54 14l56 156z" />
    <glyph glyph-name="tilde.cap" horiz-adv-x="500" 
d="M354 862l33 -14q-19 -64 -72 -64q-26 0 -69.5 17t-56.5 17t-21 -7t-21 -30l-34 15q27 66 77 66q22 0 61.5 -17.5t59.5 -17.5q15 0 24.5 7t18.5 28z" />
    <glyph glyph-name="ring.cap" horiz-adv-x="500" 
d="M201 826q0 -23 13.5 -36t35.5 -13q23 0 36.5 14.5t13.5 37.5q0 22 -13.5 35t-36.5 13q-22 0 -35.5 -14t-13.5 -37zM160 826q0 38 26 63t64 25q39 0 64.5 -23.5t25.5 -61.5q0 -39 -25 -63t-65 -24t-65 23t-25 61z" />
    <glyph glyph-name="circumflex.cap" horiz-adv-x="500" 
d="M229 868h44l87 -87l-24 -24l-85 67l-84 -68l-26 25z" />
    <glyph glyph-name="acute.cap" horiz-adv-x="500" 
d="M156 792l165 95l24 -47l-171 -83z" />
    <glyph glyph-name="grave.cap" horiz-adv-x="500" 
d="M179 886l167 -94l-20 -35l-170 83z" />
    <glyph glyph-name="dieresis.cap" horiz-adv-x="500" 
d="M299 819q0 17 12.5 29t30.5 12t30 -12t12 -29t-12 -28.5t-30 -11.5q-19 0 -31 11.5t-12 28.5zM121 819q0 17 12.5 29t30.5 12t30 -12t12 -29t-12 -28.5t-30 -11.5q-19 0 -31 11.5t-12 28.5z" />
    <glyph glyph-name="caron.cap" horiz-adv-x="500" 
d="M273 767h-44l-88 87l26 25l84 -68l85 67l24 -24z" />
    <glyph glyph-name="macron.cap" horiz-adv-x="500" 
d="M115 795v47h270v-47h-270z" />
    <glyph glyph-name="dotaccent.cap" horiz-adv-x="500" 
d="M208 822q0 17 12.5 28t30.5 11q17 0 29 -11t12 -28t-12 -28t-29 -11q-18 0 -30.5 11t-12.5 28z" />
    <glyph glyph-name="cedilla.cap" horiz-adv-x="500" 
d="M165 -186l11 34q38 -14 66 -14q50 0 50 39q0 22 -17 29.5t-55 7.5h-9l22 99h36l-14 -67q33 -1 56.5 -16t23.5 -50q0 -40 -25 -59.5t-66 -19.5q-45 0 -79 17z" />
    <glyph glyph-name="hungarumlaut.cap" horiz-adv-x="500" 
d="M237 919l38 -31l-130 -132l-29 23zM352 906l36 -33l-123 -117l-28 25z" />
    <glyph glyph-name="commaaccent.cap" horiz-adv-x="500" 
d="M200 -216l41 156l54 -11l-56 -155z" />
    <glyph glyph-name="breve.cap" horiz-adv-x="500" 
d="M250 813q48 0 70 19t29 64l41 -8q-12 -117 -141 -117q-62 0 -95.5 27.5t-43.5 87.5l42 9q8 -44 30.5 -63t67.5 -19z" />
    <glyph glyph-name="caron.alt" horiz-adv-x="500" 
d="M205 538l37 182h57l-51 -182h-43z" />
    <glyph glyph-name="ogonek.cap" horiz-adv-x="500" 
d="M263 12l44 -2v-10q-91 -79 -91 -136q0 -39 42 -39q24 0 59 19l18 -33q-45 -30 -88 -30q-39 0 -61 20t-22 54q0 75 99 157z" />
    <glyph glyph-name="CR" horiz-adv-x="0" 
 />
    </font>
</defs>
</svg>
